<svg width="83" height="83" viewBox="0 0 83 83" fill="none" xmlns="http://www.w3.org/2000/svg">
<g opacity="0.3">
<path d="M41.5 20.75C37.396 20.75 33.3842 21.967 29.9719 24.247C26.5596 26.5271 23.9 29.7678 22.3295 33.5593C20.759 37.3509 20.3481 41.5231 21.1487 45.5482C21.9494 49.5733 23.9256 53.2705 26.8275 56.1725C29.7295 59.0744 33.4268 61.0506 37.4519 61.8513C41.477 62.6519 45.6491 62.241 49.4407 60.6705C53.2323 59.1 56.473 56.4404 58.753 53.0281C61.033 49.6158 62.25 45.604 62.25 41.5C62.2478 35.9975 60.061 30.7209 56.1701 26.83C52.2792 22.939 47.0026 20.7522 41.5 20.75Z" fill="white"/>
<path d="M41.5001 26.9773C44.3724 26.9773 47.1802 27.8291 49.5684 29.4248C51.9566 31.0206 53.818 33.2887 54.9172 35.9423C56.0164 38.596 56.304 41.516 55.7436 44.3331C55.1833 47.1502 53.8001 49.7378 51.7691 51.7688C49.7381 53.7998 47.1504 55.183 44.3333 55.7433C41.5162 56.3037 38.5962 56.0161 35.9426 54.917C33.2889 53.8178 31.0208 51.9564 29.4251 49.5681C27.8293 47.1799 26.9776 44.3722 26.9776 41.4999C26.9732 39.5915 27.3459 37.7011 28.0742 35.9372C28.8025 34.1733 29.8721 32.5706 31.2215 31.2212C32.5709 29.8718 34.1736 28.8023 35.9375 28.074C37.7014 27.3457 39.5918 26.973 41.5001 26.9773Z" fill="#929292"/>
<path d="M41.4999 39.0139C42.4156 39.0118 43.3228 39.1904 44.1694 39.5396C45.016 39.8888 45.7853 40.4017 46.4332 41.0489C47.0811 41.696 47.5949 42.4648 47.9451 43.311C48.2953 44.1571 48.475 45.0641 48.474 45.9798C48.4823 46.8635 48.312 47.7398 47.9735 48.5561H35.1083C34.6859 47.5059 34.5265 46.3683 34.6439 45.2424C34.7613 44.1164 35.152 43.0362 35.782 42.0957C36.412 41.1552 37.2622 40.3828 38.2587 39.8457C39.2552 39.3086 40.3679 39.0231 41.4999 39.0139Z" fill="white"/>
<path d="M61.2571 60.1742C61.6677 60.1742 62.069 60.296 62.4104 60.5241C62.7518 60.7522 63.0178 61.0764 63.1749 61.4557C63.332 61.835 63.3732 62.2524 63.2931 62.655C63.213 63.0577 63.0153 63.4276 62.725 63.7179C62.4346 64.0082 62.0648 64.2059 61.6621 64.286C61.2594 64.3661 60.842 64.325 60.4627 64.1679C60.0834 64.0107 59.7592 63.7447 59.5311 63.4033C59.303 63.062 59.1813 62.6606 59.1813 62.2501C59.178 61.9765 59.2294 61.7052 59.3326 61.4518C59.4357 61.1985 59.5885 60.9683 59.7819 60.7749C59.9754 60.5814 60.2055 60.4287 60.4589 60.3255C60.7122 60.2224 60.9836 60.1709 61.2571 60.1742Z" fill="white"/>
<path d="M23.3263 17.6814C23.8362 17.6814 24.3346 17.8327 24.7585 18.1162C25.1823 18.3996 25.5126 18.8024 25.7073 19.2737C25.9021 19.7449 25.9526 20.2634 25.8525 20.7634C25.7524 21.2633 25.5063 21.7224 25.1451 22.0823C24.784 22.4423 24.3242 22.687 23.8239 22.7855C23.3236 22.884 22.8053 22.8318 22.3347 22.6355C21.8641 22.4393 21.4623 22.1078 21.1802 21.6831C20.8981 21.2583 20.7484 20.7594 20.75 20.2495C20.7522 19.5677 21.0246 18.9145 21.5075 18.4331C21.9904 17.9517 22.6445 17.6814 23.3263 17.6814Z" fill="white"/>
<path d="M41.4999 32.0973C42.1896 32.0973 42.8638 32.3018 43.4372 32.685C44.0106 33.0682 44.4576 33.6128 44.7215 34.2499C44.9854 34.8871 45.0545 35.5883 44.9199 36.2647C44.7854 36.9411 44.4533 37.5624 43.9656 38.0501C43.4779 38.5378 42.8566 38.8699 42.1802 39.0044C41.5038 39.139 40.8026 39.0699 40.1655 38.806C39.5283 38.5421 38.9837 38.0951 38.6005 37.5217C38.2174 36.9482 38.0129 36.274 38.0129 35.5844C38.0085 35.1252 38.0957 34.6698 38.2694 34.2448C38.443 33.8197 38.6997 33.4336 39.0244 33.1089C39.3491 32.7842 39.7352 32.5275 40.1603 32.3538C40.5853 32.1801 41.0408 32.0929 41.4999 32.0973Z" fill="white"/>
<path d="M39.7524 43.3214L41.5001 39.0139L43.2395 43.3214L41.5001 45.0691L39.7524 43.3214Z" fill="white"/>
<path d="M63.3249 26.9773C63.5398 26.9757 63.7503 27.038 63.9296 27.1564C64.109 27.2748 64.2491 27.4439 64.3321 27.6421C64.415 27.8403 64.4372 28.0587 64.3957 28.2696C64.3541 28.4804 64.2508 28.6742 64.0989 28.8262C63.9469 28.9781 63.7532 29.0814 63.5423 29.1229C63.3315 29.1645 63.113 29.1423 62.9148 29.0593C62.7166 28.9763 62.5475 28.8363 62.4291 28.6569C62.3108 28.4775 62.2484 28.2671 62.25 28.0522C62.2563 27.7691 62.3716 27.4993 62.5718 27.2991C62.772 27.0989 63.0418 26.9836 63.3249 26.9773Z" fill="black"/>
<path d="M63.3248 53.9466C63.5394 53.9449 63.7496 54.0071 63.9287 54.1251C64.1079 54.2431 64.248 54.4116 64.3313 54.6094C64.4145 54.8072 64.4371 55.0252 64.3963 55.2358C64.3554 55.4465 64.2529 55.6402 64.1018 55.7924C63.9506 55.9447 63.7577 56.0487 63.5474 56.0912C63.337 56.1336 63.1189 56.1127 62.9205 56.031C62.7221 55.9492 62.5525 55.8104 62.4331 55.6321C62.3137 55.4539 62.25 55.2442 62.25 55.0296C62.2562 54.7457 62.3712 54.475 62.5712 54.2735C62.7712 54.0719 63.041 53.9549 63.3248 53.9466Z" fill="black"/>
<path d="M56.0226 17.6814C56.2375 17.6798 56.448 17.7422 56.6274 17.8606C56.8067 17.9789 56.9468 18.148 57.0298 18.3462C57.1128 18.5444 57.1349 18.7629 57.0934 18.9737C57.0519 19.1846 56.9486 19.3783 56.7966 19.5303C56.6447 19.6822 56.4509 19.7856 56.2401 19.8271C56.0292 19.8686 55.8108 19.8465 55.6126 19.7635C55.4143 19.6805 55.2453 19.5404 55.1269 19.3611C55.0085 19.1817 54.9462 18.9712 54.9478 18.7563C54.9541 18.4732 55.0693 18.2034 55.2695 18.0032C55.4698 17.803 55.7395 17.6877 56.0226 17.6814Z" fill="black"/>
<path d="M25.9762 62.25C26.1907 62.2484 26.4009 62.3105 26.5801 62.4286C26.7593 62.5466 26.8994 62.7151 26.9826 62.9129C27.0659 63.1106 27.0885 63.3287 27.0476 63.5393C27.0068 63.7499 26.9043 63.9437 26.7531 64.096C26.602 64.2483 26.409 64.3522 26.1987 64.3946C25.9884 64.4371 25.7702 64.4162 25.5719 64.3344C25.3735 64.2527 25.2039 64.1139 25.0845 63.9356C24.9651 63.7573 24.9014 63.5476 24.9014 63.3331C24.9076 63.0492 25.0225 62.7785 25.2226 62.5769C25.4226 62.3754 25.6924 62.2584 25.9762 62.25Z" fill="black"/>
<path d="M19.7574 28.0522C19.9716 28.0522 20.181 28.1158 20.3591 28.2348C20.5372 28.3538 20.676 28.5229 20.7579 28.7208C20.8399 28.9187 20.8614 29.1365 20.8196 29.3466C20.7778 29.5567 20.6746 29.7496 20.5232 29.9011C20.3717 30.0526 20.1787 30.1557 19.9686 30.1975C19.7586 30.2393 19.5408 30.2178 19.3429 30.1359C19.145 30.0539 18.9758 29.9151 18.8568 29.737C18.7378 29.5589 18.6743 29.3495 18.6743 29.1353C18.6786 28.8494 18.794 28.5763 18.9962 28.3741C19.1984 28.172 19.4714 28.0565 19.7574 28.0522Z" fill="black"/>
<path d="M19.7571 53.9468C19.9696 53.9469 20.1773 54.0095 20.3544 54.1268C20.5315 54.2441 20.6702 54.4109 20.7532 54.6064C20.8363 54.8019 20.86 55.0176 20.8214 55.2265C20.7828 55.4354 20.6837 55.6283 20.5363 55.7812C20.3889 55.9342 20.1998 56.0405 19.9925 56.0868C19.7851 56.1331 19.5688 56.1174 19.3703 56.0417C19.1718 55.966 19 55.8336 18.8762 55.661C18.7524 55.4883 18.6822 55.2831 18.6741 55.0708C18.6708 54.9258 18.6963 54.7815 18.7491 54.6463C18.8019 54.5111 18.8809 54.3877 18.9815 54.2833C19.0822 54.1788 19.2026 54.0952 19.3357 54.0375C19.4688 53.9797 19.6121 53.9489 19.7571 53.9468Z" fill="black"/>
<path d="M41.4999 63.333C37.193 63.3265 32.9846 62.044 29.4061 59.6473C25.8276 57.2506 23.0396 53.8473 21.394 49.8672C19.7485 45.887 19.3192 41.5085 20.1605 37.2846C21.0017 33.0606 23.0757 29.1806 26.1206 26.1346C29.1654 23.0886 33.0446 21.0132 37.2683 20.1704C41.4919 19.3275 45.8706 19.7552 49.8513 21.3992C53.8321 23.0433 57.2364 25.83 59.6344 29.4076C62.0325 32.9852 63.3166 37.1931 63.3247 41.5C63.3182 47.2871 61.017 52.8353 56.9257 56.9282C52.8344 61.021 47.2869 63.3243 41.4999 63.333ZM41.4999 21.833C37.6081 21.846 33.8074 23.0119 30.5778 25.1835C27.3482 27.3551 24.8345 30.435 23.3541 34.0343C21.8738 37.6336 21.4932 41.5908 22.2604 45.4063C23.0276 49.2218 24.9082 52.7243 27.6647 55.4717C30.4212 58.219 33.93 60.088 37.748 60.8425C41.566 61.597 45.5219 61.2032 49.1162 59.7109C52.7106 58.2185 55.7821 55.6946 57.943 52.4578C60.1038 49.221 61.2571 45.4164 61.2571 41.5246C61.229 36.2994 59.1363 31.2972 55.4353 27.6085C51.7343 23.9198 46.7252 21.8438 41.4999 21.833Z" fill="black"/>
<path d="M41.4998 57.1056C38.4166 57.1056 35.4026 56.1913 32.8389 54.4783C30.2753 52.7653 28.2772 50.3307 27.0973 47.4821C25.9174 44.6336 25.6087 41.4991 26.2102 38.4751C26.8117 35.4511 28.2964 32.6734 30.4766 30.4932C32.6568 28.313 35.4345 26.8283 38.4585 26.2268C41.4825 25.6253 44.617 25.934 47.4655 27.1139C50.3141 28.2938 52.7488 30.2919 54.4617 32.8556C56.1747 35.4192 57.089 38.4332 57.089 41.5164C57.076 45.6469 55.4294 49.6045 52.5087 52.5253C49.588 55.446 45.6303 57.0926 41.4998 57.1056ZM41.4998 28.0523C38.8239 28.0523 36.208 28.8458 33.9831 30.3325C31.7581 31.8191 30.024 33.9322 29 36.4045C27.9759 38.8767 27.708 41.5971 28.23 44.2216C28.7521 46.8461 30.0407 49.2569 31.9328 51.1491C33.825 53.0412 36.2358 54.3298 38.8603 54.8518C41.4848 55.3739 44.2052 55.106 46.6774 54.0819C49.1497 53.0579 51.2627 51.3238 52.7494 49.0988C54.2361 46.8738 55.0296 44.258 55.0296 41.5821C55.0274 37.9944 53.6013 34.5543 51.0644 32.0175C48.5275 29.4806 45.0875 28.0545 41.4998 28.0523Z" fill="black"/>
<path d="M41.4999 40.0888C40.6138 40.0888 39.7477 39.8261 39.011 39.3338C38.2743 38.8416 37.7001 38.1419 37.361 37.3233C37.022 36.5048 36.9332 35.604 37.1061 34.735C37.279 33.866 37.7056 33.0678 38.3321 32.4413C38.9587 31.8147 39.7569 31.3881 40.6259 31.2152C41.4949 31.0424 42.3956 31.1311 43.2142 31.4701C44.0328 31.8092 44.7325 32.3834 45.2247 33.1201C45.717 33.8568 45.9797 34.723 45.9797 35.609C45.969 36.7938 45.4936 37.9271 44.6557 38.7649C43.8179 39.6027 42.6847 40.0781 41.4999 40.0888ZM41.4999 33.1147C41.0224 33.1131 40.5552 33.2532 40.1575 33.5172C39.7597 33.7813 39.4492 34.1575 39.2654 34.5981C39.0816 35.0388 39.0326 35.524 39.1248 35.9925C39.2169 36.461 39.446 36.8915 39.783 37.2297C40.1201 37.5679 40.5499 37.7984 41.018 37.8922C41.4862 37.9859 41.9716 37.9386 42.4129 37.7563C42.8541 37.574 43.2313 37.2648 43.4968 36.8679C43.7622 36.4711 43.9039 36.0044 43.9039 35.5269C43.9039 34.8886 43.6509 34.2763 43.2003 33.8241C42.7496 33.372 42.1382 33.1169 41.4999 33.1147Z" fill="black"/>
<path d="M41.4998 46.1438C41.3594 46.1435 41.2206 46.1143 41.0921 46.0578C40.9636 46.0013 40.8482 45.9188 40.7531 45.8156L38.9727 44.0761C38.8224 43.9448 38.7176 43.7693 38.6734 43.5747C38.6291 43.3801 38.6477 43.1765 38.7265 42.9932L40.507 38.661C40.5884 38.4647 40.7262 38.297 40.9029 38.179C41.0796 38.061 41.2873 37.998 41.4998 37.998C41.7122 37.998 41.9199 38.061 42.0966 38.179C42.2734 38.297 42.4111 38.4647 42.4925 38.661L44.2402 42.9767C44.3278 43.1592 44.3504 43.3661 44.3041 43.5631C44.2579 43.7602 44.1455 43.9354 43.9858 44.0598L42.2546 45.8156C42.1586 45.9198 42.0418 46.0029 41.9119 46.0594C41.7819 46.116 41.6415 46.1447 41.4998 46.1438ZM40.9993 43.0752L41.4998 43.5757L42.0003 43.0752L41.4998 41.8362L40.9993 43.0752Z" fill="black"/>
<path d="M47.8913 49.6309H35.1082C34.8953 49.6319 34.6869 49.5692 34.51 49.4507C34.3331 49.3323 34.1956 49.1636 34.1154 48.9664C33.7134 48.0229 33.5149 47.0052 33.5329 45.9798C33.5329 43.8668 34.3722 41.8405 35.8663 40.3464C37.3604 38.8523 39.3868 38.0129 41.4997 38.0129C43.6127 38.0129 45.6391 38.8523 47.1332 40.3464C48.6273 41.8405 49.4666 43.8668 49.4666 45.9798C49.4846 47.0052 49.2861 48.0229 48.8841 48.9664C48.8132 49.1699 48.6779 49.3448 48.4988 49.4647C48.3197 49.5846 48.1065 49.6429 47.8913 49.6309ZM35.7728 47.5552H47.1775C47.346 47.0473 47.4292 46.5149 47.4236 45.9798C47.4236 44.4174 46.803 42.919 45.6982 41.8142C44.5934 40.7094 43.095 40.0887 41.5326 40.0887C39.9701 40.0887 38.4717 40.7094 37.3669 41.8142C36.2622 42.919 35.6415 44.4174 35.6415 45.9798C35.6443 46.5075 35.6882 47.0343 35.7728 47.5552Z" fill="black"/>
<path d="M23.3264 23.8924C22.6043 23.8924 21.8984 23.6783 21.298 23.2771C20.6975 22.8759 20.2296 22.3056 19.9532 21.6385C19.6769 20.9713 19.6046 20.2372 19.7455 19.5289C19.8863 18.8207 20.2341 18.1701 20.7447 17.6595C21.2553 17.1489 21.9059 16.8011 22.6141 16.6602C23.3224 16.5194 24.0565 16.5917 24.7237 16.868C25.3908 17.1444 25.9611 17.6123 26.3623 18.2128C26.7635 18.8132 26.9776 19.5191 26.9776 20.2412C26.969 21.2069 26.5816 22.1306 25.8987 22.8135C25.2158 23.4964 24.2921 23.8838 23.3264 23.8924ZM23.3264 18.6659C23.0126 18.6643 22.7053 18.756 22.4436 18.9294C22.1819 19.1028 21.9777 19.35 21.8568 19.6397C21.736 19.9293 21.7039 20.2484 21.7648 20.5564C21.8256 20.8643 21.9766 21.1472 22.1985 21.3692C22.4205 21.5911 22.7034 21.7421 23.0113 21.8029C23.3193 21.8638 23.6383 21.8317 23.928 21.7108C24.2177 21.59 24.4649 21.3857 24.6383 21.1241C24.8117 20.8624 24.9034 20.5551 24.9018 20.2412C24.9075 20.0332 24.8706 19.8262 24.7933 19.6329C24.7161 19.4397 24.6001 19.2643 24.4525 19.1175C24.305 18.9707 24.129 18.8557 23.9353 18.7794C23.7417 18.7032 23.5345 18.6674 23.3264 18.6741V18.6659Z" fill="black"/>
<path d="M61.2571 65.4007C60.634 65.4007 60.0248 65.2159 59.5067 64.8697C58.9886 64.5235 58.5847 64.0314 58.3463 63.4557C58.1078 62.88 58.0454 62.2465 58.167 61.6354C58.2886 61.0242 58.5886 60.4628 59.0293 60.0222C59.4699 59.5816 60.0313 59.2815 60.6424 59.1599C61.2536 59.0383 61.8871 59.1008 62.4628 59.3392C63.0385 59.5777 63.5306 59.9815 63.8768 60.4996C64.223 61.0178 64.4078 61.6269 64.4078 62.25C64.3754 63.0753 64.033 63.858 63.449 64.442C62.865 65.0259 62.0823 65.3683 61.2571 65.4007ZM61.2571 61.2572C61.0422 61.2556 60.8317 61.318 60.6523 61.4364C60.473 61.5547 60.3329 61.7238 60.2499 61.922C60.1669 62.1202 60.1448 62.3387 60.1863 62.5495C60.2278 62.7604 60.3311 62.9541 60.4831 63.1061C60.6351 63.258 60.8288 63.3613 61.0396 63.4029C61.2505 63.4444 61.4689 63.4223 61.6672 63.3393C61.8654 63.2563 62.0344 63.1162 62.1528 62.9368C62.2712 62.7575 62.3336 62.5469 62.3319 62.3321C62.3128 62.0533 62.1934 61.7909 61.9958 61.5933C61.7982 61.3958 61.5358 61.2764 61.2571 61.2572Z" fill="black"/>
</g>
</svg>
