<svg width="83" height="83" viewBox="0 0 83 83" fill="none" xmlns="http://www.w3.org/2000/svg">
<g opacity="0.3">
<path d="M20.2496 19.7571C20.6674 19.7571 21.0681 19.923 21.3635 20.2185C21.659 20.5139 21.825 20.9146 21.825 21.3324C21.825 21.7502 21.659 22.1509 21.3635 22.4463C21.0681 22.7418 20.6674 22.9077 20.2496 22.9077C19.8318 22.9077 19.4311 22.7418 19.1357 22.4463C18.8403 22.1509 18.6743 21.7502 18.6743 21.3324C18.6743 20.9146 18.8403 20.5139 19.1357 20.2185C19.4311 19.923 19.8318 19.7571 20.2496 19.7571Z" fill="white"/>
<path d="M58.5988 19.7571C59.1087 19.7571 59.6071 19.9084 60.031 20.1918C60.4548 20.4753 60.785 20.8781 60.9798 21.3494C61.1745 21.8206 61.225 22.3391 61.125 22.839C61.0249 23.339 60.7787 23.798 60.4176 24.158C60.0565 24.518 59.5966 24.7627 59.0964 24.8612C58.5961 24.9597 58.0778 24.9075 57.6072 24.7112C57.1366 24.515 56.7348 24.1835 56.4527 23.7587C56.1706 23.334 56.0209 22.8351 56.0225 22.3252C56.0246 21.6433 56.297 20.9901 56.78 20.5088C57.2629 20.0274 57.9169 19.7571 58.5988 19.7571Z" fill="white"/>
<path d="M63.3329 34.2798H57.1055V37.4304H63.3329V34.2798Z" fill="white"/>
<path d="M63.3247 37.3481V56.0223L60.1741 61.257L57.1055 56.0223V37.3481H63.3247Z" fill="white"/>
<path d="M63.3334 31.1209V34.2797H57.106V31.1209C57.106 30.2853 57.4379 29.4839 58.0287 28.893C58.6196 28.3022 59.421 27.9702 60.2566 27.9702C61.0931 27.9718 61.8963 28.2983 62.4965 28.881C62.9917 29.5279 63.2831 30.3077 63.3334 31.1209Z" fill="white"/>
<path d="M22.8258 28.7168C22.8258 27.4112 23.3444 26.159 24.2676 25.2358C25.1909 24.3126 26.443 23.7939 27.7487 23.7939H31.1537V61.1423H27.7487C27.0994 61.1523 26.4548 61.0317 25.853 60.7879C25.2512 60.544 24.7046 60.1818 24.2454 59.7226C23.7863 59.2635 23.4241 58.7168 23.1802 58.1151C22.9363 57.5133 22.8158 56.8686 22.8258 56.2194V28.7168Z" fill="white"/>
<path d="M53.947 56.0225V56.3589C53.947 57.6645 53.4283 58.9167 52.5051 59.8399C51.5819 60.7631 50.3297 61.2818 49.0241 61.2818H31.1294V56.0471L53.947 56.0225Z" fill="#888888"/>
<path d="M53.947 28.7167V56.0224H31.1294V23.9005H49.0569C49.695 23.8929 50.3283 24.0117 50.9202 24.2502C51.512 24.4886 52.0508 24.8419 52.5055 25.2897C52.9601 25.7375 53.3216 26.2708 53.569 26.859C53.8164 27.4472 53.9449 28.0786 53.947 28.7167Z" fill="#888888"/>
<path d="M56.0226 62.25C56.2375 62.2484 56.448 62.3108 56.6274 62.4291C56.8067 62.5475 56.9468 62.7166 57.0298 62.9148C57.1128 63.113 57.1349 63.3315 57.0934 63.5423C57.0519 63.7532 56.9486 63.9469 56.7966 64.0989C56.6446 64.2508 56.4509 64.3541 56.2401 64.3957C56.0292 64.4372 55.8108 64.415 55.6125 64.3321C55.4143 64.2491 55.2453 64.109 55.1269 63.9296C55.0085 63.7503 54.9462 63.5398 54.9478 63.3249C54.9686 63.0467 55.0885 62.7853 55.2858 62.588C55.483 62.3908 55.7445 62.2709 56.0226 62.25Z" fill="black"/>
<path d="M51.8794 19.7571C52.094 19.7571 52.3037 19.8208 52.482 19.9402C52.6603 20.0596 52.7991 20.2292 52.8808 20.4276C52.9625 20.626 52.9835 20.8441 52.941 21.0544C52.8986 21.2648 52.7946 21.4577 52.6423 21.6088C52.49 21.76 52.2963 21.8625 52.0857 21.9033C51.875 21.9442 51.657 21.9216 51.4593 21.8383C51.2615 21.7551 51.0929 21.615 50.9749 21.4358C50.8569 21.2566 50.7948 21.0465 50.7964 20.8319C50.8007 20.5468 50.9164 20.2746 51.1188 20.0737C51.3213 19.8729 51.5943 19.7592 51.8794 19.7571Z" fill="black"/>
<path d="M45.6518 38.4313C45.9217 38.4549 46.173 38.5788 46.3561 38.7785C46.5391 38.9783 46.6407 39.2393 46.6407 39.5103C46.6407 39.7812 46.5391 40.0423 46.3561 40.2421C46.173 40.4418 45.9217 40.5657 45.6518 40.5892C45.5022 40.6023 45.3516 40.5841 45.2094 40.5358C45.0672 40.4875 44.9366 40.4102 44.8259 40.3087C44.7152 40.2072 44.6268 40.0839 44.5663 39.9464C44.5059 39.809 44.4746 39.6604 44.4746 39.5103C44.4746 39.3601 44.5059 39.2116 44.5663 39.0741C44.6268 38.9367 44.7152 38.8133 44.8259 38.7119C44.9366 38.6104 45.0672 38.5331 45.2094 38.4848C45.3516 38.4365 45.5022 38.4183 45.6518 38.4313Z" fill="black"/>
<path d="M26.9776 18.6741C27.1918 18.6741 27.4012 18.7376 27.5793 18.8566C27.7574 18.9756 27.8962 19.1448 27.9782 19.3427C28.0601 19.5406 28.0816 19.7583 28.0398 19.9684C27.998 20.1785 27.8949 20.3715 27.7434 20.5229C27.5919 20.6744 27.3989 20.7775 27.1889 20.8193C26.9788 20.8611 26.761 20.8397 26.5631 20.7577C26.3652 20.6757 26.196 20.5369 26.077 20.3588C25.958 20.1807 25.8945 19.9713 25.8945 19.7571C25.9137 19.4762 26.034 19.2117 26.2331 19.0126C26.4322 18.8135 26.6967 18.6932 26.9776 18.6741Z" fill="black"/>
<path d="M21.8331 61.2572C22.0476 61.2572 22.2574 61.3209 22.4356 61.4403C22.6139 61.5597 22.7527 61.7293 22.8344 61.9277C22.9162 62.126 22.9371 62.3442 22.8947 62.5545C22.8522 62.7649 22.7483 62.9578 22.596 63.1089C22.4437 63.2601 22.2499 63.3626 22.0393 63.4034C21.8287 63.4443 21.6107 63.4217 21.4129 63.3384C21.2152 63.2552 21.0466 63.1151 20.9286 62.9359C20.8105 62.7567 20.7484 62.5466 20.7501 62.332C20.7454 62.1889 20.7703 62.0464 20.8232 61.9134C20.8761 61.7803 20.9559 61.6596 21.0575 61.5587C21.1591 61.4579 21.2805 61.3791 21.4139 61.3272C21.5473 61.2753 21.69 61.2515 21.8331 61.2572Z" fill="black"/>
<path d="M49.0569 62.2499H27.7243C26.3095 62.2442 24.944 61.7296 23.8774 60.8001C22.8108 59.8706 22.1143 58.5882 21.9153 57.1875C21.8477 56.8889 21.8201 56.5826 21.8333 56.2768V28.7168C21.8397 27.1564 22.4625 25.6617 23.5659 24.5583C24.6693 23.4549 26.1639 22.8322 27.7243 22.8257H49.1389C50.7064 22.8213 52.2116 23.4393 53.3239 24.5439C54.4361 25.6484 55.0645 27.1493 55.071 28.7168V56.3588C55.0657 57.1413 54.9056 57.915 54.5999 58.6354C54.2943 59.3558 53.8491 60.0085 53.2901 60.5561C52.7311 61.1037 52.0692 61.5353 51.3427 61.8259C50.6162 62.1166 49.8393 62.2607 49.0569 62.2499ZM27.7243 24.9015C27.2216 24.8983 26.7232 24.9946 26.258 25.185C25.7927 25.3754 25.3697 25.656 25.0135 26.0107C24.6573 26.3654 24.3748 26.7872 24.1824 27.2516C23.9901 27.7161 23.8916 28.214 23.8927 28.7168V56.3588C23.8783 56.5546 23.9092 56.7512 23.9829 56.9332C24.1172 57.8478 24.5771 58.6834 25.2779 59.2863C25.9788 59.8892 26.8737 60.219 27.7982 60.2151H49.2128C49.7144 60.2173 50.2115 60.12 50.6754 59.9291C51.1392 59.7381 51.5607 59.4572 51.9154 59.1025C52.2701 58.7478 52.5511 58.3263 52.742 57.8624C52.933 57.3986 53.0302 56.9015 53.028 56.3998V28.7168C53.0302 28.2151 52.933 27.718 52.742 27.2542C52.5511 26.7903 52.2701 26.3689 51.9154 26.0141C51.5607 25.6594 51.1392 25.3785 50.6754 25.1875C50.2115 24.9965 49.7144 24.8994 49.2128 24.9015H27.7243Z" fill="black"/>
<path d="M60.1743 62.25C59.9936 62.2453 59.8166 62.1974 59.6581 62.1104C59.4997 62.0233 59.3644 61.8995 59.2636 61.7495L56.1047 56.523C56.0136 56.3704 55.9575 56.1994 55.9406 56.0225V31.1209C55.9351 30.5745 56.0388 30.0326 56.2456 29.5268C56.4524 29.0211 56.7581 28.5618 57.1449 28.1758C57.5316 27.7899 57.9915 27.485 58.4977 27.2793C59.0038 27.0735 59.5459 26.9708 60.0923 26.9774C60.6361 26.9699 61.1754 27.0762 61.6756 27.2896C62.1759 27.5029 62.6259 27.8186 62.9968 28.2164C63.7719 28.9872 64.2188 30.028 64.2439 31.1209V56.0225C64.227 56.1994 64.171 56.3704 64.0798 56.523L60.921 61.7495C60.8714 61.905 60.7706 62.0392 60.635 62.1301C60.4994 62.221 60.337 62.2632 60.1743 62.25ZM58.0985 55.7764L60.1743 59.2634L62.2501 55.7764V31.1619C62.2345 30.6117 62.0287 30.084 61.6676 29.6686C61.4716 29.4754 61.2378 29.3246 60.9808 29.2258C60.7239 29.127 60.4493 29.0822 60.1743 29.0943C59.9015 29.091 59.6308 29.1422 59.378 29.2448C59.1252 29.3475 58.8954 29.4995 58.7021 29.692C58.5088 29.8846 58.3558 30.1138 58.2522 30.3661C58.1486 30.6185 58.0963 30.8891 58.0985 31.1619V55.7764Z" fill="black"/>
<path d="M63.3334 35.2723H57.1059C56.9563 35.2854 56.8056 35.2672 56.6635 35.2189C56.5213 35.1706 56.3907 35.0933 56.28 34.9918C56.1693 34.8904 56.0809 34.767 56.0204 34.6295C55.9599 34.4921 55.9287 34.3436 55.9287 34.1934C55.9287 34.0432 55.9599 33.8947 56.0204 33.7572C56.0809 33.6198 56.1693 33.4964 56.28 33.395C56.3907 33.2935 56.5213 33.2162 56.6635 33.1679C56.8056 33.1196 56.9563 33.1014 57.1059 33.1145H63.3334C63.6179 33.1208 63.8888 33.2372 64.0893 33.4392C64.2897 33.6411 64.404 33.913 64.4082 34.1975C64.3891 34.4762 64.2697 34.7386 64.0721 34.9362C63.8745 35.1338 63.6121 35.2532 63.3334 35.2723Z" fill="black"/>
<path d="M63.3334 38.4315H57.1059C56.9563 38.4446 56.8056 38.4264 56.6635 38.3781C56.5213 38.3298 56.3907 38.2525 56.28 38.151C56.1693 38.0495 56.0809 37.9262 56.0204 37.7887C55.9599 37.6513 55.9287 37.5027 55.9287 37.3526C55.9287 37.2024 55.9599 37.0539 56.0204 36.9164C56.0809 36.779 56.1693 36.6556 56.28 36.5541C56.3907 36.4527 56.5213 36.3753 56.6635 36.3271C56.8056 36.2788 56.9563 36.2606 57.1059 36.2736H63.3334C63.6171 36.2779 63.8881 36.3925 64.0887 36.5931C64.2894 36.7938 64.404 37.0647 64.4082 37.3485C64.3893 37.6281 64.2702 37.8915 64.0728 38.0904C63.8754 38.2893 63.6128 38.4104 63.3334 38.4315Z" fill="black"/>
<path d="M25.9767 33.2296H21.3328C20.6516 33.2274 19.9988 32.9564 19.5163 32.4755C19.0339 31.9946 18.7608 31.3427 18.7565 30.6615C18.7532 30.3222 18.8176 29.9857 18.9459 29.6717C19.0742 29.3576 19.2638 29.0723 19.5037 28.8324C19.7436 28.5925 20.0289 28.4029 20.343 28.2746C20.6571 28.1463 20.9936 28.0819 21.3328 28.0852H22.9081C23.0577 28.0721 23.2084 28.0903 23.3506 28.1386C23.4928 28.1869 23.6234 28.2642 23.7341 28.3657C23.8448 28.4671 23.9332 28.5905 23.9936 28.7279C24.0541 28.8654 24.0853 29.0139 24.0853 29.1641C24.0853 29.3143 24.0541 29.4628 23.9936 29.6002C23.9332 29.7377 23.8448 29.8611 23.7341 29.9625C23.6234 30.064 23.4928 30.1413 23.3506 30.1896C23.2084 30.2379 23.0577 30.2561 22.9081 30.243H21.3328C21.1687 30.243 20.9964 30.3251 20.9964 30.4071C20.947 30.4485 20.9068 30.4999 20.8785 30.5579C20.8503 30.6158 20.8345 30.6791 20.8323 30.7435C20.8418 30.8731 20.8976 30.995 20.9895 31.0869C21.0813 31.1787 21.2032 31.2345 21.3328 31.244H25.9767C26.149 31.244 26.3131 31.1538 26.3131 31.0717C26.3632 31.0327 26.4039 30.9829 26.4322 30.9262C26.4606 30.8694 26.476 30.807 26.4772 30.7435C26.4677 30.6139 26.4119 30.4921 26.3201 30.4002C26.2282 30.3083 26.1063 30.2525 25.9767 30.243C25.7068 30.2195 25.4555 30.0956 25.2725 29.8959C25.0894 29.6961 24.9879 29.435 24.9879 29.1641C24.9879 28.8932 25.0894 28.6321 25.2725 28.4323C25.4555 28.2326 25.7068 28.1087 25.9767 28.0852C26.6587 28.0895 27.3115 28.3623 27.7937 28.8445C28.2759 29.3267 28.5487 29.9795 28.553 30.6615C28.5558 30.9995 28.4913 31.3346 28.3631 31.6474C28.2349 31.9601 28.0456 32.2442 27.8064 32.4829C27.5656 32.7217 27.28 32.9105 26.966 33.0387C26.652 33.1668 26.3158 33.2317 25.9767 33.2296Z" fill="black"/>
<path d="M25.9764 39.4242H21.3325C20.9825 39.444 20.6321 39.3921 20.3029 39.2718C19.9736 39.1515 19.6723 38.9652 19.4176 38.7244C19.1628 38.4836 18.9598 38.1934 18.8211 37.8714C18.6824 37.5495 18.6108 37.2026 18.6108 36.852C18.6108 36.5014 18.6824 36.1546 18.8211 35.8326C18.9598 35.5107 19.1628 35.2204 19.4176 34.9796C19.6723 34.7388 19.9736 34.5525 20.3029 34.4322C20.6321 34.3119 20.9825 34.26 21.3325 34.2798H22.9078C23.0574 34.2667 23.2081 34.285 23.3503 34.3332C23.4925 34.3815 23.6231 34.4589 23.7338 34.5603C23.8445 34.6618 23.9329 34.7851 23.9933 34.9226C24.0538 35.0601 24.085 35.2086 24.085 35.3587C24.085 35.5089 24.0538 35.6574 23.9933 35.7949C23.9329 35.9323 23.8445 36.0557 23.7338 36.1572C23.6231 36.2586 23.4925 36.336 23.3503 36.3842C23.2081 36.4325 23.0574 36.4507 22.9078 36.4377H21.3325C21.1684 36.4377 20.9961 36.5197 20.9961 36.6018C20.832 36.5197 20.75 36.6838 20.75 36.8479C20.7578 36.9781 20.813 37.1009 20.9052 37.1932C20.9974 37.2854 21.1202 37.3406 21.2504 37.3484H25.8944C26.0585 37.3484 26.2308 37.2664 26.2308 37.1843C26.2819 37.1444 26.3232 37.0934 26.3517 37.0351C26.3801 36.9768 26.3949 36.9128 26.3949 36.8479C26.3851 36.7192 26.3291 36.5983 26.237 36.5078C26.145 36.4173 26.0233 36.3632 25.8944 36.3556C25.6245 36.3321 25.3732 36.2082 25.1901 36.0085C25.0071 35.8087 24.9055 35.5476 24.9055 35.2767C24.9055 35.0058 25.0071 34.7447 25.1901 34.5449C25.3732 34.3452 25.6245 34.2213 25.8944 34.1978C26.5756 34.1999 27.2284 34.4709 27.7108 34.9518C28.1933 35.4327 28.4664 36.0847 28.4707 36.7659C28.4713 37.4501 28.2032 38.1071 27.7241 38.5955C27.5209 38.8641 27.256 39.0797 26.9518 39.224C26.6475 39.3682 26.3129 39.4369 25.9764 39.4242Z" fill="black"/>
<path d="M25.9764 45.6515H21.3325C20.9825 45.6712 20.6321 45.6194 20.3029 45.499C19.9736 45.3787 19.6723 45.1924 19.4176 44.9517C19.1628 44.7109 18.9598 44.4206 18.8211 44.0986C18.6824 43.7767 18.6108 43.4298 18.6108 43.0793C18.6108 42.7287 18.6824 42.3818 18.8211 42.0598C18.9598 41.7379 19.1628 41.4476 19.4176 41.2068C19.6723 40.966 19.9736 40.7798 20.3029 40.6595C20.6321 40.5391 20.9825 40.4873 21.3325 40.507H22.9078C23.0574 40.494 23.2081 40.5122 23.3503 40.5605C23.4925 40.6088 23.6231 40.6861 23.7338 40.7875C23.8445 40.889 23.9329 41.0124 23.9933 41.1498C24.0538 41.2873 24.085 41.4358 24.085 41.586C24.085 41.7361 24.0538 41.8847 23.9933 42.0221C23.9329 42.1596 23.8445 42.2829 23.7338 42.3844C23.6231 42.4859 23.4925 42.5632 23.3503 42.6115C23.2081 42.6598 23.0574 42.678 22.9078 42.6649H21.3325C21.268 42.6671 21.2048 42.6829 21.1468 42.7112C21.0889 42.7394 21.0375 42.7796 20.9961 42.829C20.946 42.8681 20.9053 42.9178 20.877 42.9746C20.8486 43.0313 20.8332 43.0937 20.832 43.1572C20.8415 43.2868 20.8973 43.4086 20.9892 43.5005C21.081 43.5924 21.2029 43.6482 21.3325 43.6577H25.9764C26.1038 43.6421 26.2222 43.5844 26.3129 43.4937C26.4036 43.403 26.4614 43.2845 26.4769 43.1572C26.4672 43.0285 26.4111 42.9076 26.3191 42.8171C26.227 42.7265 26.1053 42.6725 25.9764 42.6649C25.7065 42.6413 25.4552 42.5175 25.2722 42.3177C25.0891 42.118 24.9876 41.8569 24.9876 41.586C24.9876 41.315 25.0891 41.0539 25.2722 40.8542C25.4552 40.6545 25.7065 40.5306 25.9764 40.507C26.4849 40.5094 26.9813 40.6617 27.4036 40.9448C27.826 41.2279 28.1554 41.6293 28.3507 42.0987C28.546 42.5682 28.5985 43.0848 28.5016 43.5839C28.4048 44.083 28.1628 44.5425 27.8061 44.9048C27.3177 45.384 26.6606 45.6521 25.9764 45.6515Z" fill="black"/>
<path d="M25.9767 51.871H21.3328C20.6516 51.8689 19.9988 51.5978 19.5163 51.1169C19.0339 50.636 18.7608 49.9841 18.7565 49.3029C18.7532 48.9636 18.8176 48.6272 18.9459 48.3131C19.0742 47.999 19.2638 47.7137 19.5037 47.4738C19.7436 47.2339 20.0289 47.0443 20.343 46.916C20.6571 46.7877 20.9936 46.7233 21.3328 46.7266H22.9081C23.0577 46.7135 23.2084 46.7317 23.3506 46.78C23.4928 46.8283 23.6234 46.9056 23.7341 47.0071C23.8448 47.1085 23.9332 47.2319 23.9936 47.3694C24.0541 47.5068 24.0853 47.6553 24.0853 47.8055C24.0853 47.9557 24.0541 48.1042 23.9936 48.2417C23.9332 48.3791 23.8448 48.5025 23.7341 48.6039C23.6234 48.7054 23.4928 48.7827 23.3506 48.831C23.2084 48.8793 23.0577 48.8975 22.9081 48.8844H21.3328C21.2683 48.8867 21.2051 48.9024 21.1471 48.9307C21.0892 48.959 21.0378 48.9991 20.9964 49.0485C20.8323 48.9665 20.7503 49.1388 20.7503 49.3029C20.7598 49.4325 20.8155 49.5543 20.9074 49.6462C20.9993 49.7381 21.1211 49.7939 21.2507 49.8034H25.8947C25.9599 49.8007 26.0237 49.7839 26.0818 49.7542C26.1398 49.7244 26.1908 49.6824 26.2311 49.6311C26.2811 49.592 26.3218 49.5423 26.3502 49.4855C26.3786 49.4287 26.3939 49.3664 26.3952 49.3029C26.3874 49.1727 26.3321 49.0499 26.2399 48.9576C26.1477 48.8654 26.0249 48.8102 25.8947 48.8024C25.6248 48.7788 25.3735 48.655 25.1904 48.4552C25.0074 48.2555 24.9058 47.9944 24.9058 47.7235C24.9058 47.4525 25.0074 47.1914 25.1904 46.9917C25.3735 46.7919 25.6248 46.6681 25.8947 46.6445C26.4031 46.6469 26.8996 46.7992 27.3219 47.0823C27.7442 47.3654 28.0736 47.7668 28.2689 48.2362C28.4642 48.7057 28.5167 49.2223 28.4199 49.7214C28.323 50.2205 28.0811 50.68 27.7244 51.0423C27.5212 51.3109 27.2563 51.5265 26.9521 51.6707C26.6478 51.815 26.3132 51.8837 25.9767 51.871Z" fill="black"/>
<path d="M25.9764 58.0982H21.3325C20.9825 58.118 20.6321 58.0662 20.3029 57.9458C19.9736 57.8255 19.6723 57.6392 19.4176 57.3984C19.1628 57.1576 18.9598 56.8674 18.8211 56.5454C18.6824 56.2235 18.6108 55.8766 18.6108 55.526C18.6108 55.1755 18.6824 54.8286 18.8211 54.5066C18.9598 54.1847 19.1628 53.8944 19.4176 53.6536C19.6723 53.4128 19.9736 53.2266 20.3029 53.1062C20.6321 52.9859 20.9825 52.934 21.3325 52.9538H22.9078C23.0574 52.9408 23.2081 52.959 23.3503 53.0072C23.4925 53.0555 23.6231 53.1329 23.7338 53.2343C23.8445 53.3358 23.9329 53.4592 23.9933 53.5966C24.0538 53.7341 24.085 53.8826 24.085 54.0327C24.085 54.1829 24.0538 54.3314 23.9933 54.4689C23.9329 54.6063 23.8445 54.7297 23.7338 54.8312C23.6231 54.9326 23.4925 55.01 23.3503 55.0583C23.2081 55.1066 23.0574 55.1247 22.9078 55.1117H21.3325C21.268 55.1139 21.2048 55.1297 21.1468 55.1579C21.0889 55.1862 21.0375 55.2263 20.9961 55.2758C20.945 55.3157 20.9036 55.3667 20.8752 55.425C20.8467 55.4833 20.832 55.5473 20.832 55.6122C20.8417 55.7409 20.8978 55.8618 20.9898 55.9523C21.0818 56.0428 21.2036 56.0969 21.3325 56.1045H25.9764C26.1025 56.0893 26.2201 56.0328 26.3106 55.9437C26.4012 55.8546 26.4597 55.738 26.4769 55.6122C26.4691 55.482 26.4139 55.3592 26.3217 55.2669C26.2294 55.1747 26.1066 55.1195 25.9764 55.1117C25.6919 55.1053 25.421 54.989 25.2205 54.787C25.0201 54.585 24.9058 54.3132 24.9016 54.0287C24.9058 53.8925 24.9371 53.7586 24.9936 53.6346C25.0501 53.5107 25.1308 53.3993 25.2308 53.3069C25.3309 53.2144 25.4483 53.1429 25.5764 53.0964C25.7044 53.0498 25.8404 53.0293 25.9764 53.0359C26.6584 53.0402 27.3112 53.313 27.7934 53.7952C28.2756 54.2774 28.5484 54.9302 28.5527 55.6122C28.5546 55.95 28.4896 56.2849 28.3615 56.5976C28.2334 56.9102 28.0446 57.1943 27.8061 57.4336C27.2911 57.8596 26.6447 58.0944 25.9764 58.0982Z" fill="black"/>
<path d="M31.1294 62.2498C30.8442 62.2436 30.5723 62.1274 30.3705 61.9257C30.1688 61.7239 30.0527 61.4521 30.0464 61.1668V23.8184C30.0699 23.5485 30.1938 23.2973 30.3936 23.1142C30.5933 22.9311 30.8544 22.8296 31.1253 22.8296C31.3963 22.8296 31.6574 22.9311 31.8571 23.1142C32.0568 23.2973 32.1807 23.5485 32.2043 23.8184V61.1668C32.2001 61.4513 32.0858 61.7232 31.8853 61.9251C31.6849 62.1271 31.4139 62.2435 31.1294 62.2498Z" fill="black"/>
<path d="M49.8033 52.9211H35.2725C35.0026 52.8975 34.7513 52.7736 34.5683 52.5739C34.3852 52.3742 34.2837 52.1131 34.2837 51.8421C34.2837 51.5712 34.3852 51.3101 34.5683 51.1104C34.7513 50.9106 35.0026 50.7867 35.2725 50.7632H49.8033C50.0732 50.7867 50.3245 50.9106 50.5075 51.1104C50.6906 51.3101 50.7921 51.5712 50.7921 51.8421C50.7921 52.1131 50.6906 52.3742 50.5075 52.5739C50.3245 52.7736 50.0732 52.8975 49.8033 52.9211Z" fill="black"/>
<path d="M49.8032 49.8033H35.2725C34.9853 49.8033 34.7098 49.6892 34.5067 49.4861C34.3036 49.283 34.1895 49.0075 34.1895 48.7202C34.1895 48.433 34.3036 48.1575 34.5067 47.9544C34.7098 47.7513 34.9853 47.6372 35.2725 47.6372H49.8032C50.0905 47.6372 50.3659 47.7513 50.5691 47.9544C50.7722 48.1575 50.8863 48.433 50.8863 48.7202C50.8863 49.0075 50.7722 49.283 50.5691 49.4861C50.3659 49.6892 50.0905 49.8033 49.8032 49.8033Z" fill="black"/>
<path d="M49.8033 46.7262H35.2725C35.0026 46.7027 34.7513 46.5788 34.5683 46.3791C34.3852 46.1793 34.2837 45.9182 34.2837 45.6473C34.2837 45.3763 34.3852 45.1153 34.5683 44.9155C34.7513 44.7158 35.0026 44.5919 35.2725 44.5684H49.8033C50.0732 44.5919 50.3245 44.7158 50.5075 44.9155C50.6906 45.1153 50.7921 45.3763 50.7921 45.6473C50.7921 45.9182 50.6906 46.1793 50.5075 46.3791C50.3245 46.5788 50.0732 46.7027 49.8033 46.7262Z" fill="black"/>
<path d="M49.8033 43.5758H35.2725C35.0026 43.5523 34.7513 43.4284 34.5683 43.2287C34.3852 43.0289 34.2837 42.7678 34.2837 42.4969C34.2837 42.226 34.3852 41.9649 34.5683 41.7651C34.7513 41.5654 35.0026 41.4415 35.2725 41.418H49.8033C50.0732 41.4415 50.3245 41.5654 50.5075 41.7651C50.6906 41.9649 50.7921 42.226 50.7921 42.4969C50.7921 42.7678 50.6906 43.0289 50.5075 43.2287C50.3245 43.4284 50.0732 43.5523 49.8033 43.5758Z" fill="black"/>
<path d="M42.583 40.507H35.2725C35.0026 40.4834 34.7513 40.3596 34.5683 40.1598C34.3852 39.9601 34.2837 39.699 34.2837 39.428C34.2837 39.1571 34.3852 38.896 34.5683 38.6963C34.7513 38.4965 35.0026 38.3727 35.2725 38.3491H42.583C42.8668 38.3534 43.1377 38.4679 43.3384 38.6686C43.539 38.8693 43.6536 39.1402 43.6579 39.424C43.6389 39.7036 43.5198 39.967 43.3224 40.1659C43.125 40.3648 42.8625 40.4859 42.583 40.507Z" fill="black"/>
<path d="M42.583 37.3317H35.2725C35.0026 37.3081 34.7513 37.1843 34.5683 36.9845C34.3852 36.7848 34.2837 36.5237 34.2837 36.2528C34.2837 35.9818 34.3852 35.7207 34.5683 35.521C34.7513 35.3213 35.0026 35.1974 35.2725 35.1738H42.583C42.8675 35.1802 43.1385 35.2966 43.3389 35.4985C43.5394 35.7005 43.6537 35.9723 43.6579 36.2569C43.637 36.535 43.5171 36.7965 43.3199 36.9937C43.1227 37.1909 42.8612 37.3109 42.583 37.3317Z" fill="black"/>
<path d="M53.947 57.1053H31.1294C30.9798 57.1184 30.8291 57.1002 30.6869 57.0519C30.5447 57.0036 30.4141 56.9263 30.3034 56.8248C30.1927 56.7234 30.1043 56.6 30.0438 56.4625C29.9834 56.3251 29.9521 56.1766 29.9521 56.0264C29.9521 55.8762 29.9834 55.7277 30.0438 55.5903C30.1043 55.4528 30.1927 55.3294 30.3034 55.228C30.4141 55.1265 30.5447 55.0492 30.6869 55.0009C30.8291 54.9526 30.9798 54.9344 31.1294 54.9475H53.947C54.0966 54.9344 54.2473 54.9526 54.3894 55.0009C54.5316 55.0492 54.6622 55.1265 54.7729 55.228C54.8836 55.3294 54.972 55.4528 55.0325 55.5903C55.093 55.7277 55.1242 55.8762 55.1242 56.0264C55.1242 56.1766 55.093 56.3251 55.0325 56.4625C54.972 56.6 54.8836 56.7234 54.7729 56.8248C54.6622 56.9263 54.5316 57.0036 54.3894 57.0519C54.2473 57.1002 54.0966 57.1184 53.947 57.1053Z" fill="black"/>
<path d="M20.2496 23.9007C19.7397 23.9007 19.2413 23.7494 18.8175 23.4659C18.3936 23.1825 18.0634 22.7796 17.8687 22.3084C17.6739 21.8371 17.6234 21.3187 17.7234 20.8187C17.8235 20.3187 18.0697 19.8597 18.4308 19.4997C18.792 19.1398 19.2518 18.895 19.7521 18.7966C20.2524 18.6981 20.7707 18.7503 21.2413 18.9465C21.7119 19.1428 22.1137 19.4743 22.3958 19.899C22.6779 20.3238 22.8276 20.8227 22.826 21.3326C22.8238 22.0144 22.5514 22.6676 22.0685 23.149C21.5856 23.6304 20.9315 23.9007 20.2496 23.9007ZM20.2496 20.75C20.129 20.7656 20.0181 20.8245 19.9378 20.9159C19.8574 21.0073 19.8131 21.1248 19.8131 21.2464C19.8131 21.3681 19.8574 21.4856 19.9378 21.5769C20.0181 21.6683 20.129 21.7273 20.2496 21.7428C20.3156 21.7463 20.3815 21.736 20.4433 21.7126C20.505 21.6892 20.5612 21.6531 20.6083 21.6068C20.6554 21.5605 20.6923 21.5049 20.7167 21.4436C20.7411 21.3823 20.7525 21.3165 20.7502 21.2505C20.7424 21.1203 20.6871 20.9975 20.5949 20.9053C20.5027 20.813 20.3798 20.7578 20.2496 20.75Z" fill="black"/>
<path d="M58.5989 25.9764C57.8768 25.9764 57.1708 25.7622 56.5704 25.361C55.97 24.9598 55.502 24.3896 55.2257 23.7225C54.9493 23.0553 54.877 22.3212 55.0179 21.6129C55.1588 20.9047 55.5065 20.2541 56.0171 19.7435C56.5278 19.2328 57.1783 18.8851 57.8866 18.7442C58.5948 18.6033 59.329 18.6757 59.9961 18.952C60.6633 19.2284 61.2335 19.6963 61.6347 20.2968C62.0359 20.8972 62.25 21.6031 62.25 22.3252C62.2415 23.2909 61.8541 24.2146 61.1712 24.8975C60.4883 25.5804 59.5646 25.9678 58.5989 25.9764ZM58.5989 20.7499C58.2873 20.7499 57.9828 20.8423 57.7237 21.0154C57.4646 21.1885 57.2627 21.4345 57.1435 21.7224C57.0242 22.0102 56.9931 22.327 57.0538 22.6326C57.1146 22.9381 57.2647 23.2188 57.485 23.4391C57.7053 23.6595 57.986 23.8095 58.2916 23.8703C58.5971 23.9311 58.9139 23.8999 59.2017 23.7806C59.4896 23.6614 59.7356 23.4595 59.9087 23.2004C60.0818 22.9414 60.1742 22.6368 60.1742 22.3252C60.1811 22.1165 60.145 21.9086 60.0683 21.7144C59.9915 21.5201 59.8757 21.3437 59.728 21.1961C59.5804 21.0484 59.404 20.9326 59.2098 20.8559C59.0155 20.7791 58.8076 20.743 58.5989 20.7499Z" fill="black"/>
</g>
</svg>
