<svg width="83" height="83" viewBox="0 0 83 83" fill="none" xmlns="http://www.w3.org/2000/svg">
<g opacity="0.3">
<path d="M58.0982 61.2571H17.5991V61.1915L24.9014 40.5317H65.4004C65.1543 40.9994 58.1802 61.0028 58.0982 61.2571Z" fill="#828282"/>
<path d="M58.0984 21.8083C58.5093 21.8083 58.9109 21.9302 59.2525 22.1587C59.594 22.3871 59.8601 22.7118 60.0169 23.0916C60.1738 23.4714 60.2144 23.8892 60.1337 24.2921C60.0529 24.695 59.8544 25.0648 59.5633 25.3548C59.2721 25.6448 58.9015 25.8418 58.4982 25.921C58.095 26.0002 57.6774 25.9579 57.2983 25.7995C56.9191 25.6411 56.5955 25.3738 56.3684 25.0314C56.1413 24.6889 56.0209 24.2868 56.0225 23.8759C56.0203 23.603 56.0726 23.3325 56.1762 23.0801C56.2799 22.8277 56.4328 22.5986 56.6261 22.406C56.8194 22.2135 57.0492 22.0614 57.302 21.9588C57.5548 21.8561 57.8256 21.805 58.0984 21.8083Z" fill="white"/>
<path d="M37.8487 18.6738C38.3583 18.6738 38.8564 18.8249 39.2801 19.108C39.7037 19.3911 40.034 19.7935 40.229 20.2642C40.424 20.735 40.475 21.253 40.3756 21.7528C40.2762 22.2525 40.0308 22.7116 39.6705 23.0719C39.3102 23.4322 38.8511 23.6775 38.3514 23.777C37.8516 23.8764 37.3336 23.8253 36.8628 23.6303C36.3921 23.4354 35.9897 23.1051 35.7066 22.6815C35.4236 22.2578 35.2725 21.7597 35.2725 21.2502C35.2768 20.5682 35.5496 19.9154 36.0318 19.4332C36.514 18.9509 37.1668 18.6781 37.8487 18.6738Z" fill="white"/>
<path d="M56.0225 45.6514L52.9539 51.8706H29.0532L32.2039 45.6514H56.0225Z" fill="white"/>
<path d="M56.1045 37.3481H28.0522V40.4988H56.1045V37.3481Z" fill="white"/>
<path d="M60.1739 32.2039V40.5072H56.0223V37.3483H28.052V40.5072H24.9014L17.6812 61.1669V28.0522H28.052L32.2037 32.2039H60.1739Z" fill="white"/>
<path d="M64.3257 30.1279C64.5399 30.1279 64.7493 30.1914 64.9274 30.3104C65.1055 30.4294 65.2444 30.5986 65.3263 30.7965C65.4083 30.9944 65.4297 31.2122 65.3879 31.4223C65.3461 31.6323 65.243 31.8253 65.0916 31.9768C64.9401 32.1282 64.7471 32.2314 64.537 32.2732C64.3269 32.315 64.1092 32.2935 63.9113 32.2116C63.7134 32.1296 63.5442 31.9908 63.4252 31.8127C63.3062 31.6346 63.2427 31.4252 63.2427 31.2109C63.2469 30.925 63.3624 30.652 63.5646 30.4498C63.7668 30.2476 64.0398 30.1322 64.3257 30.1279Z" fill="black"/>
<path d="M64.3256 61.257C64.5955 61.2806 64.8468 61.4045 65.0299 61.6042C65.2129 61.8039 65.3145 62.065 65.3145 62.336C65.3145 62.6069 65.2129 62.868 65.0299 63.0677C64.8468 63.2675 64.5955 63.3913 64.3256 63.4149C64.176 63.428 64.0254 63.4098 63.8832 63.3615C63.741 63.3132 63.6104 63.2359 63.4997 63.1344C63.389 63.0329 63.3006 62.9096 63.2401 62.7721C63.1797 62.6347 63.1484 62.4861 63.1484 62.336C63.1484 62.1858 63.1797 62.0373 63.2401 61.8998C63.3006 61.7624 63.389 61.639 63.4997 61.5375C63.6104 61.4361 63.741 61.3588 63.8832 61.3105C64.0254 61.2622 64.176 61.244 64.3256 61.257Z" fill="black"/>
<path d="M50.8777 20.7497C51.0272 20.7366 51.178 20.7549 51.3201 20.8031C51.4623 20.8514 51.5929 20.9288 51.7036 21.0302C51.8143 21.1317 51.9027 21.2551 51.9632 21.3925C52.0237 21.53 52.0549 21.6785 52.0549 21.8286C52.0549 21.9788 52.0237 22.1273 51.9632 22.2648C51.9027 22.4023 51.8143 22.5256 51.7036 22.6271C51.5929 22.7285 51.4623 22.8059 51.3201 22.8541C51.178 22.9024 51.0272 22.9206 50.8777 22.9076C50.5891 22.8956 50.3155 22.7762 50.1106 22.5728C49.9056 22.3693 49.7841 22.0966 49.77 21.8081C49.7807 21.5223 49.9023 21.2519 50.1091 21.0542C50.316 20.8566 50.5916 20.7474 50.8777 20.7497Z" fill="black"/>
<path d="M42.583 26.9772C42.8529 27.0008 43.1041 27.1247 43.2872 27.3244C43.4703 27.5242 43.5718 27.7852 43.5718 28.0562C43.5718 28.3271 43.4703 28.5882 43.2872 28.788C43.1041 28.9877 42.8529 29.1116 42.583 29.1351C42.4334 29.1482 42.2827 29.13 42.1405 29.0817C41.9983 29.0334 41.8677 28.9561 41.757 28.8546C41.6463 28.7531 41.5579 28.6298 41.4975 28.4923C41.437 28.3549 41.4058 28.2063 41.4058 28.0562C41.4058 27.906 41.437 27.7575 41.4975 27.6201C41.5579 27.4826 41.6463 27.3592 41.757 27.2578C41.8677 27.1563 41.9983 27.079 42.1405 27.0307C42.2827 26.9824 42.4334 26.9642 42.583 26.9772Z" fill="black"/>
<path d="M37.3482 63.3244C37.4978 63.3114 37.6485 63.3296 37.7907 63.3778C37.9329 63.4261 38.0635 63.5035 38.1742 63.6049C38.2849 63.7064 38.3733 63.8297 38.4338 63.9672C38.4942 64.1046 38.5255 64.2532 38.5255 64.4034C38.5255 64.5535 38.4942 64.702 38.4338 64.8395C38.3733 64.9769 38.2849 65.1003 38.1742 65.2018C38.0635 65.3032 37.9329 65.3806 37.7907 65.4289C37.6485 65.4771 37.4978 65.4953 37.3482 65.4823C37.0783 65.4587 36.827 65.3349 36.644 65.1351C36.4609 64.9354 36.3594 64.6743 36.3594 64.4034C36.3594 64.1324 36.4609 63.8713 36.644 63.6716C36.827 63.4718 37.0783 63.348 37.3482 63.3244Z" fill="black"/>
<path d="M23.9005 20.7495C24.1151 20.7479 24.3253 20.8101 24.5045 20.9281C24.6836 21.0461 24.8238 21.2147 24.907 21.4124C24.9902 21.6102 25.0128 21.8282 24.9719 22.0388C24.9311 22.2494 24.8286 22.4432 24.6775 22.5955C24.5263 22.7477 24.3334 22.8517 24.1231 22.8942C23.9128 22.9366 23.6946 22.9157 23.4962 22.834C23.2978 22.7522 23.1282 22.6134 23.0088 22.4351C22.8894 22.2568 22.8257 22.0471 22.8257 21.8326C22.8319 21.5487 22.9469 21.278 23.1469 21.0765C23.3469 20.8749 23.6167 20.7579 23.9005 20.7495Z" fill="black"/>
<path d="M22.8257 56.0225C23.1102 56.0288 23.3811 56.1452 23.5815 56.3472C23.782 56.5491 23.8963 56.821 23.9005 57.1055C23.8974 57.242 23.8669 57.3765 23.8108 57.5009C23.7546 57.6254 23.674 57.7372 23.5737 57.8299C23.4734 57.9225 23.3555 57.994 23.227 58.0401C23.0985 58.0862 22.962 58.106 22.8257 58.0983C22.5411 58.0941 22.2694 57.9798 22.0674 57.7793C21.8654 57.5789 21.749 57.3079 21.7427 57.0235C21.78 56.7573 21.9083 56.5122 22.1056 56.3298C22.303 56.1473 22.5574 56.0388 22.8257 56.0225Z" fill="black"/>
<path d="M17.6812 62.1676C17.3959 62.1613 17.1241 62.0452 16.9223 61.8434C16.7205 61.6416 16.6044 61.3698 16.5981 61.0845V28.0519C16.6045 27.7674 16.7209 27.4965 16.9229 27.296C17.1248 27.0956 17.3967 26.9812 17.6812 26.9771H28.0521C28.1925 26.9768 28.3315 27.0059 28.46 27.0624C28.5886 27.1189 28.7039 27.2016 28.7987 27.3053L32.6221 31.1287H60.1739C60.4585 31.1329 60.7303 31.2472 60.9323 31.4477C61.1343 31.6481 61.2507 31.9191 61.257 32.2035V40.5068C61.2334 40.7767 61.1096 41.028 60.9098 41.2111C60.7101 41.3941 60.449 41.4957 60.1781 41.4957C59.9071 41.4957 59.646 41.3941 59.4463 41.2111C59.2466 41.028 59.1227 40.7767 59.0991 40.5068V33.1963H32.2037C32.0634 33.1961 31.9245 33.1668 31.796 33.1103C31.6676 33.0538 31.5521 32.9714 31.4571 32.8681L27.5598 29.0529H18.6739V61.1912C18.6655 61.4503 18.5578 61.6962 18.3729 61.878C18.1881 62.0598 17.9404 62.1635 17.6812 62.1676Z" fill="black"/>
<path d="M59.6159 58.0983H25.9762C25.7062 58.0747 25.455 57.9509 25.2719 57.7511C25.0888 57.5514 24.9873 57.2903 24.9873 57.0194C24.9873 56.7484 25.0888 56.4873 25.2719 56.2876C25.455 56.0879 25.7062 55.964 25.9762 55.9404H59.6159C59.9012 55.9467 60.173 56.0628 60.3748 56.2646C60.5766 56.4664 60.6927 56.7382 60.699 57.0235C60.6657 57.2983 60.5406 57.5539 60.3441 57.749C60.1476 57.944 59.891 58.0671 59.6159 58.0983Z" fill="black"/>
<path d="M58.0983 62.2497H17.6813C17.5211 62.2507 17.3629 62.2132 17.2201 62.1404C17.0773 62.0676 16.9541 61.9616 16.8609 61.8312C16.7727 61.6987 16.712 61.5498 16.6824 61.3933C16.6528 61.2369 16.6548 61.0761 16.6885 60.9205V60.8384L23.9088 40.1705C23.9835 39.9678 24.1207 39.7941 24.3007 39.6746C24.4806 39.5552 24.694 39.4961 24.9098 39.5059H28.0604C28.3457 39.5122 28.6175 39.6283 28.8193 39.8301C29.0211 40.0318 29.1372 40.3037 29.1434 40.5889C29.1184 40.8525 28.9909 41.0956 28.7883 41.2659C28.5857 41.4363 28.3243 41.5202 28.0604 41.4997H25.6482L19.0843 60.1739H57.3434L63.9073 41.4997H56.0225C55.7525 41.4761 55.5013 41.3522 55.3182 41.1525C55.1351 40.9528 55.0336 40.6917 55.0336 40.4207C55.0336 40.1498 55.1351 39.8887 55.3182 39.689C55.5013 39.4892 55.7525 39.3654 56.0225 39.3418H65.4006C65.5605 39.3427 65.718 39.3811 65.8604 39.4537C66.0029 39.5264 66.1264 39.6314 66.2211 39.7603C66.3938 40.0303 66.4528 40.3576 66.3852 40.671L59.0828 61.421C59.0366 61.6501 58.9141 61.8567 58.7352 62.0072C58.5564 62.1577 58.3319 62.2432 58.0983 62.2497Z" fill="black"/>
<path d="M56.0221 41.4999H28.0519C27.7674 41.4936 27.4965 41.3772 27.296 41.1752C27.0956 40.9732 26.9812 40.7014 26.9771 40.4169V37.3483C26.9813 37.0645 27.0959 36.7936 27.2966 36.5929C27.4972 36.3923 27.7682 36.2777 28.0519 36.2734H56.1042C56.3887 36.2776 56.6605 36.3919 56.8625 36.5924C57.0645 36.7928 57.1809 37.0638 57.1872 37.3483V40.5071C57.131 40.7786 56.9859 41.0235 56.7749 41.2033C56.5639 41.3831 56.2991 41.4874 56.0221 41.4999ZM29.0529 39.4241H55.0293V38.3493H29.0529V39.4241Z" fill="black"/>
<path d="M52.9536 52.9864H29.0529C28.8711 52.9817 28.6929 52.9339 28.5332 52.8468C28.3734 52.7598 28.2366 52.6361 28.134 52.4859C27.9854 52.1764 27.9562 51.8228 28.052 51.4931L31.2108 45.2656C31.2925 45.0928 31.4213 44.9464 31.5824 44.8434C31.7435 44.7404 31.9303 44.6848 32.1215 44.6831H56.0222C56.2036 44.6897 56.3811 44.7384 56.5405 44.8252C56.7 44.9121 56.8371 45.0347 56.9411 45.1836C57.0895 45.4961 57.1187 45.8521 57.0232 46.1846L53.8725 52.371C53.7867 52.5451 53.6566 52.6936 53.4953 52.8016C53.334 52.9096 53.1472 52.9733 52.9536 52.9864ZM30.7103 50.9106H52.289L54.3648 46.7589H32.7861L30.7103 50.9106Z" fill="black"/>
<path d="M58.098 26.9772C57.6835 26.9772 57.2731 26.8954 56.8903 26.7366C56.5075 26.5777 56.1598 26.3449 55.8672 26.0515C55.5745 25.758 55.3426 25.4098 55.1847 25.0266C55.0269 24.6434 54.9462 24.2328 54.9473 23.8183C54.9494 23.409 55.0329 23.0042 55.193 22.6275C55.3531 22.2507 55.5865 21.9096 55.8798 21.624C56.173 21.3384 56.5202 21.114 56.901 20.9639C57.2818 20.8138 57.6887 20.741 58.098 20.7497C58.5124 20.7486 58.9229 20.8293 59.3061 20.9872C59.6893 21.145 60.0377 21.377 60.3311 21.6696C60.6245 21.9623 60.8573 22.31 61.0162 22.6928C61.175 23.0756 61.2568 23.4859 61.2568 23.9004C61.2558 24.3111 61.1728 24.7175 61.0127 25.0957C60.8526 25.474 60.6186 25.8164 60.3243 26.103C60.0301 26.3896 59.6816 26.6145 59.2993 26.7646C58.917 26.9148 58.5086 26.987 58.098 26.9772ZM58.098 22.8255C57.8142 22.8298 57.5432 22.9444 57.3426 23.145C57.1419 23.3457 57.0274 23.6166 57.0231 23.9004C57.0262 24.0372 57.0567 24.1721 57.1128 24.2969C57.1688 24.4218 57.2493 24.5342 57.3495 24.6275C57.4496 24.7208 57.5675 24.7931 57.696 24.8401C57.8246 24.8872 57.9612 24.908 58.098 24.9014C58.3832 24.8951 58.655 24.779 58.8568 24.5772C59.0586 24.3754 59.1747 24.1036 59.1809 23.8183C59.1564 23.5477 59.0318 23.296 58.8315 23.1124C58.6312 22.9288 58.3697 22.8265 58.098 22.8255Z" fill="black"/>
<path d="M37.8484 24.9014C37.1262 24.9014 36.4204 24.6873 35.8199 24.2861C35.2195 23.8849 34.7515 23.3147 34.4752 22.6475C34.1989 21.9803 34.1265 21.2462 34.2674 20.538C34.4083 19.8297 34.756 19.1791 35.2666 18.6685C35.7773 18.1579 36.4279 17.8102 37.1361 17.6693C37.8444 17.5284 38.5784 17.6007 39.2456 17.8771C39.9128 18.1534 40.483 18.6214 40.8842 19.2218C41.2854 19.8222 41.4995 20.5281 41.4995 21.2503C41.491 22.216 41.1036 23.1397 40.4207 23.8225C39.7378 24.5054 38.8141 24.8928 37.8484 24.9014ZM37.8484 19.757C37.5368 19.757 37.2323 19.8494 36.9732 20.0225C36.7141 20.1956 36.5122 20.4416 36.393 20.7295C36.2738 21.0173 36.2426 21.3341 36.3034 21.6397C36.3641 21.9452 36.5142 22.2259 36.7345 22.4462C36.9548 22.6666 37.2355 22.8166 37.541 22.8774C37.8466 22.9382 38.1634 22.907 38.4513 22.7877C38.7391 22.6685 38.9851 22.4666 39.1582 22.2075C39.3313 21.9485 39.4237 21.6439 39.4237 21.3323C39.4306 21.1236 39.3945 20.9157 39.3178 20.7214C39.241 20.5272 39.1252 20.3508 38.9775 20.2032C38.8299 20.0555 38.6535 19.9397 38.4593 19.863C38.265 19.7862 38.0571 19.7501 37.8484 19.757Z" fill="black"/>
</g>
</svg>
