<svg width="83" height="83" viewBox="0 0 83 83" fill="none" xmlns="http://www.w3.org/2000/svg">
<g opacity="0.3">
<path d="M61.1751 38.5956L60.174 27.4699C48.8842 27.3058 41.4999 18.1738 41.4999 18.1738C41.4999 18.1738 34.1155 27.3057 22.8257 27.5601L21.8739 38.6612C21.5577 42.0661 22.1336 45.4946 23.5449 48.6093C24.9563 51.724 27.1544 54.4176 29.9229 56.4247L41.4999 64.9167L53.1179 56.4493C55.8934 54.4272 58.0954 51.7182 59.5079 48.5882C60.9205 45.4581 61.495 42.0146 61.1751 38.5956Z" fill="white"/>
<path d="M61.7495 19.7901C62.061 19.7901 62.3656 19.8825 62.6247 20.0556C62.8838 20.2287 63.0857 20.4747 63.2049 20.7626C63.3241 21.0505 63.3553 21.3672 63.2945 21.6728C63.2338 21.9784 63.0837 22.2591 62.8634 22.4794C62.6431 22.6997 62.3624 22.8497 62.0568 22.9105C61.7512 22.9713 61.4345 22.9401 61.1466 22.8209C60.8588 22.7016 60.6128 22.4997 60.4397 22.2407C60.2666 21.9816 60.1742 21.677 60.1742 21.3654C60.1673 21.1567 60.2034 20.9488 60.2801 20.7546C60.3569 20.5604 60.4726 20.3839 60.6203 20.2363C60.768 20.0886 60.9444 19.9728 61.1386 19.8961C61.3328 19.8193 61.5407 19.7833 61.7495 19.7901Z" fill="white"/>
<path d="M61.7492 56.0225C61.9568 56.0215 62.1625 56.0614 62.3546 56.1401C62.5467 56.2188 62.7213 56.3347 62.8685 56.4811C63.0156 56.6274 63.1324 56.8015 63.2121 56.9932C63.2917 57.1848 63.3328 57.3903 63.3328 57.5979C63.3397 57.8073 63.3034 58.016 63.2261 58.2108C63.1489 58.4056 63.0324 58.5823 62.8838 58.7301C62.7352 58.8779 62.5578 58.9935 62.3626 59.0698C62.1674 59.146 61.9586 59.1812 61.7492 59.1732C61.5417 59.1732 61.3361 59.1322 61.1445 59.0525C60.9528 58.9728 60.7788 58.8561 60.6324 58.7089C60.486 58.5618 60.3701 58.3871 60.2914 58.195C60.2128 58.003 60.1728 57.7973 60.1739 57.5897C60.1682 57.3816 60.2051 57.1746 60.2824 56.9814C60.3596 56.7881 60.4756 56.6127 60.6232 56.4659C60.7707 56.3192 60.9467 56.2041 61.1404 56.1279C61.334 56.0516 61.5412 56.0157 61.7492 56.0225Z" fill="white"/>
<path d="M22.8255 58.0983C23.236 58.0983 23.6374 58.22 23.9788 58.4481C24.3201 58.6762 24.5862 59.0004 24.7433 59.3797C24.9004 59.7591 24.9415 60.1764 24.8614 60.5791C24.7813 60.9817 24.5836 61.3516 24.2933 61.6419C24.003 61.9322 23.6331 62.13 23.2304 62.2101C22.8278 62.2902 22.4104 62.2491 22.0311 62.0919C21.6518 61.9348 21.3276 61.6688 21.0995 61.3274C20.8714 60.986 20.7497 60.5846 20.7497 60.1741C20.7464 59.9006 20.7978 59.6292 20.9009 59.3758C21.0041 59.1225 21.1569 58.8924 21.3503 58.6989C21.5437 58.5055 21.7739 58.3527 22.0272 58.2496C22.2805 58.1464 22.5519 58.095 22.8255 58.0983Z" fill="white"/>
<path d="M24.9017 18.6742C25.3122 18.6742 25.7136 18.796 26.0549 19.0241C26.3963 19.2522 26.6624 19.5763 26.8195 19.9556C26.9766 20.3349 27.0177 20.7523 26.9376 21.155C26.8575 21.5577 26.6598 21.9276 26.3695 22.2179C26.0792 22.5082 25.7093 22.7059 25.3067 22.7859C24.904 22.866 24.4866 22.8249 24.1073 22.6678C23.728 22.5107 23.4038 22.2447 23.1757 21.9033C22.9476 21.562 22.8258 21.1606 22.8258 20.75C22.8225 20.4765 22.874 20.2051 22.9771 19.9518C23.0803 19.6984 23.2331 19.4683 23.4265 19.2749C23.6199 19.0814 23.85 18.9287 24.1034 18.8255C24.3567 18.7224 24.6282 18.6709 24.9017 18.6742Z" fill="white"/>
<path d="M41.4997 58.5989L32.9503 52.4535C30.9027 50.9747 29.2804 48.9831 28.2463 46.6787C27.2122 44.3744 26.8028 41.8385 27.0592 39.3258L27.8058 31.1948C36.0107 31.0225 41.4997 24.3027 41.4997 24.3027C41.4997 24.3027 46.9805 31.0225 55.1935 31.1948L55.9402 39.3258C56.18 41.8368 55.763 44.3671 54.7303 46.6685C53.6975 48.9699 52.0845 50.9634 50.0491 52.4535C49.721 52.7078 51.5424 51.3786 41.4997 58.5989Z" fill="#797979"/>
<path d="M55.0293 19.7901C55.2992 19.8137 55.5505 19.9375 55.7336 20.1373C55.9166 20.337 56.0182 20.5981 56.0182 20.8691C56.0182 21.14 55.9166 21.4011 55.7336 21.6008C55.5505 21.8006 55.2992 21.9244 55.0293 21.948C54.7441 21.9417 54.4723 21.8256 54.2705 21.6239C54.0687 21.4221 53.9526 21.1502 53.9463 20.865C53.9417 20.7219 53.9666 20.5794 54.0195 20.4463C54.0724 20.3133 54.1522 20.1926 54.2538 20.0917C54.3554 19.9909 54.4767 19.912 54.6102 19.8601C54.7436 19.8083 54.8863 19.7844 55.0293 19.7901Z" fill="black"/>
<path d="M55.0298 60.1743C55.3143 60.1807 55.5852 60.2971 55.7857 60.4991C55.9861 60.701 56.1004 60.9728 56.1046 61.2574C56.082 61.5273 55.9592 61.7789 55.7602 61.9627C55.5612 62.1465 55.3006 62.2491 55.0298 62.2502C54.7445 62.2439 54.4727 62.1278 54.2709 61.926C54.0692 61.7242 53.953 61.4524 53.9468 61.1671C53.9713 60.8965 54.0959 60.6448 54.2962 60.4612C54.4965 60.2776 54.758 60.1753 55.0298 60.1743Z" fill="black"/>
<path d="M32.2038 17.6814C32.4187 17.6798 32.6292 17.7422 32.8085 17.8606C32.9879 17.979 33.128 18.148 33.211 18.3462C33.2939 18.5445 33.3161 18.7629 33.2746 18.9738C33.233 19.1846 33.1297 19.3783 32.9777 19.5303C32.8258 19.6822 32.6321 19.7856 32.4212 19.8271C32.2104 19.8686 31.9919 19.8465 31.7937 19.7635C31.5955 19.6805 31.4264 19.5404 31.308 19.3611C31.1897 19.1817 31.1273 18.9712 31.129 18.7563C31.1244 18.6139 31.1491 18.4721 31.2015 18.3396C31.2539 18.2072 31.3328 18.0868 31.4336 17.9861C31.5343 17.8854 31.6547 17.8064 31.7871 17.754C31.9196 17.7016 32.0614 17.6769 32.2038 17.6814Z" fill="black"/>
<path d="M29.0532 61.2573C29.3231 61.2808 29.5744 61.4047 29.7574 61.6045C29.9405 61.8042 30.042 62.0653 30.042 62.3362C30.042 62.6071 29.9405 62.8683 29.7574 63.068C29.5744 63.2677 29.3231 63.3916 29.0532 63.4151C28.9036 63.4282 28.7529 63.41 28.6107 63.3617C28.4685 63.3134 28.3379 63.2361 28.2272 63.1347C28.1165 63.0332 28.0281 62.9098 27.9677 62.7723C27.9072 62.6349 27.876 62.4864 27.876 62.3362C27.876 62.186 27.9072 62.0375 27.9677 61.9001C28.0281 61.7626 28.1165 61.6393 28.2272 61.5378C28.3379 61.4364 28.4685 61.359 28.6107 61.3107C28.7529 61.2624 28.9036 61.2442 29.0532 61.2573Z" fill="black"/>
<path d="M20.7496 50.8782C20.9642 50.8766 21.1743 50.9387 21.3535 51.0567C21.5327 51.1747 21.6728 51.3433 21.7561 51.541C21.8393 51.7388 21.8619 51.9568 21.8211 52.1675C21.7802 52.3781 21.6777 52.5718 21.5265 52.7241C21.3754 52.8764 21.1825 52.9803 20.9722 53.0228C20.7619 53.0653 20.5437 53.0443 20.3453 52.9626C20.1469 52.8808 19.9773 52.7421 19.8579 52.5638C19.7385 52.3855 19.6748 52.1758 19.6748 51.9612C19.681 51.6774 19.796 51.4067 19.996 51.2051C20.196 51.0036 20.4658 50.8866 20.7496 50.8782Z" fill="black"/>
<path d="M18.674 26.9776C18.8889 26.9759 19.0994 27.0383 19.2788 27.1566C19.4581 27.275 19.5982 27.4441 19.6812 27.6424C19.7642 27.8406 19.7863 28.059 19.7448 28.2698C19.7033 28.4807 19.5999 28.6745 19.448 28.8264C19.296 28.9784 19.1023 29.0816 18.8915 29.1232C18.6806 29.1647 18.4622 29.1426 18.2639 29.0596C18.0657 28.9766 17.8967 28.8365 17.7783 28.6571C17.6599 28.4778 17.5975 28.2673 17.5992 28.0524C17.6054 27.7693 17.7207 27.4995 17.9209 27.2993C18.1211 27.0991 18.3909 26.9838 18.674 26.9776Z" fill="black"/>
<path d="M41.5001 65.9012C41.2952 65.8962 41.0949 65.8397 40.9176 65.7371L29.2995 57.2697C26.4097 55.1386 24.0996 52.3179 22.5797 49.0648C21.0943 45.761 20.4921 42.1281 20.8321 38.5217L21.8741 27.3877C21.9081 27.1442 22.0258 26.9202 22.2069 26.754C22.3881 26.5878 22.6214 26.4899 22.8669 26.477C27.5462 26.3083 32.0627 24.7169 35.8141 21.9151C37.6343 20.6412 39.305 19.1659 40.7945 17.5173C40.8754 17.3936 40.9813 17.2883 41.1053 17.2081C41.2294 17.1278 41.3689 17.0744 41.5148 17.0513C41.6608 17.0282 41.81 17.036 41.9528 17.074C42.0956 17.1121 42.2288 17.1796 42.3439 17.2723C42.459 17.365 42.5534 17.4807 42.6211 17.612C42.6887 17.7434 42.7282 17.8875 42.7368 18.035C42.7454 18.1825 42.723 18.3302 42.6711 18.4685C42.6192 18.6069 42.5389 18.7329 42.4354 18.8383C40.86 20.6455 39.0784 22.2619 37.1269 23.6545C33.2687 26.4891 28.6975 28.1937 23.9253 28.5774L23.0146 38.7842C22.732 42.0248 23.2859 45.2836 24.6233 48.2487C25.9608 51.2139 28.0371 53.786 30.6533 55.719L42.2713 64.1863C42.3852 64.2586 42.4827 64.3538 42.5577 64.466C42.6326 64.5781 42.6833 64.7047 42.7064 64.8376C42.7296 64.9704 42.7248 65.1066 42.6923 65.2375C42.6597 65.3684 42.6002 65.4911 42.5175 65.5976C42.2062 65.7757 41.858 65.8796 41.5001 65.9012Z" fill="black"/>
<path d="M41.4999 65.9012C41.1994 65.8776 40.9132 65.7631 40.6794 65.573C40.5153 65.3312 40.4294 65.0448 40.4333 64.7525V37.4305C40.4325 37.1591 40.5344 36.8974 40.7186 36.698C40.9027 36.4987 41.1554 36.3764 41.4261 36.3556C41.6829 36.3662 41.9259 36.4751 42.1047 36.66C42.2834 36.8448 42.3841 37.0913 42.386 37.3484V62.8326L52.3467 55.6123C54.9837 53.6934 57.0766 51.122 58.4201 48.1502C59.7635 45.1785 60.3114 41.9085 60.01 38.6612L59.0992 28.4544C54.3271 28.0707 49.7559 26.3661 45.8977 23.5315C43.9053 22.1904 42.1172 20.5682 40.5891 18.7153C40.5014 18.6067 40.436 18.4818 40.3967 18.3477C40.3574 18.2137 40.3451 18.0733 40.3603 17.9345C40.3756 17.7956 40.4182 17.6613 40.4856 17.539C40.553 17.4167 40.644 17.309 40.7533 17.222C40.9743 17.0489 41.2543 16.9692 41.5333 16.9998C41.8124 17.0305 42.0684 17.1691 42.2465 17.3861C43.7087 19.0644 45.3828 20.5455 47.2269 21.7921C51.0097 24.5345 55.5076 26.1193 60.1741 26.354C60.4252 26.351 60.668 26.4434 60.8538 26.6124C61.0395 26.7814 61.1543 27.0144 61.1751 27.2647L62.2499 38.4725C62.5902 42.0781 61.9909 45.7104 60.5105 49.0157C59.0292 52.2952 56.7084 55.1255 53.7825 57.2205L42.1645 65.7371C41.9542 65.83 41.7293 65.8856 41.4999 65.9012Z" fill="black"/>
<path d="M41.4996 59.6738C41.2947 59.6688 41.0944 59.6124 40.9171 59.5097L32.3676 53.2905C30.1848 51.7047 28.4547 49.5754 27.3493 47.1142C26.2439 44.6529 25.8016 41.9453 26.0663 39.2602L26.813 31.1292C26.8452 30.8843 26.9621 30.6583 27.1434 30.4904C27.3247 30.3226 27.559 30.2235 27.8057 30.2103C35.4444 30.0462 40.6709 23.8187 40.753 23.7367C40.9398 23.5331 41.1941 23.4042 41.4688 23.374C41.7435 23.3438 42.0197 23.4144 42.2463 23.5726C42.453 23.7574 42.5841 24.0121 42.6144 24.2878C42.6447 24.5634 42.572 24.8405 42.4104 25.0659C42.1642 25.312 36.9377 31.6297 28.8806 32.2861L28.2242 39.5064C28.0103 41.8272 28.4021 44.1637 29.3613 46.2878C30.3205 48.4119 31.8143 50.2508 33.6968 51.6249L42.2463 57.7703C42.3602 57.8425 42.4577 57.9378 42.5326 58.0499C42.6075 58.162 42.6582 58.2886 42.6814 58.4215C42.7046 58.5544 42.6997 58.6906 42.6672 58.8215C42.6346 58.9524 42.5751 59.075 42.4924 59.1815C42.3684 59.326 42.2166 59.444 42.0461 59.5286C41.8755 59.6131 41.6896 59.6625 41.4996 59.6738Z" fill="black"/>
<path d="M41.5 59.6738C41.3407 59.6738 41.1837 59.6367 41.0413 59.5655C40.8989 59.4943 40.775 59.3909 40.6795 59.2635C40.5968 59.157 40.5372 59.0343 40.5047 58.9035C40.4722 58.7726 40.4673 58.6363 40.4905 58.5035C40.5137 58.3706 40.5643 58.2441 40.6393 58.1319C40.7142 58.0198 40.8117 57.9246 40.9256 57.8523L49.393 51.7069C51.2824 50.3388 52.782 48.5012 53.7433 46.3757C54.7046 44.2503 55.0942 41.9107 54.8738 39.5884L54.2092 32.3681C46.07 31.7856 40.8436 25.4843 40.6795 25.1479C40.5917 25.0393 40.5263 24.9143 40.4871 24.7803C40.4478 24.6463 40.4354 24.5059 40.4507 24.3671C40.4659 24.2283 40.5085 24.0938 40.5759 23.9716C40.6433 23.8493 40.7343 23.7416 40.8436 23.6546C41.0646 23.4815 41.3446 23.4018 41.6236 23.4325C41.9027 23.4631 42.1587 23.6017 42.3369 23.8187C42.4189 23.9007 47.5633 30.1282 55.284 30.2923C55.5359 30.2914 55.7788 30.3856 55.9644 30.5559C56.1499 30.7262 56.2644 30.9602 56.2851 31.2112L57.0317 39.3422C57.275 42.026 56.8222 44.7271 55.717 47.1848C54.6117 49.6425 52.8914 51.7737 50.7222 53.3725L42.1728 59.5917C41.9184 59.5917 41.7461 59.6738 41.5 59.6738Z" fill="black"/>
<path d="M24.9016 23.8926C24.2785 23.8926 23.6694 23.7078 23.1513 23.3616C22.6331 23.0154 22.2293 22.5234 21.9908 21.9477C21.7523 21.372 21.69 20.7384 21.8115 20.1273C21.9331 19.5161 22.2332 18.9547 22.6738 18.5141C23.1144 18.0735 23.6758 17.7734 24.287 17.6519C24.8982 17.5303 25.5316 17.5927 26.1073 17.8311C26.683 18.0696 27.1751 18.4734 27.5213 18.9915C27.8675 19.5097 28.0523 20.1188 28.0523 20.7419C28.0523 21.1557 27.9708 21.5654 27.8124 21.9477C27.6541 22.3299 27.422 22.6772 27.1295 22.9698C26.8369 23.2624 26.4896 23.4944 26.1073 23.6528C25.7251 23.8111 25.3154 23.8926 24.9016 23.8926ZM24.9016 19.7902C24.6868 19.7886 24.4762 19.8509 24.2969 19.9693C24.1175 20.0877 23.9774 20.2568 23.8944 20.455C23.8114 20.6532 23.7893 20.8716 23.8308 21.0825C23.8724 21.2933 23.9757 21.4871 24.1276 21.639C24.2796 21.791 24.4734 21.8943 24.6842 21.9358C24.8951 21.9774 25.1135 21.9552 25.3117 21.8722C25.5099 21.7893 25.679 21.6492 25.7974 21.4698C25.9158 21.2905 25.9781 21.0799 25.9765 20.865C25.981 20.7226 25.9564 20.5808 25.904 20.4484C25.8516 20.3159 25.7725 20.1956 25.6718 20.0949C25.5711 19.9941 25.4508 19.9151 25.3183 19.8627C25.1858 19.8103 25.044 19.7856 24.9016 19.7902Z" fill="black"/>
<path d="M22.8257 63.3331C22.2006 63.3347 21.5891 63.1508 21.0685 62.8047C20.548 62.4586 20.1419 61.9658 19.9015 61.3888C19.6612 60.8117 19.5974 60.1763 19.7184 59.563C19.8393 58.9497 20.1395 58.3861 20.581 57.9435C21.0224 57.5009 21.5853 57.1992 22.1983 57.0767C22.8112 56.9541 23.4468 57.0162 24.0245 57.2551C24.6022 57.4939 25.096 57.8988 25.4435 58.4184C25.7909 58.9381 25.9764 59.5491 25.9764 60.1742C25.9775 60.5887 25.8968 60.9993 25.7389 61.3825C25.5811 61.7657 25.3492 62.114 25.0565 62.4074C24.7639 62.7008 24.4162 62.9336 24.0334 63.0925C23.6506 63.2513 23.2402 63.3331 22.8257 63.3331ZM22.8257 59.1815C22.6108 59.1798 22.4004 59.2422 22.221 59.3605C22.0416 59.4789 21.9016 59.648 21.8186 59.8463C21.7356 60.0445 21.7134 60.2629 21.755 60.4737C21.7965 60.6846 21.8998 60.8784 22.0518 61.0303C22.2037 61.1823 22.3975 61.2855 22.6083 61.3271C22.8192 61.3686 23.0376 61.3465 23.2358 61.2635C23.4341 61.1805 23.6031 61.0404 23.7215 60.861C23.8399 60.6817 23.9022 60.4712 23.9006 60.2563C23.8964 59.9718 23.7821 59.6999 23.5816 59.498C23.3812 59.296 23.1102 59.1796 22.8257 59.1733V59.1815Z" fill="black"/>
<path d="M61.7492 23.8924C61.2393 23.8924 60.7409 23.7411 60.317 23.4576C59.8932 23.1741 59.5629 22.7713 59.3682 22.3001C59.1734 21.8289 59.1229 21.3104 59.223 20.8104C59.323 20.3104 59.5692 19.8514 59.9304 19.4914C60.2915 19.1315 60.7513 18.8867 61.2516 18.7882C61.7519 18.6898 62.2702 18.742 62.7408 18.9382C63.2114 19.1345 63.6132 19.466 63.8953 19.8907C64.1774 20.3155 64.3271 20.8144 64.3255 21.3243C64.3233 22.0061 64.0509 22.6593 63.568 23.1407C63.0851 23.6221 62.431 23.8924 61.7492 23.8924ZM61.7492 20.7417C61.6285 20.7572 61.5176 20.8163 61.4373 20.9076C61.3569 20.999 61.3126 21.1165 61.3126 21.2381C61.3126 21.3598 61.3569 21.4773 61.4373 21.5686C61.5176 21.66 61.6285 21.719 61.7492 21.7345C61.8151 21.738 61.8811 21.7277 61.9428 21.7043C62.0045 21.6809 62.0607 21.6448 62.1078 21.5985C62.1549 21.5522 62.1918 21.4966 62.2162 21.4353C62.2407 21.3739 62.2521 21.3082 62.2497 21.2422C62.24 21.1135 62.1839 20.9926 62.0918 20.9021C61.9998 20.8116 61.878 20.7575 61.7492 20.7499V20.7417Z" fill="black"/>
<path d="M61.7491 60.1741C61.2396 60.1741 60.7415 60.023 60.3179 59.7399C59.8942 59.4568 59.564 59.0545 59.369 58.5837C59.174 58.113 59.1229 57.595 59.2224 57.0952C59.3218 56.5954 59.5671 56.1364 59.9275 55.7761C60.2878 55.4158 60.7468 55.1704 61.2466 55.071C61.7463 54.9716 62.2643 55.0226 62.7351 55.2176C63.2059 55.4126 63.6082 55.7428 63.8913 56.1665C64.1744 56.5902 64.3255 57.0883 64.3255 57.5978C64.3233 58.2804 64.0512 58.9345 63.5685 59.4172C63.0858 59.8999 62.4318 60.1719 61.7491 60.1741ZM61.7491 57.1055C61.6217 57.115 61.502 57.1699 61.4116 57.2603C61.3213 57.3506 61.2664 57.4704 61.2569 57.5978C61.2553 57.6975 61.2834 57.7954 61.3378 57.8789C61.3922 57.9625 61.4702 58.0279 61.562 58.0668C61.6538 58.1057 61.7551 58.1163 61.853 58.0972C61.9508 58.0782 62.0407 58.0303 62.1112 57.9598C62.1817 57.8894 62.2295 57.7994 62.2486 57.7016C62.2676 57.6038 62.257 57.5025 62.2181 57.4107C62.1792 57.3189 62.1138 57.2408 62.0303 57.1864C61.9467 57.1321 61.8488 57.1039 61.7491 57.1055Z" fill="black"/>
<path d="M51.8789 38.4315H31.1289C30.9793 38.4445 30.8286 38.4264 30.6864 38.3781C30.5442 38.3298 30.4136 38.2524 30.3029 38.151C30.1922 38.0495 30.1038 37.9262 30.0434 37.7887C29.9829 37.6513 29.9517 37.5027 29.9517 37.3526C29.9517 37.2024 29.9829 37.0538 30.0434 36.9164C30.1038 36.7789 30.1922 36.6556 30.3029 36.5541C30.4136 36.4527 30.5442 36.3753 30.6864 36.327C30.8286 36.2787 30.9793 36.2606 31.1289 36.2736H51.8789C52.1488 36.2972 52.4001 36.421 52.5831 36.6208C52.7662 36.8205 52.8677 37.0816 52.8677 37.3526C52.8677 37.6235 52.7662 37.8846 52.5831 38.0843C52.4001 38.2841 52.1488 38.4079 51.8789 38.4315Z" fill="black"/>
<path d="M51.8789 41.5001H31.1289C30.9793 41.5132 30.8286 41.495 30.6864 41.4467C30.5442 41.3984 30.4136 41.321 30.3029 41.2196C30.1922 41.1181 30.1038 40.9948 30.0434 40.8573C29.9829 40.7199 29.9517 40.5713 29.9517 40.4212C29.9517 40.271 29.9829 40.1225 30.0434 39.985C30.1038 39.8476 30.1922 39.7242 30.3029 39.6227C30.4136 39.5213 30.5442 39.444 30.6864 39.3957C30.8286 39.3474 30.9793 39.3292 31.1289 39.3422H51.8789C52.1488 39.3658 52.4001 39.4896 52.5831 39.6894C52.7662 39.8891 52.8677 40.1502 52.8677 40.4212C52.8677 40.6921 52.7662 40.9532 52.5831 41.1529C52.4001 41.3527 52.1488 41.4765 51.8789 41.5001Z" fill="black"/>
<path d="M47.7275 35.2726H35.2726C35.0027 35.2491 34.7514 35.1252 34.5683 34.9255C34.3853 34.7257 34.2837 34.4646 34.2837 34.1937C34.2837 33.9227 34.3853 33.6617 34.5683 33.4619C34.7514 33.2622 35.0027 33.1383 35.2726 33.1147H47.7275C47.9974 33.1383 48.2487 33.2622 48.4318 33.4619C48.6148 33.6617 48.7163 33.9227 48.7163 34.1937C48.7163 34.4646 48.6148 34.7257 48.4318 34.9255C48.2487 35.1252 47.9974 35.2491 47.7275 35.2726Z" fill="black"/>
</g>
</svg>
