<svg width="84" height="84" viewBox="0 0 84 84" fill="none" xmlns="http://www.w3.org/2000/svg">
<g opacity="0.3">
<path d="M21 59.8942C21.4155 59.8942 21.8217 60.0174 22.1672 60.2483C22.5127 60.4791 22.7819 60.8072 22.9409 61.1911C23.1 61.575 23.1416 61.9974 23.0605 62.4049C22.9794 62.8124 22.7793 63.1867 22.4855 63.4806C22.1917 63.7744 21.8174 63.9744 21.4099 64.0555C21.0024 64.1366 20.5799 64.095 20.1961 63.936C19.8122 63.7769 19.4841 63.5077 19.2532 63.1622C19.0224 62.8167 18.8992 62.4105 18.8992 61.995C18.8959 61.7182 18.9479 61.4435 19.0523 61.1871C19.1567 60.9307 19.3113 60.6978 19.5071 60.5021C19.7028 60.3063 19.9357 60.1517 20.1921 60.0473C20.4485 59.9429 20.7232 59.8909 21 59.8942Z" fill="white"/>
<path d="M62.4934 18.8991C63.0095 18.8975 63.5144 19.049 63.9443 19.3345C64.3741 19.62 64.7096 20.0267 64.9082 20.5029C65.1068 20.9792 65.1597 21.5037 65.06 22.0101C64.9603 22.5164 64.7127 22.9817 64.3484 23.3472C63.984 23.7127 63.5195 23.9619 63.0135 24.0631C62.5075 24.1644 61.9828 24.1133 61.5059 23.9162C61.029 23.7191 60.6213 23.3849 60.3344 22.9559C60.0475 22.527 59.8944 22.0226 59.8944 21.5065C59.8888 21.1633 59.9521 20.8224 60.0807 20.5041C60.2092 20.1858 60.4003 19.8965 60.6427 19.6533C60.885 19.4102 61.1737 19.2182 61.4916 19.0886C61.8095 18.9591 62.1502 18.8947 62.4934 18.8991Z" fill="white"/>
<path d="M42 40.7378C42.2496 40.7378 42.4936 40.8118 42.7012 40.9505C42.9087 41.0892 43.0705 41.2863 43.166 41.5169C43.2616 41.7476 43.2866 42.0013 43.2379 42.2462C43.1892 42.491 43.0689 42.7159 42.8924 42.8924C42.7159 43.0689 42.491 43.1891 42.2462 43.2378C42.0014 43.2865 41.7476 43.2616 41.5169 43.166C41.2863 43.0705 41.0892 42.9087 40.9505 42.7011C40.8118 42.4936 40.7378 42.2496 40.7378 41.9999C40.7462 41.6678 40.8819 41.3517 41.1168 41.1168C41.3517 40.8819 41.6679 40.7462 42 40.7378Z" fill="white"/>
<path d="M64.7604 39.816V44.1838L58.2088 45.612C57.8022 47.4913 57.0626 49.2827 56.0249 50.9014L59.637 56.5313L56.5314 59.6369L50.9016 56.0248C49.2828 57.0624 47.4914 57.802 45.6121 58.2087L44.1839 64.7603H39.8161L38.3879 58.2087C36.5086 57.802 34.7172 57.0624 33.0985 56.0248L27.4686 59.6369L24.363 56.5313L27.9751 50.9014C26.9375 49.2827 26.1978 47.4913 25.7912 45.612L19.2396 44.1838V39.816L25.7912 38.3878C26.1978 36.5085 26.9375 34.7171 27.9751 33.0983L24.363 27.4684L27.4686 24.3629L33.0985 27.975C34.7172 26.9373 36.5086 26.1977 38.3879 25.7911L39.8161 19.2395H44.1839L45.6121 25.7911C47.4914 26.1977 49.2828 26.9373 50.9016 27.975L56.5314 24.3629L59.637 27.4684L56.0498 33.0983C57.0875 34.7171 57.8271 36.5085 58.2337 38.3878L64.7604 39.816ZM51.6572 41.9999C51.6654 40.0946 51.1074 38.2298 50.054 36.6422C49.0005 35.0545 47.4992 33.8156 45.7405 33.0827C43.9818 32.3498 42.045 32.1558 40.1758 32.5255C38.3067 32.8952 36.5896 33.8119 35.2423 35.1592C33.895 36.5064 32.9784 38.2236 32.6087 40.0927C32.239 41.9618 32.4329 43.8986 33.1659 45.6574C33.8988 47.4161 35.1377 48.9174 36.7253 49.9708C38.3129 51.0242 40.1777 51.5822 42.083 51.574C44.6223 51.574 47.0575 50.5653 48.853 48.7698C50.6485 46.9743 51.6572 44.5391 51.6572 41.9999Z" fill="#A7C7FC"/>
<path d="M37.1257 42C37.1257 42.964 37.4116 43.9064 37.9472 44.708C38.4828 45.5095 39.244 46.1343 40.1347 46.5032C41.0253 46.8721 42.0054 46.9686 42.9509 46.7806C43.8964 46.5925 44.7649 46.1283 45.4466 45.4466C46.1283 44.7649 46.5925 43.8964 46.7806 42.9509C46.9686 42.0054 46.8721 41.0253 46.5032 40.1347C46.1343 39.244 45.5095 38.4828 44.708 37.9472C43.9064 37.4116 42.964 37.1257 42 37.1257C40.7072 37.1257 39.4674 37.6392 38.5533 38.5533C37.6392 39.4674 37.1257 40.7072 37.1257 42ZM42 32.3428C43.8982 32.351 45.7515 32.9209 47.3264 33.9806C48.9014 35.0403 50.1274 36.5425 50.85 38.2978C51.5726 40.0532 51.7596 41.9831 51.3872 43.8445C51.0149 45.7059 50.0999 47.4154 48.7577 48.7577C47.4154 50.0999 45.7059 51.0149 43.8445 51.3872C41.9831 51.7596 40.0532 51.5727 38.2978 50.85C36.5425 50.1274 35.0403 48.9014 33.9806 47.3265C32.9209 45.7515 32.351 43.8982 32.3428 42C32.3406 40.7312 32.5889 39.4744 33.0734 38.3017C33.558 37.1291 34.2692 36.0636 35.1664 35.1664C36.0636 34.2693 37.1291 33.558 38.3017 33.0734C39.4744 32.5889 40.7312 32.3406 42 32.3428Z" fill="white"/>
<path d="M63 29.4033C63.2732 29.4272 63.5275 29.5525 63.7127 29.7547C63.898 29.9568 64.0008 30.2211 64.0008 30.4953C64.0008 30.7695 63.898 31.0337 63.7127 31.2358C63.5275 31.438 63.2732 31.5633 63 31.5872C62.8486 31.6004 62.6961 31.582 62.5522 31.5331C62.4083 31.4843 62.2761 31.406 62.1641 31.3033C62.0521 31.2006 61.9626 31.0758 61.9014 30.9367C61.8402 30.7976 61.8086 30.6472 61.8086 30.4953C61.8086 30.3433 61.8402 30.193 61.9014 30.0539C61.9626 29.9148 62.0521 29.7899 62.1641 29.6872C62.2761 29.5845 62.4083 29.5063 62.5522 29.4574C62.6961 29.4085 62.8486 29.3901 63 29.4033Z" fill="black"/>
<path d="M63 58.7983C63.2168 58.7983 63.4287 58.8626 63.609 58.983C63.7892 59.1035 63.9297 59.2747 64.0127 59.475C64.0956 59.6752 64.1173 59.8956 64.075 60.1083C64.0327 60.3209 63.9284 60.5162 63.7751 60.6695C63.6218 60.8227 63.4265 60.9271 63.2138 60.9694C63.0012 61.0117 62.7808 60.99 62.5806 60.9071C62.3803 60.8241 62.2091 60.6836 62.0887 60.5034C61.9682 60.3231 61.9039 60.1112 61.9039 59.8944C61.925 59.6107 62.0473 59.344 62.2484 59.1428C62.4496 58.9417 62.7163 58.8194 63 58.7983Z" fill="black"/>
<path d="M50.4033 60.8992C50.6913 60.9056 50.9655 61.0234 51.1683 61.2278C51.3712 61.4322 51.4869 61.7073 51.4911 61.9952C51.4858 62.1327 51.4534 62.2677 51.3958 62.3926C51.3382 62.5175 51.2566 62.6298 51.1556 62.7232C51.0545 62.8165 50.9361 62.889 50.807 62.9365C50.6779 62.984 50.5408 63.0056 50.4033 63C50.1146 62.9937 49.8395 62.8761 49.6353 62.6719C49.4311 62.4677 49.3136 62.1926 49.3073 61.9039C49.3453 61.6354 49.4754 61.3885 49.6753 61.2052C49.8752 61.022 50.1325 60.9138 50.4033 60.8992Z" fill="black"/>
<path d="M49.4069 18.899C49.624 18.8973 49.8367 18.9602 50.0181 19.0796C50.1994 19.1991 50.3412 19.3697 50.4254 19.5698C50.5097 19.7699 50.5326 19.9906 50.4912 20.2038C50.4499 20.4169 50.3461 20.613 50.1932 20.7671C50.0402 20.9212 49.8449 21.0265 49.6321 21.0694C49.4192 21.1124 49.1984 21.0912 48.9977 21.0085C48.7969 20.9258 48.6252 20.7853 48.5044 20.6048C48.3836 20.4244 48.3191 20.2122 48.3191 19.995C48.3254 19.7077 48.4417 19.4338 48.6441 19.2298C48.8466 19.0259 49.1196 18.9074 49.4069 18.899Z" fill="black"/>
<path d="M33.6299 18.899C33.847 18.8973 34.0597 18.9602 34.2411 19.0796C34.4224 19.1991 34.5642 19.3697 34.6484 19.5698C34.7327 19.7699 34.7556 19.9906 34.7142 20.2038C34.6729 20.4169 34.5691 20.613 34.4162 20.7671C34.2632 20.9212 34.0679 21.0265 33.8551 21.0694C33.6423 21.1124 33.4215 21.0912 33.2207 21.0085C33.0199 20.9258 32.8482 20.7853 32.7274 20.6048C32.6066 20.4244 32.5421 20.2122 32.5421 19.995C32.5613 19.7121 32.6818 19.4455 32.8816 19.2441C33.0814 19.0428 33.3471 18.9203 33.6299 18.899Z" fill="black"/>
<path d="M29.4034 63C29.6205 63 29.8327 63.0645 30.0132 63.1853C30.1936 63.3061 30.3341 63.4778 30.4168 63.6786C30.4995 63.8793 30.5207 64.1001 30.4777 64.313C30.4348 64.5258 30.3296 64.7211 30.1754 64.8741C30.0213 65.027 29.8252 65.1308 29.6121 65.1721C29.3989 65.2135 29.1783 65.1906 28.9781 65.1063C28.778 65.0221 28.6074 64.8803 28.488 64.699C28.3685 64.5176 28.3056 64.3049 28.3073 64.0878C28.3286 63.805 28.4512 63.5393 28.6525 63.3395C28.8538 63.1397 29.1204 63.0192 29.4034 63Z" fill="black"/>
<path d="M22.0878 22.0711C22.3053 22.0695 22.5184 22.1326 22.6999 22.2524C22.8814 22.3722 23.0232 22.5433 23.1072 22.7439C23.1912 22.9445 23.2136 23.1656 23.1715 23.379C23.1295 23.5924 23.0249 23.7884 22.8712 23.9422C22.7174 24.096 22.5213 24.2005 22.3079 24.2426C22.0945 24.2846 21.8735 24.2622 21.6728 24.1782C21.4722 24.0942 21.3011 23.9525 21.1813 23.7709C21.0615 23.5894 20.9984 23.3764 21.0001 23.1589C20.9954 23.0148 21.0204 22.8713 21.0735 22.7372C21.1265 22.6031 21.2064 22.4814 21.3084 22.3794C21.4103 22.2775 21.5321 22.1975 21.6662 22.1445C21.8002 22.0915 21.9437 22.0665 22.0878 22.0711Z" fill="black"/>
<path d="M21 51.491C21.2168 51.491 21.4287 51.5553 21.609 51.6757C21.7892 51.7961 21.9297 51.9673 22.0127 52.1676C22.0956 52.3679 22.1173 52.5883 22.075 52.8009C22.0327 53.0135 21.9284 53.2088 21.7751 53.3621C21.6218 53.5154 21.4265 53.6198 21.2138 53.6621C21.0012 53.7044 20.7808 53.6827 20.5806 53.5997C20.3803 53.5167 20.2091 53.3763 20.0887 53.196C19.9682 53.0158 19.9039 52.8038 19.9039 52.5871C19.9082 52.2977 20.0251 52.0214 20.2297 51.8167C20.4343 51.6121 20.7107 51.4953 21 51.491Z" fill="black"/>
<path d="M19.9953 31.5042C20.2124 31.5042 20.4247 31.5687 20.6051 31.6895C20.7855 31.8103 20.926 31.982 21.0087 32.1827C21.0914 32.3835 21.1126 32.6043 21.0697 32.8172C21.0267 33.03 20.9215 33.2253 20.7674 33.3782C20.6132 33.5312 20.4172 33.6349 20.204 33.6763C19.9908 33.7176 19.7702 33.6947 19.57 33.6105C19.3699 33.5263 19.1993 33.3845 19.0799 33.2032C18.9604 33.0218 18.8976 32.8091 18.8992 32.592C18.9035 32.3034 19.0207 32.0279 19.2255 31.8246C19.4304 31.6213 19.7067 31.5063 19.9953 31.5042Z" fill="black"/>
<path d="M44.1839 65.8563H39.8162C39.5769 65.8616 39.3437 65.7806 39.1592 65.6282C38.9747 65.4757 38.8513 65.2619 38.8114 65.0259L37.4662 59.1469C35.9304 58.7385 34.4599 58.1151 33.0985 57.2952L27.9751 60.4838C27.7628 60.6041 27.5173 60.6529 27.2751 60.623C27.0329 60.5931 26.8067 60.486 26.6299 60.3177L23.5161 57.2121C23.3501 57.0341 23.2446 56.8081 23.2148 56.5665C23.1849 56.3249 23.2323 56.08 23.35 55.8669L26.5469 50.7436C25.7238 49.3838 25.1002 47.9128 24.6952 46.3758L18.8162 45.0306C18.5794 44.9924 18.3646 44.8695 18.2118 44.6846C18.0591 44.4997 17.9787 44.2656 17.9858 44.0259V39.6582C17.9785 39.4175 18.0585 39.1823 18.2111 38.996C18.3638 38.8098 18.5787 38.6851 18.8162 38.6451L24.6952 37.2999C25.0984 35.7649 25.7222 34.2965 26.5469 32.9405L23.35 27.8088C23.2342 27.5966 23.1879 27.3535 23.2177 27.1136C23.2475 26.8738 23.3519 26.6493 23.5161 26.4719L26.6299 23.358C26.808 23.192 27.034 23.0866 27.2756 23.0568C27.5172 23.0269 27.7621 23.0743 27.9751 23.192L33.0985 26.5134C34.4583 25.6904 35.9292 25.0668 37.4662 24.6617L38.8114 18.7495C38.8496 18.5127 38.9726 18.2979 39.1575 18.1451C39.3423 17.9924 39.5765 17.912 39.8162 17.9191H44.1839C44.4236 17.912 44.6578 17.9924 44.8426 18.1451C45.0275 18.2979 45.1505 18.5127 45.1887 18.7495L46.5339 24.6285C48.0709 25.0335 49.5418 25.6571 50.9016 26.4802L56.025 23.1588C56.2387 23.0435 56.483 22.9976 56.724 23.0273C56.965 23.0571 57.1908 23.1611 57.3702 23.3248L60.4757 26.4387C60.6447 26.6132 60.7529 26.8374 60.7843 27.0783C60.8157 27.3191 60.7687 27.5636 60.6501 27.7756L57.4532 32.9073C58.2745 34.265 58.898 35.7329 59.3049 37.2667L65.1839 38.6783C65.4214 38.7183 65.6363 38.843 65.7889 39.0292C65.9416 39.2155 66.0216 39.4507 66.0143 39.6914V44.0591C66.0214 44.2988 65.941 44.5329 65.7883 44.7178C65.6355 44.9027 65.4207 45.0257 65.1839 45.0639L59.3049 46.409C58.8965 47.9449 58.2731 49.4154 57.4532 50.7768L60.6501 55.9001C60.7668 56.1141 60.8127 56.3594 60.7814 56.6011C60.7501 56.8427 60.6431 57.0682 60.4757 57.2453L57.3702 60.3509C57.1941 60.5204 56.9678 60.6283 56.7252 60.6582C56.4827 60.6882 56.237 60.6386 56.025 60.517L50.9016 57.3284C49.5402 58.1483 48.0697 58.7717 46.5339 59.1801L45.1887 65.0591C45.1418 65.289 45.0154 65.495 44.8316 65.6408C44.6478 65.7866 44.4184 65.8629 44.1839 65.8563ZM40.6549 63.7554H43.3452L44.6074 58.0425C44.6477 57.8574 44.7403 57.6877 44.8743 57.5537C45.0082 57.4198 45.1779 57.3271 45.363 57.2869C47.1214 56.8862 48.8036 56.2049 50.3452 55.2691C50.5022 55.1479 50.695 55.0821 50.8933 55.0821C51.0916 55.0821 51.2843 55.1479 51.4413 55.2691L56.4235 58.383L58.35 56.4482L55.2444 51.466C55.1239 51.3103 55.0585 51.119 55.0585 50.9221C55.0585 50.7252 55.1239 50.5339 55.2444 50.3782C56.2439 48.8694 56.9301 47.1751 57.2622 45.396C57.3015 45.2104 57.3938 45.0402 57.5279 44.9061C57.6621 44.772 57.8323 44.6796 58.0178 44.6404L63.7308 43.3782V40.6878L57.9597 39.5087C57.7741 39.4694 57.604 39.3771 57.4698 39.2429C57.3357 39.1088 57.2434 38.9386 57.2041 38.7531C56.796 36.9971 56.1151 35.3159 55.1863 33.7708C55.0651 33.6139 54.9993 33.4211 54.9993 33.2228C54.9993 33.0245 55.0651 32.8317 55.1863 32.6748L58.2919 27.6926L56.3654 25.7661L51.3832 28.8717C51.2262 28.9929 51.0335 29.0586 50.8352 29.0586C50.6368 29.0586 50.4441 28.9929 50.2871 28.8717C48.7457 27.9166 47.0648 27.2078 45.3049 26.7709C45.1198 26.7306 44.9501 26.638 44.8161 26.504C44.6822 26.37 44.5895 26.2004 44.5493 26.0152L43.3452 20.3272H40.6549L39.3927 26.0401C39.3534 26.2257 39.2611 26.3959 39.127 26.53C38.9928 26.6642 38.8226 26.7565 38.6371 26.7958C36.8647 27.1946 35.1777 27.906 33.6549 28.8966C33.4992 29.0171 33.3079 29.0825 33.111 29.0825C32.9141 29.0825 32.7228 29.0171 32.5671 28.8966L27.5849 25.791L25.6501 27.7175L28.764 32.6997C28.8852 32.8567 28.9509 33.0494 28.9509 33.2477C28.9509 33.446 28.8852 33.6388 28.764 33.7958C27.7589 35.3017 27.0723 36.9971 26.7462 38.778C26.7059 38.9631 26.6133 39.1328 26.4793 39.2667C26.3454 39.4007 26.1757 39.4933 25.9906 39.5336L20.3441 40.7376V43.428L26.057 44.6902C26.2426 44.7295 26.4128 44.8218 26.5469 44.9559C26.681 45.0901 26.7733 45.2602 26.8126 45.4458C27.2192 47.2023 27.9002 48.8836 28.8304 50.428C28.9509 50.5837 29.0163 50.775 29.0163 50.9719C29.0163 51.1688 28.9509 51.3601 28.8304 51.5158L25.7165 56.498L27.6513 58.4328L32.6335 55.3189C32.7892 55.1984 32.9805 55.133 33.1774 55.133C33.3743 55.133 33.5656 55.1984 33.7213 55.3189C35.2283 56.3219 36.9233 57.0083 38.7035 57.3367C38.8886 57.3769 39.0583 57.4696 39.1923 57.6035C39.3262 57.7375 39.4189 57.9072 39.4591 58.0923L40.6549 63.7554Z" fill="black"/>
<path d="M41.9999 52.67C39.8896 52.67 37.8266 52.0442 36.0719 50.8718C34.3172 49.6993 32.9495 48.0329 32.1419 46.0831C31.3343 44.1334 31.123 41.988 31.5347 39.9182C31.9465 37.8484 32.9627 35.9471 34.455 34.4548C35.9472 32.9626 37.8485 31.9463 39.9183 31.5346C41.9881 31.1229 44.1335 31.3342 46.0833 32.1418C48.033 32.9494 49.6994 34.3171 50.8719 36.0718C52.0444 37.8265 52.6702 39.8894 52.6702 41.9998C52.6658 44.8284 51.5402 47.5398 49.5401 49.54C47.54 51.5401 44.8285 52.6657 41.9999 52.67ZM41.9999 33.4304C40.3051 33.4304 38.6483 33.933 37.239 34.8746C35.8298 35.8162 34.7315 37.1546 34.0829 38.7205C33.4343 40.2863 33.2646 42.0093 33.5952 43.6716C33.9259 45.3339 34.742 46.8608 35.9405 48.0593C37.1389 49.2577 38.6658 50.0739 40.3281 50.4046C41.9904 50.7352 43.7135 50.5655 45.2793 49.9169C46.8452 49.2683 48.1835 48.17 49.1251 46.7607C50.0668 45.3515 50.5693 43.6947 50.5693 41.9998C50.5606 39.7298 49.6549 37.5552 48.0498 35.95C46.4446 34.3448 44.27 33.4392 41.9999 33.4304Z" fill="black"/>
<path d="M41.9999 44.2667C41.5516 44.2667 41.1133 44.1338 40.7405 43.8847C40.3677 43.6356 40.0772 43.2816 39.9056 42.8673C39.734 42.4531 39.6891 41.9973 39.7766 41.5576C39.8641 41.1178 40.08 40.7139 40.397 40.3969C40.714 40.0799 41.1179 39.8639 41.5577 39.7765C41.9974 39.689 42.4532 39.7339 42.8674 39.9055C43.2817 40.0771 43.6357 40.3676 43.8848 40.7404C44.1339 41.1132 44.2668 41.5515 44.2668 41.9998C44.269 42.2981 44.2119 42.5939 44.0988 42.8699C43.9856 43.146 43.8187 43.3967 43.6078 43.6077C43.3969 43.8186 43.1461 43.9855 42.8701 44.0987C42.594 44.2118 42.2982 44.2689 41.9999 44.2667ZM41.9999 41.8337C41.9671 41.8337 41.935 41.8435 41.9077 41.8617C41.8804 41.88 41.8591 41.9059 41.8465 41.9363C41.8339 41.9666 41.8306 42 41.8371 42.0322C41.8435 42.0644 41.8593 42.094 41.8825 42.1172C41.9057 42.1405 41.9353 42.1563 41.9675 42.1627C41.9998 42.1691 42.0331 42.1658 42.0635 42.1533C42.0938 42.1407 42.1198 42.1194 42.138 42.0921C42.1563 42.0648 42.166 42.0327 42.166 41.9998C42.1623 41.957 42.1436 41.9169 42.1132 41.8865C42.0828 41.8562 42.0427 41.8375 41.9999 41.8337Z" fill="black"/>
<path d="M42 47.9619C40.8208 47.9619 39.6681 47.6123 38.6877 46.9571C37.7072 46.302 36.9431 45.3709 36.4918 44.2815C36.0405 43.1921 35.9225 41.9933 36.1525 40.8368C36.3826 39.6802 36.9504 38.6179 37.7842 37.7841C38.618 36.9503 39.6803 36.3824 40.8369 36.1524C41.9934 35.9224 43.1922 36.0404 44.2816 36.4917C45.371 36.9429 46.3021 37.7071 46.9573 38.6876C47.6124 39.668 47.962 40.8207 47.962 41.9999C47.9577 43.5798 47.3281 45.0937 46.211 46.2109C45.0938 47.328 43.5799 47.9575 42 47.9619ZM42 38.1387C41.2363 38.1387 40.4898 38.3651 39.8548 38.7894C39.2199 39.2137 38.725 39.8167 38.4327 40.5223C38.1405 41.2278 38.064 42.0042 38.213 42.7532C38.362 43.5022 38.7297 44.1902 39.2697 44.7302C39.8097 45.2702 40.4977 45.6379 41.2467 45.7869C41.9957 45.9359 42.7721 45.8594 43.4776 45.5672C44.1832 45.2749 44.7862 44.78 45.2105 44.1451C45.6348 43.5101 45.8612 42.7636 45.8612 41.9999C45.8504 40.9792 45.4401 40.0033 44.7184 39.2816C43.9966 38.5598 43.0207 38.1495 42 38.1387Z" fill="black"/>
<path d="M21 65.1008C20.1644 65.09 19.3665 64.7515 18.7779 64.1582C18.1893 63.565 17.8572 62.7645 17.8529 61.9288C17.855 61.5146 17.9395 61.1048 18.1016 60.7236C18.2636 60.3423 18.4999 59.9971 18.7966 59.7081C19.0934 59.419 19.4447 59.1919 19.8301 59.04C20.2156 58.8881 20.6273 58.8144 21.0415 58.8232C21.4689 58.8013 21.8964 58.8665 22.2978 59.015C22.6992 59.1634 23.0663 59.392 23.3766 59.6868C23.6869 59.9816 23.934 60.3364 24.1028 60.7297C24.2717 61.123 24.3587 61.5465 24.3587 61.9745C24.3587 62.4025 24.2717 62.826 24.1028 63.2193C23.934 63.6126 23.6869 63.9674 23.3766 64.2622C23.0663 64.5569 22.6992 64.7855 22.2978 64.934C21.8964 65.0824 21.4689 65.1477 21.0415 65.1257L21 65.1008ZM21 60.8992C20.7829 60.8975 20.5701 60.9604 20.3888 61.0798C20.2075 61.1993 20.0657 61.3699 19.9814 61.57C19.8972 61.7701 19.8743 61.9908 19.9157 62.2039C19.957 62.4171 20.0608 62.6132 20.2137 62.7673C20.3667 62.9214 20.5619 63.0267 20.7748 63.0696C20.9876 63.1126 21.2084 63.0914 21.4092 63.0087C21.61 62.9259 21.7817 62.7855 21.9025 62.6051C22.0233 62.4246 22.0878 62.2124 22.0878 61.9952C22.0815 61.7079 21.9652 61.434 21.7627 61.23C21.5603 61.026 21.2873 60.9076 21 60.8992Z" fill="black"/>
<path d="M62.4935 25.2015C61.7626 25.2015 61.0482 24.9848 60.4406 24.5788C59.8329 24.1728 59.3593 23.5957 59.0796 22.9205C58.7999 22.2453 58.7268 21.5023 58.8693 20.7855C59.0119 20.0687 59.3638 19.4103 59.8806 18.8936C60.3974 18.3768 61.0558 18.0249 61.7726 17.8823C62.4894 17.7397 63.2323 17.8129 63.9075 18.0926C64.5827 18.3722 65.1598 18.8459 65.5659 19.4535C65.9719 20.0612 66.1886 20.7756 66.1886 21.5064C66.1799 22.4838 65.7879 23.4186 65.0968 24.1097C64.4057 24.8008 63.4708 25.1929 62.4935 25.2015ZM62.4935 19.9951C62.1782 19.9951 61.8699 20.0887 61.6077 20.2638C61.3455 20.439 61.1412 20.688 61.0205 20.9793C60.8999 21.2707 60.8683 21.5912 60.9298 21.9005C60.9913 22.2098 61.1432 22.4938 61.3661 22.7168C61.5891 22.9398 61.8732 23.0916 62.1824 23.1531C62.4917 23.2146 62.8123 23.1831 63.1036 23.0624C63.3949 22.9417 63.6439 22.7374 63.8191 22.4752C63.9943 22.213 64.0878 21.9048 64.0878 21.5895C64.0878 21.1666 63.9198 20.7611 63.6208 20.4621C63.3218 20.1631 62.9163 19.9951 62.4935 19.9951Z" fill="black"/>
</g>
</svg>
