<svg width="81" height="81" viewBox="0 0 81 81" fill="none" xmlns="http://www.w3.org/2000/svg">
<g opacity="0.3">
<path d="M40.4999 20.25C36.4948 20.25 32.5797 21.4377 29.2496 23.6628C25.9195 25.8878 23.324 29.0505 21.7913 32.7507C20.2587 36.4509 19.8576 40.5225 20.639 44.4506C21.4203 48.3787 23.349 51.9869 26.181 54.8189C29.013 57.6509 32.6212 59.5795 36.5493 60.3609C40.4774 61.1423 44.549 60.7412 48.2492 59.2086C51.9494 57.6759 55.112 55.0804 57.3371 51.7503C59.5622 48.4202 60.7499 44.5051 60.7499 40.5C60.7478 35.13 58.6136 29.9806 54.8165 26.1834C51.0193 22.3863 45.8699 20.2521 40.4999 20.25Z" fill="white"/>
<path d="M40.4999 26.3274C43.303 26.3274 46.0431 27.1586 48.3738 28.7159C50.7044 30.2732 52.521 32.4867 53.5937 35.0764C54.6664 37.6661 54.947 40.5157 54.4002 43.2649C53.8533 46.0142 52.5035 48.5395 50.5214 50.5215C48.5394 52.5036 46.0141 53.8534 43.2648 54.4003C40.5156 54.9471 37.666 54.6665 35.0763 53.5938C32.4866 52.5211 30.2731 50.7046 28.7158 48.3739C27.1585 46.0432 26.3273 43.3031 26.3273 40.5C26.3231 38.6377 26.6868 36.7928 27.3975 35.0714C28.1083 33.35 29.1521 31.7859 30.469 30.469C31.7858 29.1522 33.3499 28.1084 35.0713 27.3977C36.7927 26.6869 38.6376 26.3232 40.4999 26.3274Z" fill="#A7C7FC"/>
<path d="M40.4999 38.074C41.3936 38.0719 42.2789 38.2462 43.1051 38.587C43.9313 38.9278 44.682 39.4283 45.3144 40.0599C45.9467 40.6915 46.4481 41.4417 46.7899 42.2675C47.1316 43.0932 47.307 43.9783 47.3059 44.872C47.314 45.7344 47.1479 46.5896 46.8175 47.3863H34.2623C33.8501 46.3613 33.6946 45.2511 33.8092 44.1523C33.9238 43.0536 34.305 41.9994 34.9198 41.0815C35.5346 40.1636 36.3644 39.4099 37.3369 38.8857C38.3094 38.3615 39.3952 38.0829 40.4999 38.074Z" fill="white"/>
<path d="M59.7811 58.7243C60.1817 58.7243 60.5734 58.8431 60.9065 59.0657C61.2397 59.2883 61.4993 59.6047 61.6527 59.9748C61.806 60.345 61.8461 60.7523 61.768 61.1453C61.6898 61.5383 61.4968 61.8993 61.2135 62.1826C60.9302 62.4659 60.5693 62.6588 60.1763 62.737C59.7833 62.8151 59.376 62.775 59.0058 62.6217C58.6357 62.4683 58.3193 62.2087 58.0967 61.8756C57.8741 61.5424 57.7553 61.1508 57.7553 60.7501C57.7521 60.4832 57.8022 60.2183 57.9029 59.9711C58.0036 59.7238 58.1527 59.4992 58.3414 59.3104C58.5302 59.1217 58.7548 58.9726 59.002 58.8719C59.2493 58.7712 59.5142 58.721 59.7811 58.7243Z" fill="white"/>
<path d="M22.7641 17.2554C23.2617 17.2554 23.7481 17.4031 24.1618 17.6797C24.5754 17.9563 24.8977 18.3494 25.0877 18.8093C25.2778 19.2692 25.3271 19.7751 25.2294 20.2631C25.1318 20.751 24.8915 21.199 24.5391 21.5503C24.1867 21.9016 23.7379 22.1404 23.2497 22.2365C22.7615 22.3326 22.2557 22.2817 21.7964 22.0901C21.3371 21.8986 20.945 21.5751 20.6697 21.1606C20.3944 20.7461 20.2483 20.2592 20.2499 19.7616C20.252 19.0962 20.5178 18.4587 20.9891 17.9889C21.4604 17.5192 22.0987 17.2554 22.7641 17.2554Z" fill="white"/>
<path d="M40.5 31.3239C41.173 31.3239 41.831 31.5235 42.3906 31.8974C42.9502 32.2713 43.3864 32.8028 43.644 33.4246C43.9015 34.0464 43.9689 34.7307 43.8376 35.3908C43.7063 36.051 43.3822 36.6573 42.9063 37.1332C42.4304 37.6091 41.824 37.9332 41.1639 38.0645C40.5038 38.1958 39.8195 38.1285 39.1977 37.8709C38.5759 37.6133 38.0444 37.1771 37.6705 36.6175C37.2965 36.0579 37.097 35.4 37.097 34.7269C37.0927 34.2788 37.1778 33.8344 37.3473 33.4196C37.5168 33.0048 37.7673 32.6279 38.0841 32.3111C38.401 31.9942 38.7778 31.7437 39.1927 31.5742C39.6075 31.4047 40.0519 31.3196 40.5 31.3239Z" fill="white"/>
<path d="M38.7944 42.2777L40.5 38.074L42.1975 42.2777L40.5 43.9832L38.7944 42.2777Z" fill="white"/>
<path d="M61.7988 26.3274C62.0086 26.3258 62.214 26.3867 62.389 26.5022C62.5641 26.6177 62.7008 26.7827 62.7818 26.9762C62.8628 27.1696 62.8844 27.3828 62.8438 27.5886C62.8033 27.7943 62.7025 27.9834 62.5542 28.1317C62.4059 28.28 62.2168 28.3808 62.0111 28.4213C61.8053 28.4619 61.5921 28.4402 61.3987 28.3593C61.2052 28.2783 61.0402 28.1416 60.9247 27.9665C60.8092 27.7915 60.7483 27.5861 60.7499 27.3764C60.756 27.1001 60.8685 26.8368 61.0639 26.6414C61.2593 26.446 61.5226 26.3335 61.7988 26.3274Z" fill="black"/>
<path d="M61.7989 52.6468C62.0083 52.6452 62.2134 52.7058 62.3883 52.821C62.5632 52.9362 62.6999 53.1006 62.7811 53.2936C62.8623 53.4866 62.8844 53.6994 62.8445 53.905C62.8047 54.1105 62.7046 54.2995 62.5571 54.4482C62.4097 54.5968 62.2213 54.6982 62.0161 54.7397C61.8109 54.7811 61.5979 54.7607 61.4043 54.6809C61.2107 54.6012 61.0452 54.4657 60.9287 54.2917C60.8122 54.1177 60.75 53.9131 60.75 53.7037C60.756 53.4267 60.8682 53.1625 61.0634 52.9658C61.2586 52.7691 61.5219 52.6549 61.7989 52.6468Z" fill="black"/>
<path d="M54.6725 17.2554C54.8822 17.2538 55.0877 17.3147 55.2627 17.4302C55.4377 17.5457 55.5744 17.7107 55.6554 17.9042C55.7364 18.0976 55.758 18.3108 55.7175 18.5166C55.677 18.7224 55.5761 18.9114 55.4278 19.0597C55.2795 19.208 55.0905 19.3088 54.8847 19.3494C54.6789 19.3899 54.4658 19.3683 54.2723 19.2873C54.0789 19.2063 53.9139 19.0696 53.7983 18.8946C53.6828 18.7195 53.622 18.514 53.6236 18.3043C53.6297 18.0281 53.7422 17.7648 53.9376 17.5694C54.133 17.374 54.3962 17.2615 54.6725 17.2554Z" fill="black"/>
<path d="M25.3505 60.75C25.5598 60.7484 25.765 60.8091 25.9398 60.9243C26.1147 61.0394 26.2514 61.2039 26.3326 61.3969C26.4138 61.5899 26.4359 61.8027 26.3961 62.0082C26.3562 62.2138 26.2562 62.4029 26.1087 62.5515C25.9612 62.7001 25.7729 62.8015 25.5676 62.843C25.3624 62.8844 25.1495 62.864 24.9559 62.7842C24.7623 62.7045 24.5967 62.569 24.4802 62.395C24.3637 62.221 24.3015 62.0164 24.3015 61.807C24.3076 61.5299 24.4198 61.2658 24.615 61.0691C24.8102 60.8724 25.0735 60.7582 25.3505 60.75Z" fill="black"/>
<path d="M19.2811 27.3765C19.4901 27.3765 19.6945 27.4385 19.8683 27.5546C20.0421 27.6707 20.1775 27.8358 20.2575 28.0289C20.3375 28.2221 20.3585 28.4346 20.3177 28.6396C20.2769 28.8446 20.1762 29.0329 20.0284 29.1808C19.8806 29.3286 19.6923 29.4292 19.4873 29.47C19.2822 29.5108 19.0697 29.4899 18.8766 29.4099C18.6835 29.3299 18.5184 29.1944 18.4022 29.0206C18.2861 28.8468 18.2241 28.6425 18.2241 28.4334C18.2283 28.1544 18.3409 27.8879 18.5383 27.6906C18.7356 27.4933 19.002 27.3806 19.2811 27.3765Z" fill="black"/>
<path d="M19.2811 52.647C19.4884 52.6471 19.6911 52.7082 19.8639 52.8227C20.0368 52.9371 20.1721 53.0999 20.2532 53.2907C20.3342 53.4815 20.3573 53.692 20.3197 53.8958C20.2821 54.0997 20.1853 54.2879 20.0415 54.4372C19.8976 54.5865 19.7131 54.6903 19.5107 54.7355C19.3084 54.7806 19.0973 54.7653 18.9036 54.6914C18.7099 54.6175 18.5422 54.4883 18.4214 54.3198C18.3006 54.1514 18.232 53.9511 18.2241 53.7439C18.221 53.6024 18.2458 53.4616 18.2973 53.3297C18.3488 53.1977 18.4259 53.0773 18.5242 52.9753C18.6224 52.8734 18.7399 52.7918 18.8698 52.7355C18.9997 52.6791 19.1395 52.6491 19.2811 52.647Z" fill="black"/>
<path d="M40.5 61.807C36.2969 61.8006 32.1899 60.549 28.6976 58.2101C25.2054 55.8712 22.4845 52.5499 20.8786 48.6656C19.2727 44.7814 18.8538 40.5084 19.6748 36.3862C20.4957 32.264 22.5198 28.4776 25.4913 25.5049C28.4628 22.5323 32.2485 20.5069 36.3703 19.6844C40.4922 18.8619 44.7653 19.2792 48.6502 20.8836C52.535 22.4881 55.8573 25.2077 58.1976 28.699C60.5378 32.1904 61.791 36.2969 61.7989 40.5001C61.7926 46.1477 59.5468 51.5622 55.5541 55.5565C51.5613 59.5507 46.1476 61.7985 40.5 61.807ZM40.5 21.307C36.702 21.3196 32.9928 22.4574 29.8411 24.5767C26.6893 26.696 24.2361 29.7017 22.7915 33.2143C21.3468 36.7268 20.9753 40.5887 21.7241 44.3122C22.4728 48.0357 24.308 51.4539 26.9981 54.1351C29.6882 56.8162 33.1125 58.6401 36.8385 59.3764C40.5645 60.1128 44.4251 59.7285 47.9328 58.2721C51.4405 56.8157 54.4381 54.3526 56.5469 51.1938C58.6556 48.035 59.7811 44.3221 59.7811 40.524C59.7537 35.4247 57.7114 30.5431 54.0996 26.9433C50.4878 23.3435 45.5994 21.3175 40.5 21.307Z" fill="black"/>
<path d="M40.4999 55.7295C37.491 55.7295 34.5496 54.8373 32.0477 53.1656C29.5459 51.4939 27.5959 49.1179 26.4444 46.338C25.293 43.5581 24.9917 40.4991 25.5787 37.548C26.1657 34.5968 27.6147 31.8861 29.7423 29.7584C31.87 27.6308 34.5808 26.1818 37.5319 25.5948C40.483 25.0078 43.542 25.3091 46.3219 26.4605C49.1018 27.612 51.4778 29.562 53.1495 32.0639C54.8212 34.5657 55.7134 37.507 55.7134 40.516C55.7008 44.547 54.0938 48.4092 51.2435 51.2596C48.3931 54.1099 44.5309 55.7169 40.4999 55.7295ZM40.4999 27.3763C37.8885 27.3763 35.3356 28.1507 33.1643 29.6016C30.993 31.0524 29.3006 33.1146 28.3012 35.5272C27.3019 37.9399 27.0404 40.5947 27.5499 43.156C28.0593 45.7173 29.3169 48.07 31.1635 49.9165C33.01 51.7631 35.3627 53.0206 37.924 53.5301C40.4853 54.0396 43.1401 53.7781 45.5528 52.7788C47.9654 51.7794 50.0276 50.087 51.4784 47.9157C52.9293 45.7443 53.7036 43.1915 53.7036 40.5801C53.7015 37.0789 52.3097 33.7217 49.834 31.2459C47.3583 28.7702 44.0011 27.3785 40.4999 27.3763Z" fill="black"/>
<path d="M40.4999 39.1229C39.6353 39.1229 38.79 38.8665 38.071 38.3861C37.3521 37.9057 36.7917 37.2229 36.4608 36.4241C36.1299 35.6252 36.0434 34.7462 36.2121 33.8981C36.3807 33.05 36.7971 32.2711 37.4086 31.6596C38.02 31.0482 38.799 30.6319 39.647 30.4632C40.4951 30.2945 41.3741 30.381 42.173 30.7119C42.9718 31.0428 43.6546 31.6032 44.135 32.3221C44.6154 33.0411 44.8718 33.8864 44.8718 34.7511C44.8614 35.9073 44.3974 37.0133 43.5798 37.8309C42.7622 38.6485 41.6562 39.1125 40.4999 39.1229ZM40.4999 32.3169C40.034 32.3153 39.5781 32.452 39.1899 32.7097C38.8017 32.9674 38.4987 33.3345 38.3193 33.7645C38.1399 34.1945 38.0922 34.6681 38.1821 35.1253C38.272 35.5825 38.4956 36.0027 38.8245 36.3327C39.1534 36.6627 39.5729 36.8877 40.0297 36.9792C40.4866 37.0707 40.9603 37.0246 41.3909 36.8466C41.8216 36.6687 42.1897 36.3669 42.4487 35.9796C42.7078 35.5923 42.846 35.1369 42.846 34.671C42.846 34.048 42.5991 33.4504 42.1594 33.0092C41.7196 32.5679 41.1229 32.319 40.4999 32.3169Z" fill="black"/>
<path d="M40.4999 45.032C40.363 45.0317 40.2275 45.0032 40.1021 44.9481C39.9767 44.8929 39.8641 44.8124 39.7713 44.7117L38.0337 43.0142C37.8871 42.886 37.7848 42.7147 37.7416 42.5248C37.6985 42.3349 37.7166 42.1362 37.7935 41.9573L39.5311 37.7295C39.6105 37.538 39.745 37.3742 39.9174 37.2591C40.0899 37.1439 40.2926 37.0825 40.4999 37.0825C40.7073 37.0825 40.91 37.1439 41.0824 37.2591C41.2549 37.3742 41.3893 37.538 41.4688 37.7295L43.1743 41.9412C43.2599 42.1193 43.2819 42.3212 43.2367 42.5135C43.1916 42.7058 43.082 42.8768 42.9261 42.9982L41.2366 44.7117C41.1429 44.8134 41.029 44.8945 40.9021 44.9497C40.7752 45.0048 40.6383 45.0328 40.4999 45.032ZM40.0115 42.0373L40.4999 42.5257L40.9884 42.0373L40.4999 40.8282L40.0115 42.0373Z" fill="black"/>
<path d="M46.7375 48.4352H34.2625C34.0547 48.4362 33.8514 48.3749 33.6787 48.2593C33.506 48.1437 33.3719 47.9791 33.2936 47.7866C32.9013 46.8659 32.7076 45.8727 32.7251 44.872C32.7251 42.81 33.5442 40.8325 35.0023 39.3744C36.4604 37.9163 38.438 37.0972 40.5 37.0972C42.562 37.0972 44.5396 37.9163 45.9977 39.3744C47.4558 40.8325 48.2749 42.81 48.2749 44.872C48.2924 45.8727 48.0987 46.8659 47.7064 47.7866C47.6372 47.9853 47.5052 48.156 47.3304 48.273C47.1557 48.39 46.9475 48.4469 46.7375 48.4352ZM34.911 46.4094H46.0409C46.2054 45.9138 46.2866 45.3943 46.2811 44.872C46.2811 43.3473 45.6754 41.885 44.5973 40.8068C43.5191 39.7286 42.0568 39.1229 40.532 39.1229C39.0073 39.1229 37.545 39.7286 36.4668 40.8068C35.3886 41.885 34.7829 43.3473 34.7829 44.872C34.7856 45.3871 34.8285 45.9011 34.911 46.4094Z" fill="black"/>
<path d="M22.7642 23.3168C22.0595 23.3168 21.3706 23.1078 20.7846 22.7163C20.1987 22.3248 19.742 21.7683 19.4723 21.1172C19.2026 20.4661 19.132 19.7496 19.2695 19.0585C19.407 18.3673 19.7464 17.7324 20.2447 17.2341C20.743 16.7358 21.3779 16.3964 22.0691 16.2589C22.7603 16.1214 23.4767 16.192 24.1278 16.4617C24.7789 16.7314 25.3354 17.1881 25.7269 17.774C26.1184 18.36 26.3274 19.0489 26.3274 19.7536C26.319 20.696 25.9409 21.5975 25.2745 22.2639C24.6081 22.9303 23.7066 23.3084 22.7642 23.3168ZM22.7642 18.2163C22.4579 18.2147 22.158 18.3042 21.9027 18.4734C21.6473 18.6426 21.448 18.8838 21.33 19.1665C21.2121 19.4492 21.1808 19.7606 21.2402 20.0612C21.2995 20.3617 21.4469 20.6377 21.6635 20.8543C21.8801 21.0709 22.1562 21.2183 22.4567 21.2777C22.7572 21.337 23.0686 21.3057 23.3513 21.1878C23.634 21.0698 23.8753 20.8705 24.0445 20.6152C24.2137 20.3598 24.3032 20.0599 24.3016 19.7536C24.3072 19.5506 24.2711 19.3486 24.1957 19.16C24.1203 18.9714 24.0072 18.8002 23.8632 18.6569C23.7192 18.5137 23.5474 18.4014 23.3584 18.327C23.1694 18.2526 22.9672 18.2176 22.7642 18.2243V18.2163Z" fill="black"/>
<path d="M59.781 63.8248C59.1729 63.8248 58.5784 63.6445 58.0728 63.3066C57.5672 62.9687 57.1731 62.4885 56.9404 61.9267C56.7076 61.3648 56.6467 60.7466 56.7654 60.1502C56.884 59.5537 57.1769 59.0059 57.6069 58.5759C58.0369 58.1459 58.5847 57.853 59.1812 57.7344C59.7776 57.6157 60.3958 57.6767 60.9577 57.9094C61.5195 58.1421 61.9997 58.5362 62.3376 59.0418C62.6754 59.5475 62.8558 60.1419 62.8558 60.75C62.8241 61.5554 62.4901 62.3192 61.9201 62.8891C61.3502 63.4591 60.5864 63.7932 59.781 63.8248ZM59.781 59.7812C59.5713 59.7796 59.3659 59.8404 59.1908 59.956C59.0158 60.0715 58.8791 60.2365 58.7981 60.4299C58.7171 60.6234 58.6955 60.8366 58.736 61.0423C58.7766 61.2481 58.8774 61.4371 59.0257 61.5854C59.174 61.7337 59.363 61.8346 59.5688 61.8751C59.7746 61.9156 59.9878 61.894 60.1812 61.813C60.3747 61.7321 60.5397 61.5953 60.6552 61.4203C60.7707 61.2453 60.8315 61.0398 60.83 60.8301C60.8113 60.5581 60.6948 60.302 60.5019 60.1092C60.3091 59.9164 60.0531 59.7999 59.781 59.7812Z" fill="black"/>
</g>
</svg>
