<svg width="84" height="84" viewBox="0 0 84 84" fill="none" xmlns="http://www.w3.org/2000/svg">
<g opacity="0.3">
<path d="M38.5982 40.2858C38.8186 40.3051 39.0238 40.4062 39.1733 40.5694C39.3229 40.7325 39.4058 40.9457 39.4058 41.167C39.4058 41.3883 39.3229 41.6015 39.1733 41.7647C39.0238 41.9278 38.8186 42.029 38.5982 42.0482C38.476 42.0589 38.3529 42.044 38.2368 42.0046C38.1207 41.9651 38.014 41.902 37.9236 41.8191C37.8332 41.7362 37.761 41.6355 37.7116 41.5232C37.6622 41.411 37.6367 41.2897 37.6367 41.167C37.6367 41.0444 37.6622 40.9231 37.7116 40.8108C37.761 40.6986 37.8332 40.5978 37.9236 40.5149C38.014 40.4321 38.1207 40.3689 38.2368 40.3295C38.3529 40.29 38.476 40.2752 38.5982 40.2858Z" fill="white"/>
<path d="M31.4139 55.5374C31.8303 55.5374 32.2374 55.661 32.5836 55.8925C32.9297 56.124 33.1994 56.453 33.3585 56.8379C33.5175 57.2227 33.5588 57.6461 33.4771 58.0545C33.3954 58.4628 33.1943 58.8377 32.8994 59.1317C32.6044 59.4257 32.2289 59.6256 31.8203 59.706C31.4117 59.7865 30.9884 59.7438 30.604 59.5836C30.2197 59.4233 29.8915 59.1525 29.6611 58.8056C29.4307 58.4587 29.3084 58.0513 29.3097 57.6348C29.3061 57.3578 29.3581 57.0829 29.4627 56.8263C29.5672 56.5698 29.7222 56.3368 29.9184 56.1412C30.1146 55.9457 30.348 55.7914 30.6049 55.6877C30.8618 55.584 31.1369 55.5329 31.4139 55.5374Z" fill="#A7C7FC"/>
<path d="M54.7346 21.6433C55.23 21.6446 55.7139 21.7928 56.1251 22.0689C56.5364 22.3451 56.8566 22.737 57.0452 23.1951C57.2339 23.6531 57.2826 24.1568 57.1851 24.6425C57.0876 25.1283 56.8484 25.5742 56.4977 25.924C56.1469 26.2738 55.7003 26.5119 55.2144 26.608C54.7284 26.7042 54.2248 26.6542 53.7673 26.4643C53.3097 26.2744 52.9187 25.9532 52.6436 25.5412C52.3685 25.1292 52.2217 24.6449 52.2217 24.1495C52.2217 23.8198 52.2867 23.4934 52.4131 23.1889C52.5395 22.8844 52.7247 22.6078 52.9581 22.375C53.1915 22.1422 53.4686 21.9577 53.7734 21.8322C54.0783 21.7066 54.4049 21.6424 54.7346 21.6433Z" fill="#A7C7FC"/>
<path d="M56.4228 29.2359C56.5983 29.2345 56.7702 29.2855 56.9167 29.3821C57.0632 29.4788 57.1776 29.6169 57.2454 29.7788C57.3132 29.9407 57.3312 30.1191 57.2973 30.2913C57.2634 30.4635 57.179 30.6217 57.0549 30.7458C56.9308 30.87 56.7726 30.9543 56.6004 30.9882C56.4282 31.0222 56.2498 31.0041 56.0879 30.9363C55.926 30.8685 55.7879 30.7541 55.6912 30.6076C55.5945 30.4611 55.5436 30.2892 55.5449 30.1137C55.5501 29.8825 55.6442 29.6622 55.8077 29.4986C55.9713 29.3351 56.1916 29.241 56.4228 29.2359Z" fill="black"/>
<path d="M55.5445 53.8422C55.7649 53.8615 55.9701 53.9626 56.1196 54.1257C56.2692 54.2889 56.3521 54.5021 56.3521 54.7234C56.3521 54.9447 56.2692 55.1579 56.1196 55.3211C55.9701 55.4842 55.7649 55.5853 55.5445 55.6046C55.4223 55.6153 55.2992 55.6004 55.1831 55.561C55.067 55.5215 54.9603 55.4584 54.8699 55.3755C54.7795 55.2926 54.7073 55.1919 54.6579 55.0796C54.6085 54.9673 54.583 54.846 54.583 54.7234C54.583 54.6008 54.6085 54.4795 54.6579 54.3672C54.7073 54.2549 54.7795 54.1542 54.8699 54.0713C54.9603 53.9884 55.067 53.9253 55.1831 53.8858C55.2992 53.8464 55.4223 53.8316 55.5445 53.8422Z" fill="black"/>
<path d="M41.1712 53.8422C41.3468 53.8409 41.5187 53.8918 41.6652 53.9885C41.8117 54.0852 41.9261 54.2233 41.9938 54.3852C42.0616 54.5471 42.0797 54.7255 42.0458 54.8977C42.0119 55.0699 41.9275 55.2281 41.8034 55.3522C41.6793 55.4763 41.521 55.5607 41.3488 55.5946C41.1766 55.6285 40.9982 55.6105 40.8363 55.5427C40.6744 55.4749 40.5364 55.3605 40.4397 55.214C40.343 55.0675 40.2921 54.8956 40.2934 54.7201C40.2897 54.6038 40.3098 54.488 40.3526 54.3798C40.3954 54.2716 40.46 54.1733 40.5422 54.0911C40.6245 54.0088 40.7228 53.9443 40.8309 53.9015C40.9391 53.8587 41.055 53.8385 41.1712 53.8422Z" fill="black"/>
<path d="M28.4324 23.3389C28.6076 23.3389 28.7789 23.3909 28.9245 23.4884C29.0701 23.5859 29.1835 23.7245 29.2502 23.8865C29.317 24.0485 29.3341 24.2267 29.2994 24.3985C29.2648 24.5702 29.1798 24.7278 29.0555 24.8512C28.9311 24.9747 28.7729 25.0584 28.6008 25.0918C28.4288 25.1251 28.2508 25.1067 28.0893 25.0387C27.9277 24.9707 27.7901 24.8563 27.6937 24.7099C27.5973 24.5636 27.5465 24.3919 27.5479 24.2167C27.5514 23.9838 27.6459 23.7616 27.8112 23.5975C27.9765 23.4334 28.1995 23.3406 28.4324 23.3389Z" fill="black"/>
<path d="M23.3462 55.5375C23.5667 55.5568 23.7719 55.6579 23.9214 55.8211C24.0709 55.9842 24.1538 56.1974 24.1538 56.4187C24.1538 56.64 24.0709 56.8532 23.9214 57.0164C23.7719 57.1795 23.5667 57.2807 23.3462 57.2999C23.224 57.3106 23.101 57.2957 22.9849 57.2563C22.8687 57.2168 22.7621 57.1537 22.6717 57.0708C22.5812 56.9879 22.5091 56.8872 22.4597 56.7749C22.4103 56.6627 22.3848 56.5414 22.3848 56.4187C22.3848 56.2961 22.4103 56.1748 22.4597 56.0625C22.5091 55.9503 22.5812 55.8495 22.6717 55.7666C22.7621 55.6838 22.8687 55.6206 22.9849 55.5812C23.101 55.5417 23.224 55.5269 23.3462 55.5375Z" fill="black"/>
<path d="M20.8133 27.5405C20.9885 27.5405 21.1598 27.5926 21.3054 27.6901C21.451 27.7876 21.5644 27.9261 21.6311 28.0881C21.6979 28.2501 21.715 28.4283 21.6803 28.6001C21.6456 28.7719 21.5607 28.9295 21.4363 29.0529C21.312 29.1763 21.1537 29.2601 20.9817 29.2934C20.8097 29.3268 20.6316 29.3083 20.4701 29.2403C20.3086 29.1724 20.1709 29.0579 20.0745 28.9116C19.9782 28.7653 19.9274 28.5936 19.9287 28.4184C19.9322 28.1855 20.0268 27.9632 20.1921 27.7991C20.3574 27.6351 20.5804 27.5423 20.8133 27.5405Z" fill="black"/>
<path d="M36.2256 44.3535C36.1106 44.3517 35.9972 44.3264 35.8924 44.2791C35.7875 44.2319 35.6934 44.1637 35.6158 44.0788C35.2202 43.691 34.9079 43.2265 34.6982 42.7137C34.4885 42.2009 34.3857 41.6507 34.3962 41.0968C34.4094 39.984 34.8454 38.918 35.6158 38.1149C36.0036 37.7192 36.4681 37.407 36.9809 37.1972C37.4937 36.9875 38.0439 36.8848 38.5978 36.8953C39.7106 36.9084 40.7767 37.3445 41.5798 38.1149C41.9742 38.5036 42.2856 38.9683 42.4952 39.4808C42.7048 39.9934 42.8083 40.5431 42.7994 41.0968C42.7862 42.2096 42.3502 43.2757 41.5798 44.0788C41.5019 44.1682 41.4065 44.2406 41.2995 44.2916C41.1925 44.3425 41.0761 44.371 40.9577 44.375C40.8392 44.3791 40.7212 44.3588 40.6109 44.3153C40.5006 44.2719 40.4004 44.2062 40.3166 44.1224C40.2328 44.0386 40.1671 43.9384 40.1236 43.8281C40.0802 43.7178 40.0599 43.5998 40.0639 43.4813C40.068 43.3629 40.0964 43.2465 40.1474 43.1395C40.1984 43.0324 40.2708 42.9371 40.3602 42.8592C40.6019 42.6208 40.7925 42.3356 40.9204 42.0211C41.0483 41.7066 41.1108 41.3693 41.104 41.0298C41.1076 40.6906 41.0435 40.3541 40.9155 40.0399C40.7876 39.7257 40.5983 39.4402 40.3587 39.2C40.1191 38.9598 39.8341 38.7697 39.5202 38.6409C39.2064 38.5122 38.87 38.4472 38.5308 38.4499C37.849 38.4644 37.1969 38.7319 36.7014 39.2004C36.2219 39.6888 35.9525 40.3454 35.9509 41.0298C35.9653 41.7116 36.2329 42.3637 36.7014 42.8592C36.8626 43.0212 36.9531 43.2405 36.9531 43.469C36.9531 43.6976 36.8626 43.9168 36.7014 44.0788C36.6619 44.1695 36.5944 44.2451 36.5087 44.2945C36.4231 44.3439 36.3239 44.3646 36.2256 44.3535Z" fill="black"/>
<path d="M43.4093 46.7258C43.2944 46.7235 43.1811 46.698 43.0763 46.6508C42.9715 46.6036 42.8773 46.5356 42.7995 46.451C42.6383 46.289 42.5478 46.0698 42.5478 45.8412C42.5478 45.6127 42.6383 45.3934 42.7995 45.2314C43.9069 44.1134 44.5281 42.6035 44.5281 41.0299C44.5281 39.4563 43.9069 37.9463 42.7995 36.8283C42.255 36.2653 41.6018 35.8188 40.8796 35.5159C40.1574 35.213 39.3811 35.0599 38.5979 35.0659C37.8157 35.0663 37.0414 35.2224 36.3201 35.5249C35.5987 35.8275 34.9448 36.2706 34.3964 36.8283C33.8334 37.3728 33.3869 38.026 33.084 38.7482C32.781 39.4704 32.6279 40.2467 32.634 41.0299C32.6344 41.8121 32.7904 42.5864 33.093 43.3077C33.3956 44.0291 33.8386 44.683 34.3964 45.2314C34.5576 45.3934 34.6481 45.6127 34.6481 45.8412C34.6481 46.0698 34.5576 46.289 34.3964 46.451C34.3171 46.5325 34.2223 46.5972 34.1175 46.6414C34.0128 46.6857 33.9003 46.7084 33.7866 46.7084C33.6729 46.7084 33.5604 46.6857 33.4556 46.6414C33.3509 46.5972 33.2561 46.5325 33.1768 46.451C32.4617 45.7419 31.8953 44.8971 31.511 43.9662C31.1267 43.0353 30.9321 42.037 30.9386 41.0299C30.9366 38.9976 31.7416 37.0477 33.1768 35.6087C33.8855 34.893 34.7302 34.3263 35.6612 33.9419C36.5922 33.5575 37.5907 33.3633 38.5979 33.3706C40.6274 33.383 42.572 34.1858 44.0191 35.6087C44.7283 36.3153 45.2909 37.155 45.6748 38.0795C46.0588 39.004 46.2564 39.9953 46.2564 40.9964C46.2564 41.9974 46.0588 42.9887 45.6748 43.9132C45.2909 44.8378 44.7283 45.6774 44.0191 46.384C43.9546 46.4878 43.8648 46.5736 43.7582 46.6334C43.6516 46.6932 43.5315 46.7249 43.4093 46.7258Z" fill="black"/>
<path d="M45.7814 49.1646C45.6662 49.164 45.5525 49.1392 45.4474 49.0919C45.3424 49.0446 45.2485 48.9758 45.1717 48.8899C45.0104 48.7279 44.9199 48.5087 44.9199 48.2801C44.9199 48.0516 45.0104 47.8323 45.1717 47.6703C46.4688 46.3707 47.3515 44.7158 47.7084 42.9146C48.0653 41.1135 47.8804 39.247 47.1769 37.5509C46.4734 35.8549 45.283 34.4054 43.756 33.3856C42.229 32.3659 40.4341 31.8216 38.5979 31.8216C36.7617 31.8216 34.9668 32.3659 33.4398 33.3856C31.9129 34.4054 30.7224 35.8549 30.0189 37.5509C29.3155 39.247 29.1305 41.1135 29.4874 42.9146C29.8443 44.7158 30.7271 46.3707 32.0242 47.6703C32.1854 47.8323 32.2759 48.0516 32.2759 48.2801C32.2759 48.5087 32.1854 48.7279 32.0242 48.8899C31.9449 48.9714 31.8501 49.0361 31.7453 49.0803C31.6406 49.1245 31.5281 49.1473 31.4144 49.1473C31.3007 49.1473 31.1882 49.1245 31.0834 49.0803C30.9787 49.0361 30.8839 48.9714 30.8046 48.8899C29.2535 47.3468 28.1954 45.378 27.7644 43.2329C27.3334 41.0879 27.5489 38.8631 28.3835 36.8407C29.2182 34.8182 30.6345 33.0891 32.4529 31.8723C34.2713 30.6556 36.41 30.0061 38.5979 30.0061C40.7858 30.0061 42.9245 30.6556 44.7429 31.8723C46.5613 33.0891 47.9776 34.8182 48.8123 36.8407C49.647 38.8631 49.8624 41.0879 49.4314 43.2329C49.0004 45.378 47.9423 47.3468 46.3912 48.8899C46.2194 49.0394 46.0073 49.135 45.7814 49.1646Z" fill="black"/>
<path d="M48.1538 51.537C48.0386 51.5363 47.9248 51.5115 47.8197 51.4642C47.7147 51.4169 47.6208 51.3481 47.544 51.2622C47.3827 51.1002 47.2922 50.881 47.2922 50.6524C47.2922 50.4239 47.3827 50.2046 47.544 50.0426C49.3312 48.2647 50.5504 45.9962 51.047 43.5246C51.5437 41.053 51.2954 38.4896 50.3337 36.1593C49.372 33.829 47.7402 31.8366 45.645 30.4346C43.5498 29.0327 41.0855 28.2843 38.5645 28.2843C36.0436 28.2843 33.5793 29.0327 31.4841 30.4346C29.3889 31.8366 27.7571 33.829 26.7953 36.1593C25.8336 38.4896 25.5854 41.053 26.082 43.5246C26.5787 45.9962 27.7979 48.2647 29.5851 50.0426C29.7468 50.2052 29.8373 50.4254 29.8367 50.6548C29.8361 50.8841 29.7444 51.1038 29.5818 51.2656C29.5012 51.3457 29.4057 51.4091 29.3007 51.4523C29.1957 51.4954 29.0832 51.5175 28.9696 51.5172C28.7402 51.5165 28.5205 51.4248 28.3588 51.2622C26.3413 49.2444 24.9674 46.6737 24.4109 43.8751C23.8543 41.0765 24.1402 38.1758 25.2322 35.5396C26.3242 32.9035 28.1734 30.6503 30.546 29.0651C32.9185 27.4799 35.7078 26.6338 38.5612 26.6338C41.4146 26.6338 44.2039 27.4799 46.5764 29.0651C48.9489 30.6503 50.7981 32.9035 51.8902 35.5396C52.9822 38.1758 53.268 41.0765 52.7115 43.8751C52.155 46.6737 50.7811 49.2444 48.7636 51.2622C48.6949 51.3574 48.6024 51.4329 48.4954 51.4811C48.3884 51.5293 48.2706 51.5486 48.1538 51.537Z" fill="black"/>
<path d="M26.5967 53.9094C26.4815 53.9088 26.3677 53.884 26.2626 53.8367C26.1576 53.7894 26.0637 53.7205 25.9869 53.6347C23.4961 51.141 21.8005 47.9649 21.1144 44.5078C20.4283 41.0507 20.7825 37.4678 22.1323 34.2119C23.482 30.9561 25.7667 28.1734 28.6975 26.2157C31.6283 24.258 35.0737 23.2131 38.5983 23.2131C42.1228 23.2131 45.5682 24.258 48.499 26.2157C51.4299 28.1734 53.7145 30.9561 55.0643 34.2119C56.414 37.4678 56.7682 41.0507 56.0821 44.5078C55.396 47.9649 53.7004 51.141 51.2097 53.6347C51.1296 53.7152 51.0344 53.7792 50.9296 53.8229C50.8248 53.8666 50.7124 53.8893 50.5989 53.8896C50.4853 53.8899 50.3728 53.8679 50.2678 53.8247C50.1627 53.7815 50.0672 53.7181 49.9867 53.638C49.9062 53.5579 49.8423 53.4628 49.7985 53.358C49.7548 53.2532 49.7321 53.1408 49.7318 53.0272C49.7315 52.9137 49.7535 52.8012 49.7967 52.6961C49.8399 52.5911 49.9033 52.4956 49.9834 52.4151C52.2452 50.1605 53.7871 47.2854 54.4139 44.1538C55.0407 41.0223 54.7241 37.7753 53.5043 34.8238C52.2845 31.8723 50.2164 29.3491 47.5617 27.5738C44.907 25.7984 41.7852 24.8508 38.5916 24.8508C35.3979 24.8508 32.2762 25.7984 29.6215 27.5738C26.9668 29.3491 24.8986 31.8723 23.6788 34.8238C22.459 37.7753 22.1424 41.0223 22.7692 44.1538C23.396 47.2854 24.9379 50.1605 27.1998 52.4151C27.2812 52.4944 27.346 52.5892 27.3902 52.6939C27.4344 52.7987 27.4572 52.9112 27.4572 53.0249C27.4572 53.1386 27.4344 53.2511 27.3902 53.3558C27.346 53.4606 27.2812 53.5554 27.1998 53.6347C27.1288 53.7256 27.0369 53.7981 26.9319 53.8459C26.8269 53.8937 26.7119 53.9155 26.5967 53.9094Z" fill="black"/>
<path d="M38.5977 42.7921C38.2624 42.7921 37.9346 42.6927 37.6558 42.5064C37.377 42.3201 37.1597 42.0553 37.0314 41.7455C36.9031 41.4357 36.8695 41.0949 36.9349 40.766C37.0003 40.4371 37.1618 40.135 37.3989 39.8979C37.636 39.6608 37.9381 39.4994 38.267 39.4339C38.5958 39.3685 38.9367 39.4021 39.2465 39.5304C39.5563 39.6587 39.8211 39.876 40.0074 40.1548C40.1937 40.4336 40.2931 40.7614 40.2931 41.0967C40.2958 41.3201 40.2538 41.5418 40.1695 41.7487C40.0853 41.9556 39.9605 42.1436 39.8025 42.3015C39.6446 42.4595 39.4566 42.5843 39.2497 42.6685C39.0428 42.7528 38.8211 42.7948 38.5977 42.7921Z" fill="black"/>
<path d="M31.4146 60.617C30.8248 60.617 30.2483 60.4421 29.7579 60.1145C29.2675 59.7868 28.8853 59.3211 28.6596 58.7762C28.4339 58.2313 28.3749 57.6317 28.4899 57.0533C28.605 56.4748 28.889 55.9435 29.306 55.5265C29.7231 55.1094 30.2544 54.8254 30.8328 54.7104C31.4113 54.5953 32.0109 54.6544 32.5557 54.8801C33.1006 55.1058 33.5663 55.488 33.894 55.9784C34.2217 56.4687 34.3966 57.0453 34.3966 57.635C34.3896 58.4237 34.0732 59.1782 33.5154 59.7359C32.9577 60.2936 32.2033 60.61 31.4146 60.617ZM31.4146 56.3484C31.1601 56.3484 30.9114 56.4239 30.6998 56.5653C30.4882 56.7066 30.3233 56.9076 30.2259 57.1427C30.1285 57.3778 30.1031 57.6365 30.1527 57.886C30.2024 58.1356 30.3249 58.3649 30.5048 58.5448C30.6848 58.7247 30.914 58.8473 31.1636 58.8969C31.4132 58.9466 31.6719 58.9211 31.907 58.8237C32.142 58.7263 32.343 58.5614 32.4844 58.3498C32.6257 58.1383 32.7012 57.8895 32.7012 57.635C32.6994 57.2944 32.5633 56.9681 32.3224 56.7272C32.0815 56.4863 31.7553 56.3502 31.4146 56.3484Z" fill="black"/>
<path d="M54.7337 27.5405C54.0614 27.5485 53.4019 27.3564 52.8391 26.9887C52.2762 26.621 51.8353 26.0943 51.5725 25.4755C51.3097 24.8566 51.2368 24.1736 51.3631 23.5133C51.4893 22.8529 51.809 22.245 52.2816 21.7667C52.7542 21.2885 53.3582 20.9616 54.017 20.8274C54.6759 20.6933 55.3597 20.7581 55.9816 21.0135C56.6035 21.2689 57.1355 21.7034 57.5099 22.2619C57.8842 22.8203 58.0842 23.4774 58.0842 24.1498C58.0825 25.0416 57.7303 25.897 57.1034 26.5314C56.4766 27.1658 55.6254 27.5282 54.7337 27.5405ZM54.7337 22.4544C54.3981 22.4531 54.0697 22.5514 53.79 22.7369C53.5103 22.9224 53.2919 23.1867 53.1626 23.4963C53.0332 23.806 52.9987 24.1471 53.0634 24.4764C53.128 24.8057 53.289 25.1084 53.5258 25.3462C53.7626 25.584 54.0647 25.7461 54.3938 25.8121C54.7228 25.878 55.064 25.8448 55.3742 25.7167C55.6844 25.5886 55.9496 25.3713 56.1362 25.0924C56.3227 24.8134 56.4223 24.4854 56.4223 24.1498C56.4172 23.7029 56.2378 23.2757 55.9224 22.9591C55.607 22.6424 55.1805 22.4614 54.7337 22.4544Z" fill="black"/>
</g>
</svg>
