<svg width="84" height="84" viewBox="0 0 84 84" fill="none" xmlns="http://www.w3.org/2000/svg">
<g opacity="0.3">
<path d="M42 21C37.8466 21 33.7864 22.2316 30.333 24.5391C26.8796 26.8467 24.188 30.1264 22.5985 33.9636C21.0091 37.8009 20.5932 42.0233 21.4035 46.0969C22.2138 50.1705 24.2139 53.9123 27.1508 56.8492C30.0877 59.7861 33.8295 61.7862 37.9031 62.5965C41.9767 63.4068 46.1991 62.9909 50.0364 61.4015C53.8736 59.812 57.1533 57.1204 59.4609 53.667C61.7684 50.2136 63 46.1534 63 42C62.9978 36.4311 60.7846 31.091 56.8468 27.1532C52.909 23.2154 47.5688 21.0022 42 21Z" fill="white"/>
<path d="M57.7936 41.9998C57.8359 45.6666 56.6042 49.2345 54.3088 52.0943C52.0134 54.9541 48.7967 56.9286 45.2076 57.6807C41.6185 58.4329 37.8796 57.9161 34.6291 56.2185C31.3786 54.521 28.8181 51.7479 27.3846 48.3726C25.951 44.9974 25.7334 41.2292 26.7687 37.7113C27.8041 34.1935 30.0284 31.144 33.0618 29.0835C36.0952 27.023 39.7497 26.0791 43.4015 26.413C47.0533 26.7469 50.4761 28.3379 53.0855 30.9144C54.5866 32.342 55.779 34.0623 56.5888 35.969C57.3986 37.8757 57.8087 39.9283 57.7936 41.9998Z" fill="#A7C7FC"/>
<path d="M58.7984 60.8991C59.2139 60.8991 59.6201 61.0223 59.9655 61.2531C60.311 61.484 60.5803 61.8121 60.7393 62.196C60.8983 62.5798 60.9399 63.0022 60.8589 63.4097C60.7778 63.8173 60.5777 64.1916 60.2839 64.4854C59.9901 64.7792 59.6157 64.9793 59.2082 65.0604C58.8007 65.1415 58.3783 65.0998 57.9944 64.9408C57.6106 64.7818 57.2824 64.5126 57.0516 64.1671C56.8208 63.8216 56.6975 63.4154 56.6975 62.9999C56.6942 62.7231 56.7463 62.4484 56.8506 62.192C56.955 61.9356 57.1097 61.7027 57.3054 61.507C57.5012 61.3112 57.7341 61.1566 57.9905 61.0522C58.2469 60.9478 58.5216 60.8957 58.7984 60.8991Z" fill="white"/>
<path d="M23.6074 19.9951C24.1234 19.9951 24.6278 20.1483 25.0568 20.4351C25.4857 20.722 25.8199 21.1297 26.017 21.6066C26.2141 22.0836 26.2653 22.6082 26.164 23.1142C26.0627 23.6202 25.8136 24.0848 25.4481 24.4491C25.0826 24.8134 24.6172 25.0611 24.1109 25.1607C23.6046 25.2604 23.0801 25.2076 22.6038 25.009C22.1275 24.8104 21.7209 24.4749 21.4354 24.045C21.1499 23.6151 20.9984 23.1102 21 22.5942C21.0022 21.9041 21.2779 21.243 21.7666 20.7558C22.2554 20.2687 22.9173 19.9951 23.6074 19.9951Z" fill="white"/>
<path d="M42 39.8991C42.4155 39.8991 42.8217 40.0223 43.1672 40.2531C43.5127 40.484 43.7819 40.812 43.9409 41.1959C44.0999 41.5798 44.1415 42.0022 44.0605 42.4097C43.9794 42.8173 43.7793 43.1916 43.4855 43.4854C43.1917 43.7792 42.8174 43.9793 42.4099 44.0603C42.0023 44.1414 41.5799 44.0998 41.196 43.9408C40.8122 43.7818 40.4841 43.5126 40.2533 43.1671C40.0224 42.8216 39.8992 42.4154 39.8992 41.9999C39.8959 41.7231 39.9479 41.4484 40.0523 41.192C40.1567 40.9356 40.3113 40.7027 40.5071 40.507C40.7028 40.3112 40.9357 40.1566 41.1921 40.0522C41.4485 39.9478 41.7232 39.8957 42 39.8991Z" fill="white"/>
<path d="M64.0961 27.3022C64.3133 27.3023 64.5255 27.3668 64.7059 27.4876C64.8864 27.6084 65.0268 27.7801 65.1095 27.9808C65.1922 28.1816 65.2134 28.4024 65.1705 28.6153C65.1275 28.8281 65.0223 29.0234 64.8682 29.1764C64.714 29.3293 64.5179 29.433 64.3048 29.4744C64.0916 29.5157 63.871 29.4929 63.6709 29.4086C63.4707 29.3244 63.3001 29.1826 63.1807 29.0012C63.0613 28.8199 62.9984 28.6072 63 28.3901C63.0044 28.1015 63.1215 27.8261 63.3263 27.6228C63.5312 27.4195 63.8075 27.3044 64.0961 27.3022Z" fill="black"/>
<path d="M64.0962 54.5967C64.3129 54.5967 64.5248 54.6609 64.7051 54.7814C64.8853 54.9018 65.0258 55.073 65.1088 55.2733C65.1917 55.4736 65.2135 55.694 65.1712 55.9066C65.1289 56.1192 65.0245 56.3145 64.8712 56.4678C64.7179 56.6211 64.5226 56.7255 64.31 56.7678C64.0974 56.8101 63.8769 56.7884 63.6767 56.7054C63.4764 56.6224 63.3052 56.482 63.1847 56.3017C63.0643 56.1215 63.0001 55.9095 63.0001 55.6927C63.0043 55.4034 63.1212 55.127 63.3258 54.9224C63.5305 54.7178 63.8068 54.601 64.0962 54.5967Z" fill="black"/>
<path d="M56.6975 17.8943C56.915 17.8927 57.1281 17.9558 57.3096 18.0756C57.4911 18.1954 57.6329 18.3664 57.7169 18.5671C57.8008 18.7677 57.8232 18.9888 57.7812 19.2022C57.7392 19.4155 57.6346 19.6116 57.4808 19.7654C57.327 19.9192 57.1309 20.0237 56.9176 20.0658C56.7042 20.1078 56.4831 20.0854 56.2825 20.0014C56.0819 19.9174 55.9108 19.7756 55.7909 19.5941C55.6711 19.4126 55.6081 19.1996 55.6097 18.9821C55.6119 18.6943 55.7272 18.4189 55.9307 18.2153C56.1343 18.0118 56.4097 17.8965 56.6975 17.8943Z" fill="black"/>
<path d="M26.2894 62.9998C26.5066 62.9981 26.7193 63.061 26.9007 63.1805C27.082 63.2999 27.2238 63.4705 27.308 63.6706C27.3922 63.8707 27.4151 64.0914 27.3738 64.3045C27.3324 64.5177 27.2287 64.7138 27.0757 64.8679C26.9228 65.022 26.7275 65.1273 26.5147 65.1702C26.3018 65.2132 26.081 65.192 25.8802 65.1093C25.6795 65.0265 25.5078 64.8861 25.387 64.7057C25.2661 64.5253 25.2017 64.313 25.2017 64.0959C25.2079 63.8086 25.3243 63.5346 25.5267 63.3306C25.7292 63.1267 26.0022 63.0082 26.2894 62.9998Z" fill="black"/>
<path d="M19.9953 28.3901C20.212 28.3901 20.424 28.4544 20.6043 28.5748C20.7845 28.6953 20.925 28.8665 21.0079 29.0667C21.0909 29.267 21.1126 29.4874 21.0703 29.7001C21.028 29.9127 20.9236 30.108 20.7703 30.2613C20.617 30.4145 20.4217 30.5189 20.2091 30.5612C19.9965 30.6035 19.7761 30.5818 19.5758 30.4988C19.3755 30.4159 19.2043 30.2754 19.0839 30.0952C18.9635 29.9149 18.8992 29.703 18.8992 29.4862C18.9035 29.1968 19.0203 28.9205 19.225 28.7159C19.4296 28.5112 19.7059 28.3944 19.9953 28.3901Z" fill="black"/>
<path d="M19.9953 54.5967C20.212 54.5967 20.424 54.6609 20.6043 54.7814C20.7845 54.9018 20.925 55.073 21.0079 55.2733C21.0909 55.4736 21.1126 55.694 21.0703 55.9066C21.028 56.1192 20.9236 56.3145 20.7703 56.4678C20.617 56.6211 20.4217 56.7255 20.2091 56.7678C19.9965 56.8101 19.7761 56.7884 19.5758 56.7054C19.3755 56.6224 19.2043 56.482 19.0839 56.3017C18.9635 56.1215 18.8992 55.9095 18.8992 55.6927C18.9035 55.4034 19.0203 55.127 19.225 54.9224C19.4296 54.7178 19.7059 54.601 19.9953 54.5967Z" fill="black"/>
<path d="M42 64.0959C37.6416 64.0877 33.3833 62.7883 29.7628 60.3618C26.1423 57.9352 23.322 54.4904 21.6579 50.4621C19.9938 46.4339 19.5605 42.0029 20.4128 37.7286C21.2651 33.4543 23.3647 29.5283 26.4466 26.4464C29.5285 23.3645 33.4545 21.2649 37.7288 20.4126C42.003 19.5603 46.4341 19.9936 50.4623 21.6577C54.4906 23.3218 57.9354 26.1421 60.3619 29.7626C62.7885 33.3831 64.0879 37.6414 64.0961 41.9998C64.0895 47.858 61.7594 53.4745 57.617 57.6168C53.4746 61.7592 47.8582 64.0893 42 64.0959ZM42 22.0959C38.0613 22.109 34.2148 23.289 30.9463 25.4868C27.6778 27.6845 25.1338 30.8016 23.6356 34.4442C22.1374 38.0869 21.7522 42.0918 22.5287 45.9532C23.3051 49.8147 25.2084 53.3594 27.9981 56.1399C30.7878 58.9203 34.3389 60.8117 38.2029 61.5753C42.0669 62.3389 46.0705 61.9404 49.7081 60.4301C53.3458 58.9198 56.4543 56.3655 58.6412 53.0897C60.8281 49.8138 61.9952 45.9635 61.9953 42.0247C61.9559 36.7438 59.8332 31.6919 56.0888 27.9677C52.3444 24.2436 47.2811 22.1482 42 22.1374V22.0959Z" fill="black"/>
<path d="M42 58.7983C38.08 58.8334 34.2695 57.5064 31.2191 55.0442C28.1688 52.5819 26.0679 49.1371 25.2752 45.298C24.4825 41.4588 25.0473 37.4636 26.873 33.9946C28.6987 30.5256 31.6721 27.798 35.2854 26.2776C38.8987 24.7573 42.9277 24.5386 46.6844 25.6588C50.441 26.779 53.6923 29.1686 55.8828 32.4196C58.0733 35.6706 59.0673 39.5812 58.6949 43.4836C58.3225 47.386 56.6069 51.0381 53.841 53.8161C52.301 55.3965 50.4595 56.6518 48.4256 57.5076C46.3917 58.3634 44.2066 58.8023 42 58.7983ZM42 27.3024C38.6179 27.318 35.3457 28.5049 32.74 30.661C30.1343 32.8171 28.3561 35.8094 27.7078 39.1288C27.0595 42.4482 27.5812 45.8897 29.1842 48.8678C30.7871 51.8459 33.3724 54.1767 36.5001 55.4637C39.6277 56.7507 43.1047 56.9144 46.3394 55.9269C49.5741 54.9394 52.3669 52.8618 54.2425 50.0474C56.1182 47.2331 56.9609 43.8559 56.6273 40.4902C56.2937 37.1246 54.8045 33.9785 52.4128 31.5871C51.0476 30.2187 49.4239 29.1353 47.6364 28.3997C45.8488 27.6642 43.9329 27.2912 42 27.3024Z" fill="black"/>
<path d="M42 45.1885C41.3693 45.1885 40.7529 45.0015 40.2285 44.6511C39.7041 44.3007 39.2955 43.8028 39.0541 43.2201C38.8128 42.6375 38.7496 41.9963 38.8727 41.3778C38.9957 40.7593 39.2994 40.1911 39.7453 39.7452C40.1912 39.2993 40.7594 38.9956 41.3779 38.8726C41.9964 38.7495 42.6376 38.8127 43.2202 39.054C43.8029 39.2953 44.3009 39.704 44.6512 40.2284C45.0016 40.7528 45.1886 41.3692 45.1886 41.9999C45.1886 42.4186 45.1061 42.8333 44.9459 43.2201C44.7857 43.607 44.5508 43.9585 44.2547 44.2546C43.9586 44.5507 43.6071 44.7855 43.2202 44.9458C42.8334 45.106 42.4187 45.1885 42 45.1885ZM42 41.0367C41.7268 41.0605 41.4725 41.1858 41.2872 41.388C41.102 41.5901 40.9992 41.8544 40.9992 42.1286C40.9992 42.4028 41.102 42.667 41.2872 42.8692C41.4725 43.0713 41.7268 43.1967 42 43.2205C42.2887 43.2142 42.5638 43.0967 42.768 42.8925C42.9722 42.6883 43.0897 42.4131 43.0961 42.1244C43.1067 41.9762 43.086 41.8274 43.0351 41.6878C42.9842 41.5482 42.9044 41.4209 42.801 41.3143C42.6975 41.2077 42.5726 41.1241 42.4346 41.0691C42.2965 41.0141 42.1484 40.9889 42 40.9951V41.0367Z" fill="black"/>
<path d="M23.6074 26.2895C22.8765 26.2895 22.1621 26.0728 21.5545 25.6667C20.9468 25.2607 20.4732 24.6836 20.1935 24.0084C19.9138 23.3332 19.8407 22.5902 19.9832 21.8734C20.1258 21.1566 20.4777 20.4982 20.9945 19.9815C21.5113 19.4647 22.1697 19.1127 22.8865 18.9702C23.6033 18.8276 24.3462 18.9008 25.0214 19.1804C25.6966 19.4601 26.2737 19.9337 26.6797 20.5414C27.0858 21.1491 27.3025 21.8635 27.3025 22.5943C27.2938 23.5716 26.9017 24.5065 26.2106 25.1976C25.5195 25.8887 24.5847 26.2808 23.6074 26.2895ZM23.6074 21C23.2921 21 22.9838 21.0935 22.7216 21.2687C22.4594 21.4439 22.2551 21.6929 22.1344 21.9842C22.0137 22.2755 21.9822 22.5961 22.0437 22.9053C22.1052 23.2146 22.257 23.4987 22.48 23.7217C22.703 23.9446 22.9871 24.0965 23.2963 24.158C23.6056 24.2195 23.9262 24.1879 24.2175 24.0673C24.5088 23.9466 24.7578 23.7423 24.933 23.4801C25.1081 23.2179 25.2017 22.9096 25.2017 22.5943C25.2086 22.3831 25.1721 22.1727 25.0944 21.9761C25.0168 21.7795 24.8996 21.601 24.7501 21.4515C24.6007 21.3021 24.4222 21.1849 24.2256 21.1073C24.029 21.0296 23.8186 20.9931 23.6074 21Z" fill="black"/>
<path d="M58.7984 66.1885C58.1681 66.1869 57.5524 65.9985 57.0291 65.6471C56.5058 65.2957 56.0984 64.7972 55.8584 64.2144C55.6183 63.6316 55.5564 62.9907 55.6803 62.3727C55.8043 61.7547 56.1086 61.1874 56.5549 60.7423C57.0012 60.2972 57.5693 59.9943 58.1877 59.8719C58.806 59.7496 59.4466 59.8132 60.0288 60.0548C60.6109 60.2964 61.1084 60.7051 61.4584 61.2292C61.8084 61.7534 61.9953 62.3696 61.9953 62.9999C61.9953 63.4193 61.9125 63.8346 61.7517 64.222C61.591 64.6094 61.3554 64.9613 61.0584 65.2575C60.7614 65.5537 60.4089 65.7884 60.0211 65.9482C59.6333 66.1079 59.2178 66.1896 58.7984 66.1885ZM58.7984 62.0367C58.5252 62.0605 58.2709 62.1859 58.0856 62.388C57.9004 62.5902 57.7976 62.8544 57.7976 63.1286C57.7976 63.4028 57.9004 63.6671 58.0856 63.8692C58.2709 64.0713 58.5252 64.1967 58.7984 64.2205C58.9498 64.2337 59.1022 64.2153 59.2461 64.1664C59.39 64.1176 59.5222 64.0393 59.6343 63.9367C59.7463 63.834 59.8357 63.7091 59.8969 63.57C59.9581 63.4309 59.9897 63.2806 59.9897 63.1286C59.9897 62.9766 59.9581 62.8263 59.8969 62.6872C59.8357 62.5481 59.7463 62.4233 59.6343 62.3206C59.5222 62.2179 59.39 62.1396 59.2461 62.0907C59.1022 62.0419 58.9498 62.0234 58.7984 62.0367Z" fill="black"/>
<path d="M42 30.6571C41.7128 30.6528 41.4387 30.5369 41.2356 30.3338C41.0325 30.1307 40.9165 29.8565 40.9122 29.5694V26.2064C40.9361 25.9332 41.0615 25.6789 41.2636 25.4936C41.4658 25.3084 41.73 25.2056 42.0042 25.2056C42.2784 25.2056 42.5426 25.3084 42.7448 25.4936C42.9469 25.6789 43.0723 25.9332 43.0961 26.2064V29.6109C43.0951 29.7522 43.0657 29.8919 43.0096 30.0217C42.9536 30.1514 42.872 30.2686 42.7697 30.3662C42.6675 30.4638 42.5467 30.5399 42.4144 30.5898C42.2822 30.6398 42.1413 30.6627 42 30.6571Z" fill="black"/>
<path d="M42 58.7982C41.7128 58.794 41.4387 58.678 41.2356 58.4749C41.0325 58.2718 40.9165 57.9976 40.9122 57.7105V54.3474C40.9361 54.0743 41.0615 53.82 41.2636 53.6347C41.4658 53.4494 41.73 53.3467 42.0042 53.3467C42.2784 53.3467 42.5426 53.4494 42.7448 53.6347C42.9469 53.82 43.0723 54.0743 43.0961 54.3474V57.7105C43.0897 57.9984 42.9719 58.2726 42.7675 58.4755C42.5631 58.6783 42.288 58.794 42 58.7982Z" fill="black"/>
<path d="M50.7355 34.2691C50.5934 34.2688 50.453 34.2392 50.3229 34.182C50.1929 34.1249 50.0761 34.0414 49.9799 33.9369C49.8789 33.8387 49.7987 33.7212 49.7439 33.5914C49.6891 33.4616 49.6609 33.3221 49.6609 33.1813C49.6609 33.0404 49.6891 32.901 49.7439 32.7712C49.7987 32.6414 49.8789 32.5239 49.9799 32.4257L52.3298 30.0757C52.434 29.981 52.5561 29.908 52.6888 29.8609C52.8215 29.8137 52.9622 29.7934 53.1028 29.8012C53.2434 29.8089 53.3811 29.8445 53.5078 29.9059C53.6346 29.9673 53.7478 30.0532 53.8411 30.1587C53.9358 30.2547 54.0093 30.3695 54.0569 30.4957C54.1045 30.6219 54.125 30.7567 54.1172 30.8913C54.1093 31.026 54.0733 31.1574 54.0114 31.2773C53.9496 31.3971 53.8633 31.5026 53.758 31.587L51.4081 33.9369C51.325 34.186 50.9846 34.2691 50.7355 34.2691Z" fill="black"/>
<path d="M30.8316 54.1813C30.5834 54.1897 30.3418 54.1002 30.159 53.9322C29.9632 53.732 29.8468 53.4676 29.8316 53.188C29.8163 52.9085 29.9031 52.6329 30.0759 52.4126L32.4259 50.0627C32.6305 49.8845 32.8951 49.7906 33.1663 49.8C33.4374 49.8093 33.6949 49.9212 33.8867 50.1131C34.0786 50.3049 34.1905 50.5624 34.1999 50.8336C34.2092 51.1048 34.1153 51.3693 33.9372 51.574L31.5872 53.9322C31.378 54.1115 31.1064 54.201 30.8316 54.1813Z" fill="black"/>
<path d="M33.2646 34.2692C33.1225 34.269 32.982 34.2394 32.852 34.1822C32.7219 34.125 32.6051 34.0416 32.5089 33.9371L30.159 31.5871C29.9808 31.3825 29.8869 31.1179 29.8963 30.8468C29.9056 30.5756 30.0175 30.3181 30.2094 30.1262C30.4012 29.9344 30.6587 29.8225 30.9299 29.8131C31.201 29.8038 31.4656 29.8977 31.6702 30.0759L34.0202 32.4258C34.1211 32.5241 34.2014 32.6416 34.2562 32.7714C34.3109 32.9012 34.3391 33.0406 34.3391 33.1814C34.3391 33.3223 34.3109 33.4618 34.2562 33.5916C34.2014 33.7213 34.1211 33.8388 34.0202 33.9371C33.924 34.0416 33.8072 34.125 33.6771 34.1822C33.5471 34.2394 33.4066 34.269 33.2646 34.2692Z" fill="black"/>
<path d="M53.1768 54.1815C53.0327 54.1814 52.8903 54.151 52.7587 54.0923C52.6271 54.0337 52.5093 53.9481 52.4129 53.8411L50.0629 51.4911C49.8631 51.2904 49.751 51.0187 49.751 50.7355C49.751 50.4523 49.8631 50.1806 50.0629 49.9799C50.1612 49.8789 50.2787 49.7987 50.4085 49.7439C50.5383 49.6891 50.6777 49.6609 50.8185 49.6609C50.9594 49.6609 51.0989 49.6891 51.2286 49.7439C51.3584 49.7987 51.4759 49.8789 51.5742 49.9799L53.9324 52.3298C54.1322 52.5305 54.2444 52.8022 54.2444 53.0854C54.2444 53.3687 54.1322 53.6403 53.9324 53.8411C53.8372 53.9475 53.7209 54.0327 53.5907 54.0914C53.4606 54.15 53.3196 54.1807 53.1768 54.1815Z" fill="black"/>
<path d="M57.7936 43.096H54.4306C54.1575 43.0721 53.9032 42.9468 53.7179 42.7447C53.5326 42.5425 53.4298 42.2782 53.4298 42.004C53.4298 41.7298 53.5326 41.4656 53.7179 41.2635C53.9032 41.0613 54.1575 40.936 54.4306 40.9121H57.7936C58.0808 40.9164 58.355 41.0324 58.558 41.2355C58.7611 41.4385 58.8771 41.7127 58.8814 41.9999C58.8498 42.2783 58.7252 42.538 58.5278 42.7369C58.3304 42.9357 58.0718 43.0623 57.7936 43.096Z" fill="black"/>
<path d="M29.6524 43.096H26.331C26.0578 43.0721 25.8035 42.9468 25.6182 42.7447C25.433 42.5425 25.3302 42.2782 25.3302 42.004C25.3302 41.7298 25.433 41.4656 25.6182 41.2635C25.8035 41.0613 26.0578 40.936 26.331 40.9121H29.6524C29.9404 40.9163 30.2155 41.032 30.4199 41.2349C30.6243 41.4378 30.7421 41.712 30.7485 41.9999C30.7274 42.2836 30.6052 42.5503 30.404 42.7514C30.2028 42.9526 29.9361 43.0749 29.6524 43.096Z" fill="black"/>
<path d="M42 40.9951C41.7121 40.9887 41.4379 40.8709 41.235 40.6664C41.0322 40.462 40.9165 40.1869 40.9122 39.899V33.5965C40.9361 33.3233 41.0615 33.069 41.2636 32.8837C41.4658 32.6985 41.73 32.5957 42.0042 32.5957C42.2784 32.5957 42.5426 32.6985 42.7448 32.8837C42.9469 33.069 43.0723 33.3233 43.0961 33.5965V39.899C43.0898 40.1877 42.9722 40.4628 42.768 40.667C42.5638 40.8712 42.2887 40.9887 42 40.9951Z" fill="black"/>
<path d="M47.2894 43.096H44.1008C43.9494 43.1092 43.7969 43.0908 43.653 43.0419C43.5091 42.993 43.377 42.9148 43.265 42.8121C43.1529 42.7094 43.0634 42.5845 43.0022 42.4454C42.941 42.3063 42.9094 42.156 42.9094 42.004C42.9094 41.8521 42.941 41.7018 43.0022 41.5627C43.0634 41.4236 43.1529 41.2987 43.265 41.196C43.377 41.0933 43.5091 41.0151 43.653 40.9662C43.7969 40.9173 43.9494 40.8989 44.1008 40.9121H47.2894C47.5774 40.9163 47.8525 41.032 48.0569 41.2349C48.2613 41.4378 48.3791 41.712 48.3855 41.9999C48.3536 42.2796 48.2278 42.5402 48.0288 42.7392C47.8297 42.9383 47.5691 43.064 47.2894 43.096Z" fill="black"/>
</g>
</svg>
