<svg width="102" height="102" viewBox="0 0 102 102" fill="none" xmlns="http://www.w3.org/2000/svg">
<g opacity="0.3">
<path d="M65.75 75.8699L50.58 65.7499L35.41 75.8699V34.1199H65.75V75.8699Z" fill="#EC8E37"/>
<path d="M75.87 40.5698C76.6097 40.5698 77.3328 40.7892 77.9478 41.2001C78.5629 41.6111 79.0422 42.1952 79.3253 42.8786C79.6084 43.562 79.6824 44.314 79.5381 45.0394C79.3938 45.7649 79.0376 46.4314 78.5146 46.9544C77.9915 47.4775 77.3251 47.8337 76.5996 47.978C75.8741 48.1223 75.1221 48.0482 74.4387 47.7652C73.7554 47.4821 73.1713 47.0027 72.7603 46.3876C72.3493 45.7726 72.13 45.0495 72.13 44.3098C72.1287 43.8183 72.2245 43.3314 72.412 42.877C72.5995 42.4227 72.8749 42.0099 73.2225 41.6623C73.57 41.3148 73.9828 41.0393 74.4372 40.8518C74.8915 40.6643 75.3785 40.5685 75.87 40.5698Z" fill="white"/>
<path d="M26.6 54.4199C27.1008 54.418 27.5909 54.5647 28.0083 54.8415C28.4257 55.1182 28.7515 55.5127 28.9445 55.9748C29.1375 56.4369 29.1891 56.946 29.0926 57.4374C28.9961 57.9288 28.7559 58.3805 28.4025 58.7354C28.0491 59.0902 27.5983 59.3321 27.1073 59.4306C26.6162 59.529 26.107 59.4795 25.6441 59.2883C25.1813 59.0971 24.7855 58.7729 24.5071 58.3566C24.2286 57.9403 24.08 57.4508 24.08 56.95C24.0773 56.6178 24.1406 56.2885 24.2662 55.981C24.3918 55.6735 24.5772 55.3939 24.8116 55.1586C25.046 54.9233 25.3248 54.7368 25.6317 54.61C25.9387 54.4832 26.2678 54.4186 26.6 54.4199Z" fill="white"/>
<path d="M65.76 29.1299H35.41V34.1899H65.76V29.1299Z" fill="white"/>
<path d="M65.76 24.0798H35.41V29.1398H65.76V24.0798Z" fill="white"/>
<path d="M59.28 47.9499L53.92 51.8899L55.94 58.1699L50.58 54.3199L45.22 58.1699L47.24 51.8899L41.88 47.9499H48.56L50.58 41.6799L52.6 47.9499H59.28Z" fill="white"/>
<path d="M76.78 29.4398C76.9044 29.5568 77.004 29.6977 77.0727 29.8541C77.1414 30.0104 77.1779 30.179 77.18 30.3498C77.1894 30.5222 77.1581 30.6945 77.0886 30.8526C77.0192 31.0107 76.9134 31.1502 76.78 31.2598C76.6623 31.3834 76.5213 31.4823 76.3651 31.551C76.2089 31.6196 76.0406 31.6566 75.87 31.6598C75.5232 31.6547 75.1919 31.5154 74.9457 31.2711C74.6996 31.0268 74.5577 30.6965 74.55 30.3498C74.5417 30.1765 74.5746 30.0038 74.6458 29.8456C74.7171 29.6875 74.8247 29.5484 74.96 29.4398C75.0765 29.314 75.2171 29.2129 75.3734 29.1425C75.5297 29.072 75.6986 29.0337 75.87 29.0298C76.0412 29.0348 76.2097 29.0736 76.3659 29.144C76.5221 29.2143 76.6628 29.3149 76.78 29.4398Z" fill="black"/>
<path d="M76.78 66.12C76.9044 66.237 77.004 66.3779 77.0727 66.5342C77.1415 66.6906 77.1779 66.8592 77.18 67.03C77.1894 67.2024 77.1581 67.3747 77.0887 67.5328C77.0192 67.6909 76.9134 67.8304 76.78 67.94C76.6623 68.0635 76.5213 68.1625 76.3651 68.2311C76.2089 68.2998 76.0406 68.3368 75.87 68.34C75.5232 68.3349 75.1919 68.1955 74.9457 67.9512C74.6996 67.7069 74.5577 67.3767 74.55 67.03C74.5425 66.8568 74.5757 66.6843 74.6469 66.5263C74.7181 66.3683 74.8254 66.2291 74.96 66.12C75.0765 65.9942 75.2171 65.8931 75.3734 65.8226C75.5297 65.7522 75.6986 65.7139 75.87 65.71C76.0432 65.7026 76.2157 65.7357 76.3737 65.8069C76.5317 65.8781 76.6709 65.9853 76.78 66.12Z" fill="black"/>
<path d="M72.94 53.5099C73.1877 53.7489 73.3314 54.0758 73.34 54.4199C73.3584 54.5933 73.3312 54.7685 73.2611 54.9281C73.1909 55.0877 73.0802 55.2263 72.94 55.3299C72.8235 55.4557 72.6829 55.5568 72.5266 55.6272C72.3703 55.6976 72.2014 55.736 72.03 55.7399C71.6823 55.7322 71.351 55.5907 71.1051 55.3448C70.8592 55.0989 70.7176 54.7675 70.71 54.4199C70.7017 54.2466 70.7346 54.0739 70.8058 53.9157C70.8771 53.7576 70.9847 53.6185 71.12 53.5099C71.237 53.3854 71.3779 53.2859 71.5342 53.2172C71.6906 53.1484 71.8592 53.1119 72.03 53.1099C72.2034 53.0914 72.3786 53.1186 72.5382 53.1888C72.6978 53.2589 72.8363 53.3697 72.94 53.5099Z" fill="black"/>
<path d="M55.23 38.3399C55.3567 38.4557 55.4584 38.5961 55.5289 38.7526C55.5994 38.9091 55.6372 39.0783 55.64 39.2499C55.6491 39.4233 55.6166 39.5964 55.5453 39.7546C55.474 39.9129 55.3659 40.0518 55.23 40.1599C55.1135 40.2857 54.9729 40.3868 54.8166 40.4573C54.6603 40.5277 54.4914 40.566 54.32 40.5699C53.9733 40.5622 53.643 40.4204 53.3987 40.1742C53.1544 39.928 53.0151 39.5967 53.01 39.2499C53.0006 39.0775 53.0318 38.9053 53.1013 38.7472C53.1708 38.5891 53.2766 38.4495 53.41 38.3399C53.5277 38.2164 53.6687 38.1174 53.8249 38.0488C53.9811 37.9801 54.1494 37.9431 54.32 37.9399C54.4934 37.9215 54.6686 37.9487 54.8282 38.0189C54.9878 38.089 55.1263 38.1997 55.23 38.3399Z" fill="black"/>
<path d="M54.04 73.7499C54.1644 73.8669 54.264 74.0078 54.3327 74.1642C54.4015 74.3205 54.4379 74.4891 54.44 74.6599C54.4479 74.8321 54.4159 75.0039 54.3465 75.1617C54.2771 75.3196 54.1722 75.4593 54.04 75.5699C53.9223 75.6935 53.7813 75.7924 53.6251 75.8611C53.4689 75.9297 53.3006 75.9667 53.13 75.9699C52.7832 75.9648 52.4519 75.8254 52.2058 75.5811C51.9596 75.3368 51.8177 75.0066 51.81 74.6599C51.7992 74.4863 51.831 74.3127 51.9024 74.1541C51.9738 73.9956 52.0828 73.8569 52.22 73.7499C52.335 73.6223 52.4753 73.5199 52.6319 73.4493C52.7886 73.3787 52.9582 73.3414 53.13 73.3399C53.3043 73.3225 53.4801 73.3513 53.6398 73.4232C53.7995 73.4952 53.9375 73.6079 54.04 73.7499Z" fill="black"/>
<path d="M31.26 66.1199C31.3844 66.2368 31.484 66.3777 31.5527 66.5341C31.6214 66.6905 31.6579 66.859 31.66 67.0298C31.6694 67.2023 31.6381 67.3745 31.5686 67.5326C31.4992 67.6907 31.3934 67.8302 31.26 67.9399C31.1423 68.0634 31.0013 68.1623 30.8451 68.231C30.6889 68.2997 30.5206 68.3367 30.35 68.3398C30.0196 68.3338 29.7032 68.2059 29.4614 67.9807C29.2196 67.7555 29.0695 67.4489 29.04 67.1199C29.0309 66.9465 29.0634 66.7734 29.1347 66.6152C29.206 66.4569 29.3141 66.318 29.45 66.2099C29.5665 66.0841 29.7071 65.983 29.8634 65.9125C30.0197 65.8421 30.1886 65.8038 30.36 65.7998C30.5244 65.7828 30.6905 65.8027 30.8462 65.8581C31.0019 65.9134 31.1433 66.0029 31.26 66.1199Z" fill="black"/>
<path d="M29.94 43.3999C30.0676 43.5149 30.17 43.6552 30.2406 43.8118C30.3112 43.9685 30.3484 44.1381 30.35 44.3099C30.3591 44.4832 30.3266 44.6563 30.2553 44.8146C30.1839 44.9729 30.0759 45.1118 29.94 45.2198C29.7511 45.3786 29.5207 45.4799 29.276 45.5117C29.0314 45.5434 28.7827 45.5044 28.5596 45.3991C28.3365 45.2939 28.1482 45.1268 28.0171 44.9178C27.886 44.7088 27.8176 44.4666 27.82 44.2198C27.8097 44.0473 27.8407 43.8748 27.9102 43.7166C27.9798 43.5584 28.0859 43.419 28.22 43.3099C28.4676 43.0733 28.7887 42.9287 29.13 42.8999C29.4521 42.9618 29.7403 43.1397 29.94 43.3999Z" fill="black"/>
<path d="M26.2 26.91C26.3244 27.027 26.424 27.1679 26.4927 27.3242C26.5614 27.4806 26.5979 27.6492 26.6 27.82C26.6094 27.9924 26.5781 28.1647 26.5086 28.3228C26.4392 28.4808 26.3334 28.6203 26.2 28.73C26.0823 28.8535 25.9413 28.9525 25.7851 29.0212C25.6289 29.0898 25.4606 29.1268 25.29 29.13C24.9442 29.1248 24.614 28.9852 24.3694 28.7406C24.1248 28.496 23.9852 28.1658 23.98 27.82C23.9706 27.6476 24.0018 27.4754 24.0713 27.3173C24.1408 27.1592 24.2466 27.0196 24.38 26.91C24.4972 26.7851 24.6379 26.6846 24.7941 26.6142C24.9502 26.5438 25.1188 26.505 25.29 26.5C25.616 26.5794 25.9245 26.7183 26.2 26.91Z" fill="black"/>
<path d="M55.94 59.48C55.6905 59.4726 55.4466 59.4039 55.23 59.28L50.58 55.84L45.93 59.18C45.704 59.3276 45.4399 59.4062 45.17 59.4062C44.9001 59.4062 44.636 59.3276 44.41 59.18C44.2063 59.0101 44.0516 58.7889 43.962 58.5393C43.8723 58.2897 43.8509 58.0207 43.9 57.76L45.62 52.3L40.97 48.96C40.7663 48.7924 40.6114 48.573 40.5217 48.3249C40.432 48.0768 40.4107 47.8091 40.46 47.55C40.5428 47.2891 40.7048 47.0603 40.9233 46.8955C41.1419 46.7307 41.4063 46.6379 41.68 46.63H47.34L49.06 41.17C49.1445 40.9109 49.3072 40.6844 49.5256 40.5215C49.7441 40.3586 50.0076 40.2672 50.28 40.26C50.5522 40.2633 50.8164 40.3533 51.034 40.5169C51.2516 40.6806 51.4113 40.9093 51.49 41.17L53.21 46.63H58.87C59.1452 46.6318 59.4126 46.7223 59.6323 46.888C59.8521 47.0537 60.0126 47.2858 60.09 47.55C60.1856 47.8074 60.1868 48.0903 60.0934 48.3484C60 48.6066 59.8181 48.8234 59.58 48.96L54.93 52.3L56.65 57.76C56.7462 58.0188 56.7478 58.3033 56.6545 58.5632C56.5611 58.823 56.3789 59.0415 56.14 59.18C56.45 59.38 56.24 59.48 55.94 59.48ZM50.58 53.01C50.8297 53.0161 51.0738 53.0849 51.29 53.21L53.51 54.83L52.7 52.2C52.6038 51.9412 52.6022 51.6567 52.6955 51.3968C52.7889 51.1369 52.9711 50.9184 53.21 50.78L55.44 49.12H52.6C52.3273 49.1183 52.0625 49.0289 51.8446 48.865C51.6267 48.7011 51.4673 48.4715 51.39 48.21L50.58 45.68L49.77 48.31C49.689 48.5701 49.5289 48.7985 49.3121 48.9634C49.0952 49.1283 48.8323 49.2215 48.56 49.23H45.83L48.05 50.84C48.2537 51.0098 48.4084 51.231 48.498 51.4807C48.5877 51.7303 48.6091 51.9993 48.56 52.26L47.75 54.89L49.97 53.27C50.0366 53.1734 50.1293 53.0976 50.2373 53.0516C50.3453 53.0055 50.4641 52.9912 50.58 53.01Z" fill="black"/>
<path d="M65.75 77.1898C65.5052 77.1663 65.2673 77.0949 65.05 76.9798L50.58 67.2698L36.11 76.8798C35.9245 77.0209 35.7021 77.1054 35.4697 77.1231C35.2374 77.1408 35.0048 77.0911 34.8 76.9798C34.5878 76.8822 34.4081 76.7257 34.2823 76.5289C34.1564 76.3322 34.0897 76.1034 34.09 75.8698V34.1898C34.1187 33.8609 34.2697 33.5546 34.5131 33.3315C34.7566 33.1084 35.0748 32.9846 35.405 32.9846C35.7352 32.9846 36.0534 33.1084 36.2969 33.3315C36.5403 33.5546 36.6913 33.8609 36.72 34.1898V73.5398L49.87 64.7398C50.0777 64.593 50.3257 64.5142 50.58 64.5142C50.8343 64.5142 51.0823 64.593 51.29 64.7398L64.54 73.5398V34.1898C64.5687 33.8609 64.7197 33.5546 64.9631 33.3315C65.2066 33.1084 65.5248 32.9846 65.855 32.9846C66.1852 32.9846 66.5034 33.1084 66.7469 33.3315C66.9903 33.5546 67.1413 33.8609 67.17 34.1898V75.8698C67.1703 76.1034 67.1036 76.3322 66.9777 76.5289C66.8519 76.7257 66.6722 76.8822 66.46 76.9798C66.2347 77.0836 65.9955 77.1543 65.75 77.1898Z" fill="black"/>
<path d="M65.75 35.4099H35.41C35.0623 35.4023 34.731 35.2607 34.4851 35.0148C34.2392 34.7689 34.0976 34.4376 34.09 34.0899V29.0299C34.1187 28.7009 34.2697 28.3947 34.5131 28.1716C34.7566 27.9485 35.0748 27.8247 35.405 27.8247C35.7352 27.8247 36.0534 27.9485 36.2969 28.1716C36.5403 28.3947 36.6913 28.7009 36.72 29.0299V32.8799H64.54V29.0299C64.5687 28.7009 64.7197 28.3947 64.9631 28.1716C65.2066 27.9485 65.5248 27.8247 65.855 27.8247C66.1852 27.8247 66.5034 27.9485 66.7469 28.1716C66.9903 28.3947 67.1413 28.7009 67.17 29.0299V34.1199C67.1194 34.4662 66.9502 34.7841 66.6912 35.0194C66.4322 35.2547 66.0995 35.3927 65.75 35.4099Z" fill="black"/>
<path d="M65.75 30.3499H35.41C35.0623 30.3423 34.731 30.2007 34.4851 29.9548C34.2392 29.7089 34.0976 29.3776 34.09 29.0299V24.0299C34.0976 23.6822 34.2392 23.351 34.4851 23.105C34.731 22.8591 35.0623 22.7176 35.41 22.71H65.75C66.0977 22.7176 66.429 22.8591 66.6749 23.105C66.9208 23.351 67.0623 23.6822 67.07 24.0299V29.0299C67.0623 29.3776 66.9208 29.7089 66.6749 29.9548C66.429 30.2007 66.0977 30.3423 65.75 30.3499ZM36.75 27.8199H64.54V25.2899H36.72L36.75 27.8199Z" fill="black"/>
<path d="M43.04 40.46H35.46C35.2777 40.4759 35.094 40.4537 34.9207 40.3948C34.7474 40.336 34.5883 40.2417 34.4533 40.118C34.3184 39.9944 34.2107 39.844 34.137 39.6765C34.0633 39.509 34.0252 39.328 34.0252 39.145C34.0252 38.9619 34.0633 38.7809 34.137 38.6133C34.2107 38.4458 34.3184 38.2955 34.4533 38.1718C34.5883 38.0482 34.7474 37.9539 34.9207 37.895C35.094 37.8362 35.2777 37.814 35.46 37.83H43.04C43.2223 37.814 43.406 37.8362 43.5793 37.895C43.7526 37.9539 43.9117 38.0482 44.0466 38.1718C44.1816 38.2955 44.2893 38.4458 44.363 38.6133C44.4367 38.7809 44.4748 38.9619 44.4748 39.145C44.4748 39.328 44.4367 39.509 44.363 39.6765C44.2893 39.844 44.1816 39.9944 44.0466 40.118C43.9117 40.2417 43.7526 40.336 43.5793 40.3948C43.406 40.4537 43.2223 40.4759 43.04 40.46Z" fill="black"/>
<path d="M65.75 40.46H58.17C57.9877 40.4759 57.804 40.4537 57.6307 40.3948C57.4574 40.336 57.2983 40.2417 57.1633 40.118C57.0284 39.9944 56.9207 39.844 56.847 39.6765C56.7733 39.509 56.7352 39.328 56.7352 39.145C56.7352 38.9619 56.7733 38.7809 56.847 38.6133C56.9207 38.4458 57.0284 38.2955 57.1633 38.1718C57.2983 38.0482 57.4574 37.9539 57.6307 37.895C57.804 37.8362 57.9877 37.814 58.17 37.83H65.75C65.9323 37.814 66.116 37.8362 66.2893 37.895C66.4626 37.9539 66.6217 38.0482 66.7567 38.1718C66.8916 38.2955 66.9993 38.4458 67.073 38.6133C67.1467 38.7809 67.1848 38.9619 67.1848 39.145C67.1848 39.328 67.1467 39.509 67.073 39.6765C66.9993 39.844 66.8916 39.9944 66.7567 40.118C66.6217 40.2417 66.4626 40.336 66.2893 40.3948C66.116 40.4537 65.9323 40.4759 65.75 40.46Z" fill="black"/>
<path d="M26.6 60.7C25.8385 60.7 25.0942 60.4742 24.461 60.0512C23.8279 59.6281 23.3345 59.0268 23.0431 58.3233C22.7517 57.6198 22.6754 56.8457 22.824 56.0989C22.9725 55.3521 23.3392 54.6661 23.8776 54.1276C24.4161 53.5892 25.1021 53.2225 25.8489 53.074C26.5957 52.9254 27.3698 53.0016 28.0733 53.293C28.7768 53.5844 29.3781 54.0779 29.8012 54.7111C30.2242 55.3442 30.45 56.0885 30.45 56.85C30.4345 57.8662 30.0239 58.8366 29.3052 59.5552C28.5866 60.2739 27.6163 60.6845 26.6 60.7ZM26.6 55.64C26.3385 55.64 26.0829 55.7177 25.8656 55.8632C25.6483 56.0087 25.4792 56.2154 25.3796 56.4572C25.2799 56.699 25.2544 56.9649 25.3061 57.2212C25.3579 57.4775 25.4846 57.7127 25.6702 57.8969C25.8558 58.0811 26.092 58.2061 26.3487 58.2559C26.6054 58.3057 26.8711 58.2781 27.1121 58.1766C27.3531 58.0752 27.5586 57.9044 27.7024 57.686C27.8462 57.4677 27.922 57.2115 27.92 56.95C27.8964 56.6087 27.7494 56.2875 27.5066 56.0465C27.2637 55.8055 26.9415 55.6611 26.6 55.64Z" fill="black"/>
<path d="M75.87 49.37C74.8692 49.37 73.8909 49.0732 73.0588 48.5172C72.2267 47.9612 71.5781 47.171 71.1952 46.2464C70.8122 45.3218 70.712 44.3044 70.9072 43.3228C71.1025 42.3413 71.5844 41.4397 72.292 40.7321C72.9997 40.0244 73.9013 39.5425 74.8828 39.3472C75.8644 39.152 76.8818 39.2522 77.8064 39.6352C78.731 40.0182 79.5212 40.6667 80.0772 41.4988C80.6332 42.3309 80.93 43.3092 80.93 44.31C80.9247 45.6504 80.3899 46.9343 79.4421 47.8821C78.4943 48.8299 77.2104 49.3647 75.87 49.37ZM75.87 41.78C75.3696 41.78 74.8805 41.9284 74.4644 42.2064C74.0483 42.4844 73.7241 42.8795 73.5326 43.3418C73.3411 43.8041 73.291 44.3128 73.3886 44.8036C73.4862 45.2944 73.7272 45.7452 74.081 46.099C74.4348 46.4528 74.8856 46.6938 75.3764 46.7914C75.8672 46.889 76.3759 46.8389 76.8382 46.6474C77.3005 46.4559 77.6956 46.1316 77.9736 45.7156C78.2516 45.2995 78.4 44.8104 78.4 44.31C78.404 43.9766 78.3413 43.6458 78.2156 43.337C78.0899 43.0283 77.9037 42.7478 77.6679 42.512C77.4322 42.2763 77.1517 42.0901 76.8429 41.9643C76.5342 41.8386 76.2034 41.7759 75.87 41.78Z" fill="black"/>
</g>
</svg>
