<svg width="102" height="102" viewBox="0 0 102 102" fill="none" xmlns="http://www.w3.org/2000/svg">
<g opacity="0.3">
<path d="M22.46 71.1201C22.4525 68.2948 23.0713 65.5029 24.2718 62.9452C25.4723 60.3876 27.2248 58.1279 29.4031 56.3285C31.5813 54.5291 34.1313 53.2348 36.8696 52.5388C39.6079 51.8427 42.4664 51.7622 45.2395 52.3029C48.0126 52.8437 50.6314 53.9923 52.9076 55.6662C55.1837 57.3401 57.0606 59.4976 58.4032 61.9836C59.7458 64.4695 60.5208 67.2222 60.6724 70.0434C60.824 72.8647 60.3485 75.6846 59.28 78.3001H23.87C22.9393 76.0207 22.4604 73.5822 22.46 71.1201Z" fill="#EC8E37"/>
<path d="M41.58 52L46.33 66.06L41.58 70.81L36.82 66.06L41.58 52Z" fill="white"/>
<path d="M41.58 32.8801C43.4609 32.8801 45.2996 33.4379 46.8635 34.4829C48.4274 35.5278 49.6463 37.0131 50.3661 38.7508C51.0859 40.4886 51.2742 42.4007 50.9073 44.2455C50.5403 46.0902 49.6346 47.7847 48.3046 49.1147C46.9746 50.4447 45.2801 51.3505 43.4353 51.7174C41.5905 52.0844 39.6784 51.896 37.9407 51.1762C36.203 50.4565 34.7177 49.2375 33.6727 47.6736C32.6278 46.1097 32.07 44.271 32.07 42.3901C32.0687 41.1409 32.3138 39.9037 32.7912 38.7493C33.2687 37.5949 33.9691 36.546 34.8525 35.6626C35.7358 34.7793 36.7847 34.0788 37.9391 33.6014C39.0935 33.1239 40.3308 32.8788 41.58 32.8801Z" fill="white"/>
<path d="M25.9 27.8201C26.521 27.8201 27.1281 28.0042 27.6445 28.3493C28.1609 28.6943 28.5633 29.1847 28.801 29.7585C29.0386 30.3322 29.1008 30.9636 28.9797 31.5727C28.8585 32.1818 28.5594 32.7413 28.1203 33.1804C27.6812 33.6195 27.1217 33.9186 26.5126 34.0397C25.9035 34.1609 25.2721 34.0987 24.6984 33.8611C24.1246 33.6234 23.6342 33.2209 23.2892 32.7046C22.9442 32.1882 22.76 31.5811 22.76 30.9601C22.7626 30.1281 23.0943 29.331 23.6826 28.7427C24.2709 28.1544 25.068 27.8227 25.9 27.8201Z" fill="white"/>
<path d="M70.8101 59.48C71.5526 59.478 72.279 59.6965 72.8972 60.1078C73.5154 60.5191 73.9976 61.1047 74.2827 61.7903C74.5678 62.4759 74.6429 63.2308 74.4985 63.9591C74.3541 64.6875 73.9967 65.3566 73.4717 65.8816C72.9466 66.4067 72.2776 66.7641 71.5492 66.9084C70.8208 67.0528 70.066 66.9777 69.3804 66.6926C68.6948 66.4075 68.1092 65.9254 67.6979 65.3071C67.2866 64.6889 67.0681 63.9625 67.0701 63.22C67.0701 62.2281 67.4641 61.2768 68.1655 60.5754C68.8669 59.874 69.8182 59.48 70.8101 59.48Z" fill="white"/>
<path d="M76.17 48.3501C74.4901 50.0242 72.3518 51.1629 70.0252 51.6226C67.6986 52.0822 65.2879 51.8422 63.0976 50.9327C60.9073 50.0232 59.0357 48.4851 57.7189 46.5126C56.4022 44.5401 55.6995 42.2217 55.6995 39.8501C55.6995 37.4785 56.4022 35.1601 57.7189 33.1876C59.0357 31.2151 60.9073 29.677 63.0976 28.7675C65.2879 27.8581 67.6986 27.618 70.0252 28.0776C72.3518 28.5373 74.4901 29.676 76.17 31.3501C78.4123 33.6108 79.6706 36.6659 79.6706 39.8501C79.6706 43.0343 78.4123 46.0894 76.17 48.3501Z" fill="#EC8E37"/>
<path d="M77.1901 24.0801C77.4516 24.0801 77.7071 24.1578 77.9244 24.3033C78.1417 24.4488 78.3109 24.6555 78.4105 24.8973C78.5101 25.1391 78.5357 25.405 78.4839 25.6613C78.4322 25.9176 78.3054 26.1528 78.1198 26.337C77.9342 26.5212 77.6981 26.6462 77.4414 26.696C77.1847 26.7458 76.919 26.7182 76.6779 26.6167C76.4369 26.5153 76.2315 26.3445 76.0876 26.1262C75.9438 25.9078 75.8681 25.6516 75.87 25.3901C75.8644 25.2157 75.8948 25.042 75.9593 24.8799C76.0237 24.7177 76.1209 24.5706 76.2448 24.4477C76.3686 24.3247 76.5165 24.2287 76.6791 24.1654C76.8418 24.1022 77.0157 24.0732 77.1901 24.0801Z" fill="black"/>
<path d="M77.19 54.4202C77.4511 54.4202 77.7063 54.4976 77.9233 54.6426C78.1404 54.7877 78.3096 54.9938 78.4095 55.235C78.5094 55.4762 78.5356 55.7416 78.4846 55.9977C78.4337 56.2537 78.308 56.4889 78.1234 56.6736C77.9388 56.8582 77.7036 56.9839 77.4475 57.0348C77.1915 57.0858 76.926 57.0596 76.6848 56.9597C76.4436 56.8598 76.2375 56.6906 76.0925 56.4735C75.9474 56.2564 75.87 56.0012 75.87 55.7402C75.8752 55.3917 76.0159 55.0589 76.2623 54.8125C76.5088 54.5661 76.8415 54.4253 77.19 54.4202Z" fill="black"/>
<path d="M71.42 72.23C71.6501 72.3407 71.8422 72.5171 71.9719 72.737C72.1017 72.9569 72.1632 73.2103 72.1489 73.4652C72.1345 73.7201 72.0448 73.965 71.8912 74.1689C71.7375 74.3728 71.5269 74.5265 71.2858 74.6106C71.0447 74.6947 70.7842 74.7054 70.5371 74.6413C70.2899 74.5772 70.0674 74.4412 69.8976 74.2506C69.7278 74.0599 69.6184 73.8231 69.5832 73.5703C69.5481 73.3174 69.5887 73.0598 69.7 72.83C69.7658 72.6711 69.8644 72.5278 69.9895 72.4097C70.1145 72.2915 70.2631 72.2012 70.4255 72.1445C70.588 72.0878 70.7605 72.0662 70.9319 72.0809C71.1033 72.0956 71.2697 72.1465 71.42 72.23Z" fill="black"/>
<path d="M50.58 26.5801C50.8419 26.5781 51.0985 26.6541 51.3171 26.7984C51.5357 26.9427 51.7064 27.1487 51.8076 27.3903C51.9087 27.6319 51.9357 27.8982 51.8851 28.1552C51.8345 28.4121 51.7086 28.6483 51.5234 28.8335C51.3381 29.0187 51.102 29.1446 50.845 29.1952C50.5881 29.2458 50.3218 29.2188 50.0802 29.1177C49.8386 29.0165 49.6326 28.8458 49.4883 28.6272C49.344 28.4086 49.268 28.152 49.27 27.8901C49.2776 27.5451 49.4181 27.2163 49.6621 26.9723C49.9062 26.7282 50.235 26.5878 50.58 26.5801Z" fill="black"/>
<path d="M35.41 24.0801C35.6715 24.0801 35.9271 24.1578 36.1444 24.3033C36.3617 24.4487 36.5308 24.6555 36.6304 24.8973C36.73 25.1391 36.7556 25.405 36.7039 25.6613C36.6521 25.9176 36.5254 26.1528 36.3398 26.337C36.1542 26.5212 35.918 26.6461 35.6613 26.6959C35.4046 26.7457 35.1389 26.7181 34.8979 26.6167C34.6569 26.5153 34.4514 26.3445 34.3076 26.1261C34.1638 25.9077 34.088 25.6516 34.09 25.3901C34.0952 25.0425 34.2363 24.7109 34.483 24.466C34.7297 24.2212 35.0624 24.0827 35.41 24.0801Z" fill="black"/>
<path d="M26.61 48.05C26.8711 48.05 27.1263 48.1275 27.3434 48.2725C27.5605 48.4176 27.7297 48.6237 27.8296 48.8649C27.9295 49.1061 27.9556 49.3715 27.9047 49.6276C27.8537 49.8836 27.728 50.1188 27.5434 50.3034C27.3588 50.488 27.1236 50.6137 26.8676 50.6647C26.6115 50.7156 26.3461 50.6895 26.1049 50.5896C25.8637 50.4897 25.6575 50.3205 25.5125 50.1034C25.3674 49.8863 25.29 49.6311 25.29 49.3701C25.2952 49.0216 25.4359 48.6888 25.6823 48.4424C25.9288 48.1959 26.2615 48.0552 26.61 48.05Z" fill="black"/>
<path d="M41.58 53.2101C39.4372 53.212 37.3419 52.5783 35.5594 51.389C33.7769 50.1998 32.3872 48.5085 31.5663 46.5291C30.7454 44.5498 30.53 42.3714 30.9476 40.2697C31.3652 38.1679 32.3968 36.2373 33.9121 34.7221C35.4273 33.2069 37.3579 32.1752 39.4596 31.7577C41.5614 31.3401 43.7398 31.5554 45.7191 32.3763C47.6984 33.1973 49.3897 34.587 50.579 36.3695C51.7682 38.152 52.402 40.2472 52.4 42.39C52.3947 45.2581 51.253 48.0071 49.225 50.0351C47.197 52.0631 44.448 53.2048 41.58 53.2101ZM41.58 34.2101C39.938 34.2081 38.3323 34.6932 36.966 35.604C35.5998 36.5148 34.5344 37.8104 33.9047 39.3268C33.2749 40.8433 33.1091 42.5125 33.4283 44.1232C33.7474 45.7339 34.5371 47.2137 35.6975 48.3755C36.8579 49.5373 38.3367 50.3288 39.9471 50.6498C41.5574 50.9709 43.2268 50.8071 44.744 50.1792C46.2612 49.5513 47.558 48.4875 48.4705 47.1223C49.383 45.7572 49.87 44.1521 49.87 42.51C49.8648 40.3102 48.9906 38.2016 47.4379 36.6433C45.8852 35.085 43.7798 34.2032 41.58 34.19V34.2101Z" fill="black"/>
<path d="M41.58 72.1301C41.4078 72.131 41.2374 72.0949 41.0804 72.0242C40.9234 71.9534 40.7834 71.8497 40.67 71.7201L35.91 66.9701C35.7386 66.8021 35.6191 66.5883 35.5659 66.3542C35.5127 66.1201 35.528 65.8757 35.61 65.6501L40.36 51.5801C40.451 51.333 40.6183 51.1214 40.8377 50.9757C41.057 50.8301 41.317 50.7581 41.58 50.7701C41.8389 50.7716 42.0917 50.8491 42.3068 50.9931C42.522 51.1372 42.69 51.3413 42.79 51.5801L47.55 65.6401C47.6271 65.8671 47.639 66.1111 47.5842 66.3445C47.5294 66.5779 47.4101 66.7912 47.24 66.9601L42.49 71.7101C42.2411 71.9464 41.9213 72.094 41.58 72.1301ZM38.24 65.6501L41.58 68.9901L44.91 65.6501L41.58 55.8401L38.24 65.6501Z" fill="black"/>
<path d="M41.58 53.2102C41.2488 53.2091 40.93 53.0844 40.6858 52.8606C40.4417 52.6368 40.2899 52.33 40.26 52.0002C40.2441 51.8179 40.2662 51.6342 40.3251 51.4609C40.384 51.2876 40.4782 51.1285 40.6019 50.9935C40.7255 50.8586 40.8759 50.7509 41.0434 50.6772C41.2109 50.6035 41.392 50.5654 41.575 50.5654C41.758 50.5654 41.939 50.6035 42.1066 50.6772C42.2741 50.7509 42.4245 50.8586 42.5481 50.9935C42.6718 51.1285 42.766 51.2876 42.8249 51.4609C42.8837 51.6342 42.9059 51.8179 42.89 52.0002C42.8835 52.1657 42.8445 52.3283 42.7752 52.4787C42.7059 52.6291 42.6075 52.7644 42.4859 52.8768C42.3642 52.9892 42.2216 53.0765 42.0661 53.1337C41.9107 53.1909 41.7455 53.2169 41.58 53.2102Z" fill="black"/>
<path d="M59.28 79.5101H23.87C23.6108 79.5099 23.3575 79.4329 23.1421 79.2887C22.9267 79.1445 22.759 78.9396 22.66 78.7001C21.6536 76.2999 21.1368 73.7228 21.14 71.1201C21.0799 68.4117 21.5615 65.7186 22.5565 63.1989C23.5514 60.6792 25.0397 58.3836 26.9339 56.4469C28.8281 54.5102 31.0901 52.9714 33.5872 51.9208C36.0842 50.8703 38.766 50.3291 41.475 50.3291C44.1841 50.3291 46.8658 50.8703 49.3629 51.9208C51.8599 52.9714 54.1219 54.5102 56.0161 56.4469C57.9104 58.3836 59.3986 60.6792 60.3936 63.1989C61.3885 65.7186 61.8701 68.4117 61.81 71.1201C61.8132 73.7228 61.2965 76.2999 60.29 78.7001C60.2776 78.8199 60.2415 78.936 60.1839 79.0417C60.1262 79.1475 60.0482 79.2407 59.9542 79.316C59.8603 79.3914 59.7523 79.4473 59.6366 79.4807C59.5208 79.514 59.3997 79.5239 59.28 79.5101ZM24.78 76.9801H58.47C59.1537 75.1029 59.4925 73.1177 59.47 71.1201C59.5263 68.7464 59.1073 66.3854 58.2379 64.176C57.3684 61.9666 56.0658 59.9533 54.4069 58.2546C52.748 56.5559 50.7662 55.2061 48.578 54.2845C46.3898 53.3628 44.0394 52.8881 41.665 52.8881C39.2907 52.8881 36.9403 53.3628 34.7521 54.2845C32.5639 55.2061 30.582 56.5559 28.9231 58.2546C27.2642 59.9533 25.9617 61.9666 25.0922 64.176C24.2227 66.3854 23.8038 68.7464 23.86 71.1201C23.7653 73.1156 24.0783 75.1095 24.78 76.9801Z" fill="black"/>
<path d="M67.68 53.1102C64.1634 53.0927 60.7904 51.7127 58.27 49.2602C57.0357 48.0279 56.0595 46.5619 55.3984 44.9479C54.7373 43.3339 54.4047 41.6043 54.42 39.8602C54.4375 36.3435 55.8175 32.9706 58.27 30.4502C59.5053 29.2178 60.9735 28.2436 62.589 27.5843C64.2046 26.9251 65.9352 26.5939 67.68 26.6102C71.1926 26.6234 74.5628 28.0002 77.08 30.4502C78.3137 31.685 79.2895 33.1528 79.9505 34.7684C80.6114 36.3839 80.9444 38.1148 80.93 39.8602C80.9433 41.6039 80.6097 43.3329 79.9485 44.9465C79.2874 46.56 78.3119 48.026 77.0788 49.259C75.8458 50.4921 74.3799 51.4676 72.7663 52.1287C71.1527 52.7899 69.4237 53.1235 67.68 53.1102ZM67.68 29.1102C65.1999 29.1101 62.7964 29.97 60.8792 31.5433C58.962 33.1166 57.6496 35.306 57.1657 37.7385C56.6818 40.1709 57.0562 42.6959 58.2253 44.8833C59.3944 47.0706 61.2857 48.7849 63.577 49.7341C65.8683 50.6832 68.4179 50.8086 70.7912 50.0887C73.1646 49.3688 75.2149 47.8483 76.5928 45.7862C77.9708 43.724 78.5911 41.2479 78.348 38.7797C78.105 36.3115 77.0137 34.004 75.26 32.2502C73.2464 30.2471 70.5202 29.125 67.68 29.1302V29.1102Z" fill="black"/>
<path d="M67.68 31.66C67.3332 31.6549 67.0019 31.5156 66.7557 31.2713C66.5096 31.027 66.3677 30.6968 66.36 30.35V27.82C66.3441 27.6377 66.3662 27.4541 66.4251 27.2808C66.484 27.1075 66.5782 26.9483 66.7019 26.8134C66.8255 26.6785 66.9759 26.5707 67.1434 26.497C67.311 26.4233 67.492 26.3853 67.675 26.3853C67.858 26.3853 68.039 26.4233 68.2066 26.497C68.3741 26.5707 68.5244 26.6785 68.6481 26.8134C68.7718 26.9483 68.866 27.1075 68.9249 27.2808C68.9837 27.4541 69.0059 27.6377 68.99 27.82V30.35C68.9666 30.6898 68.8211 31.0096 68.5803 31.2504C68.3395 31.4912 68.0197 31.6367 67.68 31.66Z" fill="black"/>
<path d="M72.12 41.7802H67.67C67.3223 41.7725 66.991 41.631 66.7451 41.3851C66.4992 41.1392 66.3577 40.8078 66.35 40.4601V35.4101C66.3341 35.2278 66.3563 35.0442 66.4151 34.8709C66.474 34.6976 66.5682 34.5384 66.6919 34.4035C66.8156 34.2685 66.9659 34.1608 67.1335 34.0871C67.301 34.0134 67.482 33.9753 67.665 33.9753C67.8481 33.9753 68.0291 34.0134 68.1966 34.0871C68.3641 34.1608 68.5145 34.2685 68.6382 34.4035C68.7618 34.5384 68.8561 34.6976 68.9149 34.8709C68.9738 35.0442 68.9959 35.2278 68.98 35.4101V39.2502H72.12C72.4668 39.2579 72.797 39.3997 73.0413 39.6459C73.2856 39.8921 73.4249 40.2233 73.43 40.5701C73.4025 40.8991 73.2527 41.2058 73.0103 41.4298C72.7678 41.6538 72.4501 41.7788 72.12 41.7802Z" fill="black"/>
<path d="M67.68 53.1101C67.3323 53.1025 67.001 52.961 66.7551 52.7151C66.5092 52.4691 66.3676 52.1378 66.36 51.7901V49.2601C66.3887 48.9312 66.5397 48.6249 66.7831 48.4018C67.0265 48.1787 67.3448 48.0549 67.675 48.0549C68.0052 48.0549 68.3234 48.1787 68.5669 48.4018C68.8103 48.6249 68.9613 48.9312 68.99 49.2601V51.7901C68.9669 52.1309 68.8218 52.452 68.5811 52.6944C68.3405 52.9369 68.0206 53.0845 67.68 53.1101Z" fill="black"/>
<path d="M74.35 34.3901C74.1791 34.3886 74.0103 34.3524 73.8539 34.2836C73.6974 34.2149 73.5566 34.115 73.44 33.9901C73.1994 33.7484 73.0643 33.4212 73.0643 33.0801C73.0643 32.739 73.1994 32.4119 73.44 32.1701L75.26 30.3501C75.5064 30.1355 75.8251 30.0225 76.1516 30.0337C76.4782 30.045 76.7883 30.1798 77.0193 30.4108C77.2504 30.6418 77.3851 30.952 77.3964 31.2785C77.4077 31.6051 77.2946 31.9237 77.08 32.1701L75.26 33.9901C75.1445 34.1164 75.0039 34.2173 74.8472 34.2861C74.6905 34.355 74.5212 34.3904 74.35 34.3901Z" fill="black"/>
<path d="M59.18 49.5802C59.0078 49.5812 58.8374 49.545 58.6804 49.4743C58.5234 49.4036 58.3834 49.2998 58.27 49.1702C58.1485 49.0519 58.0518 48.9104 57.9859 48.7541C57.9199 48.5978 57.8859 48.4298 57.8859 48.2602C57.8859 48.0905 57.9199 47.9226 57.9859 47.7663C58.0518 47.61 58.1485 47.4685 58.27 47.3502L60.09 45.5302C60.3318 45.2896 60.659 45.1545 61 45.1545C61.3411 45.1545 61.6683 45.2896 61.91 45.5302C62.0316 45.6486 62.1282 45.79 62.1942 45.9463C62.2602 46.1026 62.2941 46.2705 62.2941 46.4402C62.2941 46.6098 62.2602 46.7778 62.1942 46.9341C62.1282 47.0904 62.0316 47.2319 61.91 47.3502L60.12 49.1602C60.0034 49.2945 59.8589 49.4017 59.6965 49.4742C59.5341 49.5468 59.3578 49.5829 59.18 49.5802Z" fill="black"/>
<path d="M79.71 41.0701H77.19C77.0077 41.086 76.8241 41.0638 76.6508 41.005C76.4775 40.9461 76.3183 40.8518 76.1834 40.7282C76.0485 40.6045 75.9407 40.4542 75.867 40.2866C75.7933 40.1191 75.7552 39.9381 75.7552 39.7551C75.7552 39.572 75.7933 39.391 75.867 39.2235C75.9407 39.056 76.0485 38.9056 76.1834 38.7819C76.3183 38.6583 76.4775 38.564 76.6508 38.5052C76.8241 38.4463 77.0077 38.4241 77.19 38.4401H79.71C80.0577 38.4477 80.389 38.5892 80.6349 38.8351C80.8809 39.081 81.0224 39.4124 81.03 39.7601C81.0044 40.1007 80.8568 40.4206 80.6143 40.6612C80.3719 40.9018 80.0508 41.047 79.71 41.0701Z" fill="black"/>
<path d="M58.17 41.0701H55.64C55.4577 41.086 55.274 41.0638 55.1007 41.005C54.9274 40.9461 54.7683 40.8518 54.6333 40.7282C54.4984 40.6045 54.3907 40.4542 54.317 40.2866C54.2433 40.1191 54.2052 39.9381 54.2052 39.7551C54.2052 39.572 54.2433 39.391 54.317 39.2235C54.3907 39.056 54.4984 38.9056 54.6333 38.7819C54.7683 38.6583 54.9274 38.564 55.1007 38.5052C55.274 38.4463 55.4577 38.4241 55.64 38.4401H58.17C58.4989 38.4688 58.8052 38.6197 59.0283 38.8632C59.2514 39.1066 59.3752 39.4248 59.3752 39.7551C59.3752 40.0853 59.2514 40.4035 59.0283 40.6469C58.8052 40.8904 58.4989 41.0413 58.17 41.0701Z" fill="black"/>
<path d="M76.17 49.5801C75.9981 49.5791 75.8283 49.5421 75.6716 49.4715C75.5148 49.4009 75.3747 49.2982 75.26 49.17L73.44 47.35C73.2255 47.1036 73.1124 46.785 73.1236 46.4584C73.1349 46.1319 73.2697 45.8218 73.5007 45.5907C73.7317 45.3597 74.0419 45.2249 74.3684 45.2137C74.695 45.2024 75.0136 45.3155 75.26 45.5301L77.08 47.35C77.2016 47.4684 77.2982 47.6099 77.3642 47.7662C77.4301 47.9225 77.4641 48.0904 77.4641 48.26C77.4641 48.4297 77.4301 48.5976 77.3642 48.7539C77.2982 48.9102 77.2016 49.0517 77.08 49.17C76.9666 49.2997 76.8267 49.4034 76.6697 49.4742C76.5127 49.5449 76.3422 49.581 76.17 49.5801Z" fill="black"/>
<path d="M60.9001 34.3901C60.7289 34.3904 60.5596 34.355 60.4029 34.2861C60.2462 34.2173 60.1056 34.1164 59.9901 33.9901L58.17 32.1701C57.9555 31.9237 57.8424 31.6051 57.8537 31.2785C57.8649 30.952 57.9997 30.6418 58.2307 30.4108C58.4618 30.1798 58.7719 30.045 59.0985 30.0337C59.425 30.0225 59.7436 30.1355 59.9901 30.3501L61.8101 32.1701C62.0507 32.4119 62.1857 32.739 62.1857 33.0801C62.1857 33.4212 62.0507 33.7484 61.8101 33.9901C61.7064 34.1303 61.5679 34.241 61.4083 34.3112C61.2486 34.3814 61.0735 34.4086 60.9001 34.3901Z" fill="black"/>
<path d="M25.9 35.4102C25.0171 35.4122 24.1534 35.1521 23.4184 34.6628C22.6835 34.1734 22.1103 33.477 21.7715 32.6616C21.4327 31.8463 21.3435 30.9487 21.5153 30.0826C21.687 29.2165 22.112 28.4209 22.7363 27.7965C23.3607 27.1722 24.1563 26.7472 25.0224 26.5754C25.8885 26.4037 26.7861 26.4929 27.6014 26.8317C28.4168 27.1705 29.1132 27.7437 29.6025 28.4786C30.0919 29.2136 30.352 30.0773 30.35 30.9602C30.3396 32.1372 29.8674 33.263 29.0351 34.0953C28.2029 34.9276 27.077 35.3998 25.9 35.4102ZM25.9 29.1302C25.5179 29.1282 25.1438 29.2398 24.8251 29.4506C24.5064 29.6615 24.2575 29.9622 24.1098 30.3147C23.9622 30.6672 23.9226 31.0555 23.9959 31.4306C24.0693 31.8056 24.2523 32.1505 24.5218 32.4214C24.7913 32.6923 25.1352 32.8771 25.5098 32.9524C25.8845 33.0277 26.273 32.99 26.6263 32.8443C26.9795 32.6985 27.2815 32.4511 27.4941 32.1335C27.7066 31.8159 27.82 31.4424 27.82 31.0602C27.8298 30.805 27.7869 30.5505 27.694 30.3126C27.6011 30.0747 27.4601 29.8585 27.28 29.6774C27.0999 29.4964 26.8844 29.3543 26.647 29.2602C26.4096 29.1661 26.1553 29.1218 25.9 29.1302Z" fill="black"/>
<path d="M70.81 68.2802C69.8092 68.2802 68.8309 67.9834 67.9988 67.4274C67.1667 66.8714 66.5181 66.0811 66.1352 65.1565C65.7522 64.232 65.652 63.2145 65.8472 62.233C66.0425 61.2515 66.5244 60.3499 67.232 59.6422C67.9397 58.9346 68.8413 58.4526 69.8228 58.2574C70.8044 58.0621 71.8218 58.1624 72.7464 58.5453C73.671 58.9283 74.4612 59.5769 75.0172 60.409C75.5732 61.2411 75.87 62.2194 75.87 63.2202C75.878 63.8869 75.7527 64.5485 75.5012 65.166C75.2498 65.7836 74.8774 66.3446 74.4059 66.8161C73.9344 67.2875 73.3734 67.66 72.7559 67.9114C72.1383 68.1628 71.4767 68.2882 70.81 68.2802ZM70.81 60.7002C70.3092 60.7002 69.8197 60.8488 69.4034 61.1273C68.9871 61.4057 68.6628 61.8014 68.4717 62.2643C68.2805 62.7272 68.2309 63.2364 68.3294 63.7274C68.4278 64.2185 68.6697 64.6692 69.0246 65.0227C69.3794 65.3761 69.8311 65.6163 70.3226 65.7128C70.814 65.8093 71.323 65.7577 71.7851 65.5647C72.2472 65.3717 72.6417 65.0458 72.9185 64.6285C73.1953 64.2111 73.342 63.721 73.34 63.2202C73.3413 62.888 73.2767 62.5589 73.1499 62.2519C73.0231 61.9449 72.8367 61.6661 72.6014 61.4317C72.366 61.1973 72.0865 61.012 71.779 60.8864C71.4715 60.7608 71.1421 60.6975 70.81 60.7002Z" fill="black"/>
</g>
</svg>
