<svg width="102" height="102" viewBox="0 0 102 102" fill="none" xmlns="http://www.w3.org/2000/svg">
<g opacity="0.3">
<path d="M74.56 47.0399L73.34 33.4799C59.58 33.2799 50.58 22.1499 50.58 22.1499C50.58 22.1499 41.5799 33.2798 27.8199 33.5898L26.66 47.1199C26.2746 51.2697 26.9765 55.4484 28.6966 59.2446C30.4167 63.0407 33.0957 66.3236 36.47 68.7699L50.58 79.1199L64.74 68.7999C68.1227 66.3353 70.8065 63.0336 72.5281 59.2188C74.2497 55.4039 74.9499 51.207 74.56 47.0399Z" fill="white"/>
<path d="M75.26 24.1201C75.6397 24.1201 76.0109 24.2328 76.3267 24.4437C76.6424 24.6547 76.8885 24.9545 77.0338 25.3054C77.1792 25.6562 77.2172 26.0423 77.1431 26.4147C77.069 26.7871 76.8862 27.1293 76.6176 27.3978C76.3491 27.6663 76.007 27.8492 75.6345 27.9232C75.2621 27.9973 74.8761 27.9593 74.5252 27.814C74.1744 27.6687 73.8746 27.4226 73.6636 27.1068C73.4526 26.7911 73.34 26.4199 73.34 26.0401C73.3316 25.7857 73.3756 25.5323 73.4691 25.2956C73.5627 25.0589 73.7038 24.8439 73.8838 24.6639C74.0637 24.4839 74.2787 24.3428 74.5155 24.2493C74.7522 24.1558 75.0056 24.1118 75.26 24.1201Z" fill="white"/>
<path d="M75.26 68.28C75.513 68.2787 75.7638 68.3275 75.9979 68.4234C76.232 68.5193 76.4448 68.6605 76.6242 68.8389C76.8035 69.0173 76.9458 69.2294 77.0429 69.463C77.14 69.6966 77.1901 69.9471 77.1901 70.2001C77.1985 70.4554 77.1542 70.7096 77.0601 70.947C76.9659 71.1845 76.8239 71.3999 76.6428 71.58C76.4618 71.7602 76.2456 71.9011 76.0077 71.994C75.7698 72.0869 75.5153 72.1298 75.26 72.1201C75.0071 72.1201 74.7566 72.0701 74.523 71.973C74.2894 71.8759 74.0773 71.7336 73.8989 71.5542C73.7205 71.3749 73.5792 71.162 73.4833 70.9279C73.3874 70.6938 73.3387 70.4431 73.3401 70.1901C73.3331 69.9365 73.3781 69.6842 73.4723 69.4487C73.5664 69.2131 73.7078 68.9993 73.8876 68.8204C74.0674 68.6416 74.2819 68.5013 74.518 68.4084C74.754 68.3155 75.0065 68.2718 75.26 68.28Z" fill="white"/>
<path d="M27.8199 70.81C28.3203 70.81 28.8095 70.9584 29.2256 71.2364C29.6416 71.5144 29.9659 71.9095 30.1574 72.3718C30.3489 72.8341 30.399 73.3428 30.3013 73.8336C30.2037 74.3243 29.9628 74.7751 29.6089 75.129C29.2551 75.4828 28.8043 75.7238 28.3135 75.8214C27.8228 75.919 27.3141 75.8689 26.8518 75.6774C26.3895 75.4859 25.9944 75.1617 25.7164 74.7456C25.4384 74.3295 25.29 73.8404 25.29 73.34C25.286 73.0066 25.3486 72.6758 25.4744 72.3671C25.6001 72.0583 25.7863 71.7778 26.022 71.5421C26.2578 71.3063 26.5383 71.1201 26.847 70.9944C27.1558 70.8687 27.4866 70.806 27.8199 70.81Z" fill="white"/>
<path d="M30.35 22.7599C30.8504 22.7599 31.3395 22.9083 31.7556 23.1863C32.1716 23.4643 32.4959 23.8594 32.6874 24.3217C32.8789 24.784 32.929 25.2927 32.8314 25.7835C32.7337 26.2743 32.4928 26.7251 32.139 27.0789C31.7851 27.4327 31.3343 27.6737 30.8436 27.7713C30.3528 27.8689 29.8441 27.8188 29.3818 27.6273C28.9195 27.4358 28.5243 27.1116 28.2463 26.6956C27.9683 26.2795 27.8199 25.7903 27.8199 25.2899C27.8159 24.9566 27.8786 24.6258 28.0043 24.317C28.1301 24.0082 28.3163 23.7277 28.552 23.492C28.7877 23.2563 29.0682 23.0701 29.377 22.9443C29.6858 22.8186 30.0166 22.7559 30.35 22.7599Z" fill="white"/>
<path d="M50.5799 71.4201L40.16 63.9301C37.6644 62.1278 35.6871 59.7004 34.4267 56.8918C33.1664 54.0833 32.6675 50.9926 32.98 47.9301L33.8899 38.0201C43.8899 37.8101 50.5799 29.6201 50.5799 29.6201C50.5799 29.6201 57.2599 37.8101 67.2699 38.0201L68.18 47.9301C68.4722 50.9906 67.964 54.0745 66.7053 56.8794C65.4466 59.6843 63.4806 62.114 61 63.9301C60.6 64.2401 62.8199 62.6201 50.5799 71.4201Z" fill="#EC8E37"/>
<path d="M67.07 24.1199C67.399 24.1486 67.7052 24.2996 67.9283 24.543C68.1515 24.7864 68.2753 25.1047 68.2753 25.4349C68.2753 25.7651 68.1515 26.0833 67.9283 26.3268C67.7052 26.5702 67.399 26.7212 67.07 26.7499C66.7223 26.7423 66.391 26.6007 66.1451 26.3548C65.8992 26.1089 65.7577 25.7776 65.7501 25.4299C65.7444 25.2555 65.7748 25.0818 65.8392 24.9197C65.9037 24.7575 66.0009 24.6104 66.1247 24.4875C66.2486 24.3645 66.3965 24.2685 66.5591 24.2052C66.7218 24.142 66.8956 24.1129 67.07 24.1199Z" fill="black"/>
<path d="M67.0699 73.3398C67.4167 73.3476 67.7469 73.4895 67.9912 73.7357C68.2355 73.9818 68.3749 74.3131 68.3799 74.6599C68.3524 74.9888 68.2027 75.2955 67.9602 75.5195C67.7177 75.7435 67.4001 75.8685 67.0699 75.8699C66.7223 75.8622 66.391 75.7207 66.1451 75.4748C65.8992 75.2289 65.7576 74.8976 65.75 74.5499C65.7799 74.22 65.9317 73.9132 66.1758 73.6895C66.42 73.4657 66.7388 73.341 67.0699 73.3398Z" fill="black"/>
<path d="M39.25 21.55C39.5119 21.548 39.7684 21.624 39.987 21.7683C40.2056 21.9126 40.3764 22.1186 40.4775 22.3602C40.5787 22.6018 40.6056 22.8681 40.555 23.125C40.5044 23.382 40.3785 23.6181 40.1933 23.8033C40.0081 23.9885 39.772 24.1145 39.515 24.1651C39.258 24.2157 38.9918 24.1887 38.7502 24.0876C38.5086 23.9864 38.3025 23.8157 38.1582 23.5971C38.014 23.3785 37.938 23.1219 37.94 22.86C37.9344 22.6864 37.9645 22.5136 38.0284 22.3522C38.0922 22.1907 38.1885 22.0441 38.3113 21.9213C38.434 21.7985 38.5807 21.7022 38.7422 21.6383C38.9036 21.5745 39.0764 21.5444 39.25 21.55Z" fill="black"/>
<path d="M35.41 74.66C35.7389 74.6887 36.0452 74.8397 36.2683 75.0832C36.4914 75.3266 36.6152 75.6448 36.6152 75.975C36.6152 76.3052 36.4914 76.6235 36.2683 76.8669C36.0452 77.1104 35.7389 77.2613 35.41 77.29C35.2276 77.3059 35.044 77.2838 34.8707 77.2249C34.6974 77.1661 34.5382 77.0718 34.4033 76.9482C34.2684 76.8245 34.1607 76.6741 34.087 76.5066C34.0133 76.3391 33.9752 76.1581 33.9752 75.975C33.9752 75.792 34.0133 75.611 34.087 75.4435C34.1607 75.276 34.2684 75.1256 34.4033 75.0019C34.5382 74.8783 34.6974 74.784 34.8707 74.7252C35.044 74.6663 35.2276 74.6441 35.41 74.66Z" fill="black"/>
<path d="M25.29 62.01C25.5515 62.0081 25.8076 62.0838 26.026 62.2276C26.2444 62.3715 26.4152 62.5769 26.5166 62.8179C26.618 63.0589 26.6456 63.3247 26.5958 63.5814C26.546 63.8381 26.4211 64.0742 26.2369 64.2598C26.0527 64.4454 25.8175 64.5721 25.5612 64.6239C25.3049 64.6756 25.039 64.6501 24.7972 64.5505C24.5554 64.4508 24.3486 64.2817 24.2031 64.0644C24.0576 63.8471 23.98 63.5916 23.98 63.3301C23.9875 62.9841 24.1277 62.6541 24.3715 62.4085C24.6152 62.1628 24.944 62.0202 25.29 62.01Z" fill="black"/>
<path d="M22.7599 32.8799C23.0218 32.8779 23.2784 32.9539 23.497 33.0982C23.7156 33.2425 23.8864 33.4486 23.9875 33.6902C24.0887 33.9318 24.1157 34.1979 24.065 34.4549C24.0144 34.7119 23.8885 34.9481 23.7033 35.1333C23.5181 35.3185 23.282 35.4444 23.025 35.495C22.768 35.5456 22.5018 35.5186 22.2602 35.4175C22.0186 35.3163 21.8125 35.1456 21.6683 34.927C21.524 34.7084 21.448 34.4518 21.4499 34.1899C21.4576 33.8449 21.598 33.5161 21.8421 33.2721C22.0861 33.028 22.4149 32.8876 22.7599 32.8799Z" fill="black"/>
<path d="M50.58 80.3199C50.3303 80.3138 50.0862 80.245 49.87 80.1199L35.71 69.7999C32.188 67.2025 29.3723 63.7647 27.52 59.7999C25.7095 55.7732 24.9756 51.3454 25.39 46.9499L26.66 33.3799C26.7014 33.0832 26.8448 32.81 27.0656 32.6075C27.2864 32.405 27.5708 32.2856 27.87 32.2699C33.573 32.0643 39.0777 30.1248 43.65 26.7099C45.8685 25.1572 47.9047 23.3591 49.72 21.3499C49.8186 21.1992 49.9477 21.0708 50.0989 20.973C50.2501 20.8752 50.4201 20.8101 50.598 20.7819C50.7759 20.7538 50.9577 20.7633 51.1317 20.8096C51.3058 20.856 51.4681 20.9384 51.6084 21.0513C51.7487 21.1642 51.8638 21.3052 51.9463 21.4653C52.0287 21.6254 52.0768 21.8011 52.0873 21.9809C52.0978 22.1606 52.0705 22.3406 52.0073 22.5092C51.944 22.6779 51.8462 22.8314 51.72 22.9599C49.7999 25.1625 47.6285 27.1326 45.25 28.8299C40.5476 32.2847 34.9763 34.3623 29.16 34.8299L28.05 47.2699C27.7055 51.2195 28.3806 55.1913 30.0107 58.8052C31.6408 62.4191 34.1714 65.554 37.36 67.9099L51.52 78.2299C51.6588 78.3179 51.7777 78.434 51.869 78.5707C51.9603 78.7074 52.0221 78.8616 52.0503 79.0236C52.0786 79.1855 52.0727 79.3515 52.033 79.5111C51.9934 79.6706 51.9208 79.8201 51.82 79.9499C51.4406 80.167 51.0163 80.2936 50.58 80.3199Z" fill="black"/>
<path d="M50.5799 80.32C50.2137 80.2913 49.865 80.1517 49.5799 79.92C49.3799 79.6252 49.2752 79.2762 49.2799 78.92V45.62C49.279 45.2892 49.4032 44.9703 49.6277 44.7273C49.8521 44.4843 50.1601 44.3353 50.49 44.31C50.8031 44.3229 51.0992 44.4557 51.3171 44.6809C51.5349 44.9062 51.6576 45.2067 51.6599 45.5201V76.58L63.8 67.78C67.0139 65.4412 69.5648 62.3072 71.2022 58.6852C72.8396 55.0633 73.5073 51.0779 73.1399 47.12L72.0299 34.68C66.2136 34.2124 60.6424 32.1348 55.94 28.68C53.5116 27.0455 51.3323 25.0684 49.4699 22.81C49.363 22.6776 49.2832 22.5254 49.2354 22.3621C49.1875 22.1988 49.1725 22.0275 49.1911 21.8584C49.2097 21.6892 49.2615 21.5254 49.3437 21.3764C49.4259 21.2273 49.5368 21.096 49.67 20.99C49.9394 20.7791 50.2806 20.6819 50.6207 20.7193C50.9608 20.7566 51.2728 20.9256 51.49 21.19C53.272 23.2355 55.3125 25.0406 57.56 26.56C62.1705 29.9025 67.6525 31.8341 73.3399 32.12C73.646 32.1165 73.942 32.229 74.1684 32.435C74.3947 32.6409 74.5347 32.925 74.56 33.23L75.87 46.89C76.2847 51.2846 75.5543 55.7116 73.75 59.74C71.9446 63.7371 69.116 67.1867 65.55 69.74L51.3899 80.12C51.1336 80.2333 50.8595 80.301 50.5799 80.32Z" fill="black"/>
<path d="M50.58 72.7301C50.3303 72.724 50.0862 72.6552 49.87 72.53L39.45 64.9501C36.7895 63.0173 34.681 60.4222 33.3337 57.4224C31.9864 54.4227 31.4473 51.1226 31.77 47.8501L32.68 37.9401C32.7193 37.6415 32.8617 37.3661 33.0827 37.1615C33.3037 36.957 33.5893 36.8362 33.89 36.8201C43.2 36.6201 49.57 29.0301 49.67 28.9301C49.8977 28.6819 50.2077 28.5248 50.5424 28.4881C50.8772 28.4513 51.2139 28.5373 51.49 28.7301C51.742 28.9553 51.9018 29.2658 51.9387 29.6018C51.9756 29.9377 51.8871 30.2755 51.69 30.5501C51.39 30.8501 45.02 38.5501 35.2 39.3501L34.4 48.1501C34.1392 50.9787 34.6168 53.8265 35.7858 56.4153C36.9549 59.0041 38.7756 61.2454 41.07 62.9201L51.49 70.4101C51.6288 70.4981 51.7477 70.6142 51.839 70.7509C51.9303 70.8875 51.9921 71.0418 52.0203 71.2038C52.0486 71.3657 52.0427 71.5317 52.003 71.6912C51.9633 71.8508 51.8908 72.0002 51.79 72.1301C51.6388 72.3061 51.4539 72.45 51.246 72.5531C51.0381 72.6561 50.8116 72.7163 50.58 72.7301Z" fill="black"/>
<path d="M50.58 72.7301C50.3859 72.7301 50.1945 72.6849 50.021 72.5981C49.8474 72.5113 49.6964 72.3853 49.58 72.2301C49.4792 72.1002 49.4066 71.9507 49.367 71.7912C49.3273 71.6317 49.3214 71.4657 49.3496 71.3037C49.3779 71.1418 49.4396 70.9876 49.531 70.8509C49.6223 70.7142 49.7412 70.5982 49.88 70.5101L60.2 63.0201C62.5028 61.3527 64.3305 59.113 65.5021 56.5225C66.6737 53.932 67.1486 51.0805 66.88 48.2501L66.07 39.4501C56.15 38.7401 49.78 31.0601 49.58 30.6501C49.473 30.5177 49.3933 30.3654 49.3455 30.2021C49.2976 30.0388 49.2825 29.8676 49.3011 29.6985C49.3197 29.5293 49.3716 29.3654 49.4538 29.2164C49.5359 29.0674 49.6468 28.9361 49.78 28.8301C50.0494 28.6192 50.3906 28.522 50.7307 28.5594C51.0708 28.5967 51.3828 28.7656 51.6 29.0301C51.7 29.1301 57.97 36.7201 67.38 36.9201C67.6869 36.919 67.983 37.0338 68.2091 37.2414C68.4353 37.449 68.5748 37.7341 68.6 38.0401L69.51 47.9501C69.8066 51.2211 69.2547 54.5132 67.9076 57.5086C66.5606 60.5041 64.4638 63.1015 61.82 65.0501L51.4 72.6301C51.09 72.6301 50.88 72.7301 50.58 72.7301Z" fill="black"/>
<path d="M30.35 29.1199C29.5905 29.1199 28.8481 28.8947 28.2166 28.4728C27.5851 28.0508 27.0929 27.4511 26.8022 26.7494C26.5116 26.0478 26.4356 25.2756 26.5837 24.5308C26.7319 23.7859 27.0977 23.1017 27.6347 22.5646C28.1717 22.0276 28.8559 21.6619 29.6008 21.5137C30.3457 21.3656 31.1178 21.4416 31.8195 21.7322C32.5211 22.0229 33.1209 22.5151 33.5428 23.1465C33.9648 23.778 34.19 24.5204 34.19 25.2799C34.19 25.7842 34.0906 26.2836 33.8976 26.7494C33.7047 27.2153 33.4218 27.6387 33.0652 27.9952C32.7087 28.3518 32.2853 28.6347 31.8195 28.8276C31.3536 29.0206 30.8542 29.1199 30.35 29.1199ZM30.35 24.1199C30.0881 24.118 29.8315 24.1939 29.6129 24.3382C29.3943 24.4825 29.2235 24.6886 29.1224 24.9302C29.0212 25.1718 28.9942 25.438 29.0449 25.6949C29.0955 25.9519 29.2214 26.1881 29.4066 26.3733C29.5918 26.5585 29.828 26.6844 30.085 26.735C30.3419 26.7857 30.6081 26.7587 30.8497 26.6575C31.0913 26.5564 31.2974 26.3856 31.4417 26.1671C31.586 25.9485 31.6619 25.6918 31.66 25.4299C31.6655 25.2564 31.6355 25.0836 31.5716 24.9221C31.5077 24.7607 31.4114 24.614 31.2886 24.4913C31.1659 24.3685 31.0192 24.2722 30.8578 24.2083C30.6963 24.1444 30.5235 24.1144 30.35 24.1199Z" fill="black"/>
<path d="M27.8199 77.19C27.0581 77.192 26.3127 76.9679 25.6783 76.546C25.0438 76.1242 24.5489 75.5236 24.2559 74.8203C23.963 74.1169 23.8853 73.3425 24.0327 72.595C24.1801 71.8475 24.546 71.1607 25.084 70.6212C25.6221 70.0818 26.3081 69.7141 27.0552 69.5647C27.8023 69.4153 28.5769 69.491 29.281 69.7821C29.9851 70.0732 30.587 70.5667 31.0104 71.2C31.4339 71.8334 31.66 72.5781 31.66 73.34C31.6613 73.8451 31.5629 74.3455 31.3705 74.8126C31.1782 75.2796 30.8955 75.7041 30.5388 76.0618C30.1821 76.4194 29.7584 76.7031 29.2918 76.8967C28.8253 77.0903 28.3251 77.19 27.8199 77.19ZM27.8199 72.13C27.558 72.128 27.3015 72.204 27.0829 72.3483C26.8643 72.4925 26.6936 72.6986 26.5924 72.9402C26.4913 73.1819 26.4643 73.448 26.5149 73.705C26.5655 73.962 26.6914 74.1982 26.8767 74.3834C27.0619 74.5686 27.298 74.6944 27.5549 74.7451C27.8119 74.7957 28.0782 74.7687 28.3198 74.6675C28.5614 74.5664 28.7674 74.3957 28.9117 74.1771C29.056 73.9585 29.1319 73.7019 29.1299 73.44C29.1249 73.0932 28.9855 72.7619 28.7412 72.5157C28.4969 72.2696 28.1667 72.1277 27.8199 72.12V72.13Z" fill="black"/>
<path d="M75.26 29.1198C74.6385 29.1198 74.0311 28.9354 73.5145 28.5899C72.9979 28.2445 72.5954 27.7535 72.3581 27.1792C72.1207 26.6048 72.0591 25.9729 72.1811 25.3636C72.303 24.7542 72.6031 24.1948 73.0432 23.756C73.4834 23.3173 74.0438 23.019 74.6536 22.899C75.2634 22.7789 75.895 22.8426 76.4686 23.0818C77.0422 23.321 77.5319 23.725 77.8757 24.2426C78.2195 24.7603 78.402 25.3684 78.4 25.9898C78.3973 26.8209 78.0654 27.617 77.4768 28.2037C76.8882 28.7904 76.091 29.1199 75.26 29.1198ZM75.26 25.2798C75.1129 25.2988 74.9778 25.3707 74.8799 25.482C74.7819 25.5934 74.7279 25.7366 74.7279 25.8849C74.7279 26.0331 74.7819 26.1763 74.8799 26.2877C74.9778 26.399 75.1129 26.4709 75.26 26.4898C75.3403 26.4941 75.4208 26.4815 75.496 26.453C75.5713 26.4244 75.6397 26.3806 75.6971 26.3241C75.7545 26.2677 75.7995 26.1999 75.8293 26.1252C75.859 26.0504 75.8729 25.9703 75.87 25.8899C75.8582 25.733 75.7898 25.5857 75.6776 25.4753C75.5655 25.365 75.4171 25.2991 75.26 25.2898V25.2798Z" fill="black"/>
<path d="M75.26 73.3401C74.6389 73.3401 74.0319 73.1559 73.5155 72.8109C72.9992 72.4659 72.5967 71.9755 72.359 71.4017C72.1214 70.8279 72.0592 70.1966 72.1803 69.5875C72.3015 68.9784 72.6006 68.4189 73.0397 67.9798C73.4788 67.5406 74.0383 67.2415 74.6474 67.1204C75.2565 66.9992 75.8879 67.0614 76.4616 67.2991C77.0354 67.5368 77.5258 67.9392 77.8708 68.4556C78.2158 68.972 78.4 69.5791 78.4 70.2001C78.3974 71.0321 78.0657 71.8292 77.4774 72.4175C76.8891 73.0058 76.0919 73.3374 75.26 73.3401ZM75.26 69.6001C75.1047 69.6116 74.9587 69.6785 74.8486 69.7887C74.7385 69.8988 74.6715 70.0448 74.66 70.2001C74.658 70.3216 74.6924 70.4409 74.7586 70.5427C74.8249 70.6445 74.92 70.7242 75.0319 70.7716C75.1437 70.819 75.2672 70.832 75.3865 70.8087C75.5058 70.7855 75.6154 70.7272 75.7013 70.6413C75.7872 70.5554 75.8455 70.4458 75.8687 70.3266C75.8919 70.2073 75.879 70.0839 75.8316 69.972C75.7842 69.8601 75.7045 69.765 75.6026 69.6987C75.5008 69.6324 75.3815 69.5981 75.26 69.6001Z" fill="black"/>
<path d="M63.23 46.84H37.94C37.7577 46.8559 37.574 46.8338 37.4007 46.775C37.2274 46.7161 37.0682 46.6218 36.9333 46.4982C36.7984 46.3745 36.6906 46.2242 36.6169 46.0566C36.5432 45.8891 36.5052 45.7081 36.5052 45.5251C36.5052 45.3421 36.5432 45.161 36.6169 44.9935C36.6906 44.8259 36.7984 44.6756 36.9333 44.5519C37.0682 44.4283 37.2274 44.334 37.4007 44.2751C37.574 44.2163 37.7577 44.1942 37.94 44.2101H63.23C63.5589 44.2388 63.8652 44.3897 64.0883 44.6332C64.3114 44.8766 64.4352 45.1949 64.4352 45.5251C64.4352 45.8553 64.3114 46.1735 64.0883 46.4169C63.8652 46.6604 63.5589 46.8113 63.23 46.84Z" fill="black"/>
<path d="M63.23 50.5801H37.94C37.7577 50.596 37.574 50.5738 37.4007 50.5149C37.2274 50.4561 37.0682 50.3618 36.9333 50.2382C36.7984 50.1145 36.6906 49.9641 36.6169 49.7966C36.5432 49.6291 36.5052 49.4481 36.5052 49.2651C36.5052 49.082 36.5432 48.901 36.6169 48.7335C36.6906 48.566 36.7984 48.4156 36.9333 48.2919C37.0682 48.1683 37.2274 48.074 37.4007 48.0152C37.574 47.9563 37.7577 47.9342 37.94 47.9501H63.23C63.5589 47.9788 63.8652 48.1297 64.0883 48.3732C64.3114 48.6166 64.4352 48.9349 64.4352 49.2651C64.4352 49.5953 64.3114 49.9135 64.0883 50.1569C63.8652 50.4004 63.5589 50.5514 63.23 50.5801Z" fill="black"/>
<path d="M58.17 42.9899H42.99C42.661 42.9612 42.3548 42.8102 42.1317 42.5668C41.9085 42.3233 41.7847 42.0051 41.7847 41.6749C41.7847 41.3447 41.9085 41.0265 42.1317 40.783C42.3548 40.5396 42.661 40.3886 42.99 40.3599H58.17C58.4989 40.3886 58.8052 40.5396 59.0283 40.783C59.2514 41.0265 59.3752 41.3447 59.3752 41.6749C59.3752 42.0051 59.2514 42.3233 59.0283 42.5668C58.8052 42.8102 58.4989 42.9612 58.17 42.9899Z" fill="black"/>
</g>
</svg>
