<svg width="91" height="91" viewBox="0 0 91 91" fill="none" xmlns="http://www.w3.org/2000/svg">
<g opacity="0.1" clip-path="url(#clip0_2_139)">
<path d="M73.3575 32.8265C66.1434 24.3652 81.6257 22.3017 83.6884 18.4802C81.5897 22.3893 80.6626 41.4737 73.3575 32.8265Z" fill="black"/>
<path d="M84.2215 40.4804C84.1642 40.4636 74.2965 36.46 67.1285 39.6453" stroke="black" stroke-width="0.98" stroke-linecap="round" stroke-linejoin="round"/>
<path d="M81.2975 43.5229C81.2975 43.5229 76.3143 41.5127 73.0348 42.0116" stroke="black" stroke-width="0.98" stroke-linecap="round" stroke-linejoin="round"/>
<path d="M65.4442 41.3589C65.4178 41.4492 73.016 37.7156 78.1659 41.6378C78.1659 41.6378 76.269 42.8723 72.7729 44.9626C69.7265 46.7923 66.6875 46.2215 65.4442 41.3589Z" fill="black"/>
<path d="M74.3984 51.5676C74.3411 51.5508 64.9919 46.1299 57.6168 48.2862" stroke="black" stroke-width="0.98" stroke-linecap="round" stroke-linejoin="round"/>
<path d="M71.2328 54.1592C71.2328 54.1592 66.5055 51.4517 63.2307 51.4738" stroke="black" stroke-width="0.98" stroke-linecap="round" stroke-linejoin="round"/>
<path d="M55.8166 49.7574C55.7902 49.8477 63.6364 47.2164 68.3514 51.8448C68.3514 51.8448 66.3519 52.7919 62.7103 54.3861C59.515 55.7676 56.5762 54.7482 55.8166 49.7574Z" fill="black"/>
<path d="M63.673 61.1646C63.6156 61.1478 54.9053 54.4305 47.4189 55.5491" stroke="black" stroke-width="0.98" stroke-linecap="round" stroke-linejoin="round"/>
<path d="M60.3168 63.3081C60.3168 63.3081 55.9058 59.9454 52.661 59.5106" stroke="black" stroke-width="0.98" stroke-linecap="round" stroke-linejoin="round"/>
<path d="M45.4966 56.7641C45.4669 56.8657 53.4623 55.3199 57.6757 60.5984C57.6757 60.5984 55.6346 61.2268 51.8669 62.3305C48.5832 63.2695 45.7634 61.8435 45.4966 56.7641Z" fill="black"/>
<path d="M52.183 69.2263C52.1256 69.2095 44.1332 61.2805 36.6247 61.3751" stroke="black" stroke-width="0.98" stroke-linecap="round" stroke-linejoin="round"/>
<path d="M48.6558 70.8909C48.6558 70.8909 44.6242 66.9405 41.4382 66.057" stroke="black" stroke-width="0.98" stroke-linecap="round" stroke-linejoin="round"/>
<path d="M34.6029 62.328C34.5731 62.4296 42.6408 61.9838 46.3024 67.8362C46.3024 67.8362 44.1998 68.2137 40.3768 68.7619C37.0338 69.2299 34.3808 67.4114 34.6029 62.328Z" fill="black"/>
<path d="M40.0251 75.6707C39.9678 75.6539 32.8388 66.6536 25.3087 65.6878" stroke="black" stroke-width="0.98" stroke-linecap="round" stroke-linejoin="round"/>
<path d="M36.3812 76.8474C36.3812 76.8474 32.7513 72.3404 29.6908 71.0278" stroke="black" stroke-width="0.98" stroke-linecap="round" stroke-linejoin="round"/>
<path d="M23.2414 66.3699C23.2117 66.4715 31.3132 67.1511 34.3313 73.4648C34.3313 73.4648 32.2282 73.5603 28.3625 73.5811C24.9888 73.5866 22.5213 71.4179 23.2414 66.3699Z" fill="black"/>
<path d="M64.3445 22.7477C64.3709 22.6574 68.729 34.0706 64.4899 42.2442" stroke="black" stroke-width="0.98" stroke-linecap="round" stroke-linejoin="round"/>
<path d="M62.3815 25.5195C62.3815 25.5195 64.1627 31.2384 63.4496 34.9155" stroke="black" stroke-width="0.98" stroke-linecap="round" stroke-linejoin="round"/>
<path d="M62.7461 43.8422C62.8225 43.8646 67.2582 35.5156 63.9108 29.228C63.0779 31.0491 62.1692 32.8287 61.1881 34.5602C59.5236 37.5176 59.2265 41.1204 62.7461 43.8422Z" fill="black"/>
<path d="M56.4555 31.0911C56.4819 31.0008 59.7262 42.9583 54.7808 50.4962" stroke="black" stroke-width="0.98" stroke-linecap="round" stroke-linejoin="round"/>
<path d="M54.2431 33.545C54.2431 33.545 55.4694 39.4937 54.4155 43.0588" stroke="black" stroke-width="0.98" stroke-linecap="round" stroke-linejoin="round"/>
<path d="M52.9086 51.8237C52.985 51.8461 58.1299 44.1582 55.4193 37.4318C54.4243 39.1463 53.3534 40.8052 52.2113 42.4014C50.3192 45.1083 49.691 48.6019 52.9086 51.8237Z" fill="black"/>
<path d="M47.8908 38.2684C47.9172 38.1781 50.0042 50.5446 44.3757 57.3677" stroke="black" stroke-width="0.98" stroke-linecap="round" stroke-linejoin="round"/>
<path d="M45.4899 40.4095C45.4899 40.4095 46.1462 46.4978 44.7839 49.9114" stroke="black" stroke-width="0.98" stroke-linecap="round" stroke-linejoin="round"/>
<path d="M42.4167 58.4245C42.4931 58.4468 48.2947 51.5641 46.2716 44.4383C45.1179 46.0188 43.8981 47.5358 42.6173 48.983C40.5017 51.3548 39.5257 54.7957 42.4167 58.4245Z" fill="black"/>
<path d="M38.7635 44.1776C38.7899 44.0872 39.6828 56.7049 33.4584 62.7284" stroke="black" stroke-width="0.98" stroke-linecap="round" stroke-linejoin="round"/>
<path d="M36.1707 46.0176C36.1707 46.0176 36.2385 52.1666 34.5494 55.3497" stroke="black" stroke-width="0.98" stroke-linecap="round" stroke-linejoin="round"/>
<path d="M31.3802 63.5545C31.4497 63.6361 37.9023 57.4711 36.5522 50.1377C35.2604 51.5422 33.9113 52.874 32.5103 54.1277C30.1671 56.249 28.8732 59.5355 31.3802 63.5545Z" fill="black"/>
<path d="M29.1209 48.8698C29.144 48.7908 28.8285 61.4961 22.0598 66.6493" stroke="black" stroke-width="0.98" stroke-linecap="round" stroke-linejoin="round"/>
<path d="M26.3717 50.3573C26.3717 50.3573 25.8456 56.4796 23.8426 59.4237" stroke="black" stroke-width="0.98" stroke-linecap="round" stroke-linejoin="round"/>
<path d="M19.9209 67.151C19.9809 67.2299 26.9965 61.9773 26.3666 54.487C24.9467 55.7122 23.4767 56.8533 21.963 57.9053C19.4249 59.6999 17.8134 62.7954 19.9209 67.151Z" fill="black"/>
<path d="M79.6027 24.6762C69.9203 38.5342 57.7125 49.8367 43.9832 57.6543C30.2539 65.4718 15.3954 69.5811 0.629527 69.6441" stroke="black" stroke-width="0.98" stroke-linecap="round" stroke-linejoin="round"/>
</g>
<defs>
<clipPath id="clip0_2_139">
<rect width="73" height="73" fill="white" transform="matrix(0.280903 -0.959736 -0.959736 -0.280903 70.0601 90.5662)"/>
</clipPath>
</defs>
</svg>
