<svg width="79" height="78" viewBox="0 0 79 78" fill="none" xmlns="http://www.w3.org/2000/svg">
<g opacity="0.1" clip-path="url(#clip0_2_172)">
<path d="M60.851 14.1506C67.5119 20.7845 53.0951 34.3898 39.9995 35.5081C41.199 31.4049 42.6421 27.3769 44.3212 23.4455C47.5876 15.7124 55.3853 8.71167 60.851 14.1506Z" fill="#252326"/>
<path d="M36.3434 47.5078C40.2432 45.573 44.306 43.9858 48.4847 42.7646C54.7777 41.0215 60.882 42.0907 61.3972 46.368C61.9125 50.6453 55.5015 53.3982 49.0017 52.8831C43.8507 52.5323 36.3434 47.5078 36.3434 47.5078Z" fill="#252326"/>
<path d="M18.9823 39.7504C18.9823 39.7504 34.2323 30.4474 28.3426 24.3742C22.453 18.3009 16.4535 31.1216 18.9823 39.7504Z" fill="#252326"/>
<path d="M54.5762 22.7392C54.5762 22.7392 34.5285 47.2955 2.59753 48.135" stroke="#252326" stroke-width="0.93" stroke-miterlimit="10"/>
<path d="M54.0739 47.3281C54.0739 47.3281 37.0611 50.2035 23.5349 44.0684" stroke="#252326" stroke-width="0.93" stroke-miterlimit="10"/>
<path d="M25.6531 26.9732C25.6531 26.9732 20.1285 33.1098 17.1968 46.0374" stroke="#252326" stroke-width="0.93" stroke-miterlimit="10"/>
</g>
<defs>
<clipPath id="clip0_2_172">
<rect width="65.74" height="44.79" fill="white" transform="translate(0 45.9333) rotate(-44.3239)"/>
</clipPath>
</defs>
</svg>
