<svg width="73" height="74" viewBox="0 0 73 74" fill="none" xmlns="http://www.w3.org/2000/svg">
<g opacity="0.1" clip-path="url(#clip0_2_179)">
<path d="M53.309 58.9079C54.1664 55.7013 50.6516 51.7776 42.9564 51.1123C35.2612 50.4469 42.2113 46.3049 39.7263 42.9952C37.2413 39.6856 30.2317 40.8328 23.7766 47.0959C23.7766 47.0959 22.6004 62.8848 29.0103 63.4665C34.3527 63.9589 32.9004 57.9159 36.5277 59.0001C40.1549 60.0844 51.3958 66.1283 53.309 58.9079Z" fill="#252326"/>
<path d="M34.9426 4.67409C31.6418 3.47361 27.5702 6.40568 26.8288 13.7746C26.0875 21.1436 21.8508 13.9349 18.4329 15.9594C15.015 17.9838 16.1509 24.853 22.5443 31.8789C22.5443 31.8789 38.824 34.8793 39.4968 28.7362C40.0414 23.627 33.779 24.3222 34.9351 20.9404C36.0912 17.5586 42.394 7.38563 34.9426 4.67409Z" fill="#252326"/>
<path d="M46.0203 57.9852C46.0203 57.9852 26.541 53.9568 15.3652 39.9008" stroke="#252326" stroke-width="0.93" stroke-miterlimit="10"/>
<path d="M4.35373 49.1941C4.35373 49.1941 24.6611 37.0489 31.9149 13.5318" stroke="#252326" stroke-width="0.93" stroke-miterlimit="10"/>
</g>
<defs>
<clipPath id="clip0_2_179">
<rect width="54.4824" height="52.2488" fill="white" transform="matrix(0.494129 -0.869389 -0.869389 -0.494129 45.4246 73.1841)"/>
</clipPath>
</defs>
</svg>
