<svg width="83" height="83" viewBox="0 0 83 83" fill="none" xmlns="http://www.w3.org/2000/svg">
<g opacity="0.3">
<path d="M58.0984 61.2571H17.5994V61.1915L24.9017 40.5317H65.4007C65.1545 40.9994 58.1805 61.0028 58.0984 61.2571Z" fill="#B7C681"/>
<path d="M58.0984 21.8085C58.5093 21.8085 58.9109 21.9305 59.2525 22.1589C59.594 22.3874 59.8601 22.7121 60.0169 23.0919C60.1738 23.4716 60.2144 23.8894 60.1337 24.2923C60.0529 24.6952 59.8544 25.0651 59.5633 25.355C59.2721 25.645 58.9015 25.8421 58.4982 25.9213C58.095 26.0004 57.6774 25.9581 57.2983 25.7998C56.9191 25.6414 56.5955 25.3741 56.3684 25.0316C56.1413 24.6892 56.0209 24.287 56.0225 23.8761C56.0203 23.6033 56.0726 23.3327 56.1762 23.0804C56.2799 22.828 56.4328 22.5988 56.6261 22.4063C56.8194 22.2137 57.0492 22.0617 57.302 21.959C57.5548 21.8564 57.8256 21.8052 58.0984 21.8085Z" fill="white"/>
<path d="M37.8487 18.6743C38.3583 18.6743 38.8564 18.8254 39.2801 19.1085C39.7037 19.3916 40.034 19.794 40.229 20.2647C40.424 20.7355 40.475 21.2535 40.3756 21.7533C40.2762 22.253 40.0308 22.7121 39.6705 23.0724C39.3102 23.4327 38.8511 23.678 38.3514 23.7774C37.8516 23.8769 37.3336 23.8258 36.8628 23.6308C36.3921 23.4358 35.9897 23.1056 35.7066 22.682C35.4236 22.2583 35.2725 21.7602 35.2725 21.2506C35.2768 20.5687 35.5496 19.9159 36.0318 19.4337C36.514 18.9514 37.1668 18.6786 37.8487 18.6743Z" fill="white"/>
<path d="M56.0225 45.6516L52.9539 51.8709H29.0532L32.2039 45.6516H56.0225Z" fill="white"/>
<path d="M56.1045 37.3484H28.0522V40.499H56.1045V37.3484Z" fill="white"/>
<path d="M60.1742 32.2039V40.5072H56.0225V37.3483H28.0523V40.5072H24.9016L17.6814 61.1669V28.0522H28.0523L32.2039 32.2039H60.1742Z" fill="white"/>
<path d="M64.3257 30.1282C64.5399 30.1282 64.7493 30.1917 64.9274 30.3107C65.1055 30.4297 65.2444 30.5988 65.3263 30.7967C65.4083 30.9946 65.4297 31.2124 65.3879 31.4225C65.3461 31.6326 65.243 31.8255 65.0916 31.977C64.9401 32.1285 64.7471 32.2316 64.537 32.2734C64.3269 32.3152 64.1092 32.2938 63.9113 32.2118C63.7134 32.1298 63.5442 31.991 63.4252 31.8129C63.3062 31.6348 63.2427 31.4254 63.2427 31.2112C63.2469 30.9253 63.3624 30.6522 63.5646 30.4501C63.7668 30.2479 64.0398 30.1324 64.3257 30.1282Z" fill="black"/>
<path d="M64.3259 61.2573C64.5958 61.2808 64.8471 61.4047 65.0301 61.6044C65.2132 61.8042 65.3147 62.0653 65.3147 62.3362C65.3147 62.6071 65.2132 62.8682 65.0301 63.068C64.8471 63.2677 64.5958 63.3916 64.3259 63.4151C64.1763 63.4282 64.0256 63.41 63.8834 63.3617C63.7412 63.3134 63.6106 63.2361 63.4999 63.1346C63.3892 63.0332 63.3008 62.9098 63.2404 62.7724C63.1799 62.6349 63.1487 62.4864 63.1487 62.3362C63.1487 62.186 63.1799 62.0375 63.2404 61.9001C63.3008 61.7626 63.3892 61.6393 63.4999 61.5378C63.6106 61.4363 63.7412 61.359 63.8834 61.3107C64.0256 61.2624 64.1763 61.2442 64.3259 61.2573Z" fill="black"/>
<path d="M50.8781 20.75C51.0277 20.7369 51.1784 20.7551 51.3206 20.8034C51.4628 20.8517 51.5934 20.929 51.7041 21.0305C51.8148 21.1319 51.9032 21.2553 51.9637 21.3928C52.0242 21.5302 52.0554 21.6787 52.0554 21.8289C52.0554 21.9791 52.0242 22.1276 51.9637 22.265C51.9032 22.4025 51.8148 22.5258 51.7041 22.6273C51.5934 22.7288 51.4628 22.8061 51.3206 22.8544C51.1784 22.9027 51.0277 22.9209 50.8781 22.9078C50.5896 22.8959 50.316 22.7764 50.111 22.573C49.9061 22.3696 49.7846 22.0968 49.7705 21.8084C49.7812 21.5225 49.9028 21.2521 50.1096 21.0545C50.3164 20.8569 50.5921 20.7476 50.8781 20.75Z" fill="black"/>
<path d="M42.583 26.9775C42.8529 27.001 43.1041 27.1249 43.2872 27.3247C43.4703 27.5244 43.5718 27.7855 43.5718 28.0564C43.5718 28.3274 43.4703 28.5885 43.2872 28.7882C43.1041 28.9879 42.8529 29.1118 42.583 29.1354C42.4334 29.1484 42.2827 29.1302 42.1405 29.082C41.9983 29.0337 41.8677 28.9563 41.757 28.8548C41.6463 28.7534 41.5579 28.63 41.4975 28.4926C41.437 28.3551 41.4058 28.2066 41.4058 28.0564C41.4058 27.9063 41.437 27.7577 41.4975 27.6203C41.5579 27.4828 41.6463 27.3595 41.757 27.258C41.8677 27.1565 41.9983 27.0792 42.1405 27.0309C42.2827 26.9826 42.4334 26.9644 42.583 26.9775Z" fill="black"/>
<path d="M37.3485 63.3249C37.4981 63.3118 37.6488 63.33 37.791 63.3783C37.9331 63.4266 38.0637 63.504 38.1744 63.6054C38.2851 63.7069 38.3735 63.8302 38.434 63.9677C38.4945 64.1051 38.5257 64.2537 38.5257 64.4038C38.5257 64.554 38.4945 64.7025 38.434 64.84C38.3735 64.9774 38.2851 65.1008 38.1744 65.2023C38.0637 65.3037 37.9331 65.3811 37.791 65.4293C37.6488 65.4776 37.4981 65.4958 37.3485 65.4828C37.0786 65.4592 36.8273 65.3353 36.6442 65.1356C36.4612 64.9359 36.3596 64.6748 36.3596 64.4038C36.3596 64.1329 36.4612 63.8718 36.6442 63.6721C36.8273 63.4723 37.0786 63.3485 37.3485 63.3249Z" fill="black"/>
<path d="M23.9008 20.75C24.1153 20.7484 24.3255 20.8105 24.5047 20.9286C24.6839 21.0466 24.824 21.2151 24.9072 21.4129C24.9905 21.6106 25.013 21.8287 24.9722 22.0393C24.9313 22.2499 24.8289 22.4437 24.6777 22.5959C24.5266 22.7482 24.3336 22.8522 24.1233 22.8947C23.913 22.9371 23.6948 22.9162 23.4964 22.8344C23.298 22.7527 23.1284 22.6139 23.0091 22.4356C22.8897 22.2573 22.8259 22.0476 22.8259 21.8331C22.8321 21.5492 22.9471 21.2785 23.1471 21.077C23.3472 20.8754 23.6169 20.7584 23.9008 20.75Z" fill="black"/>
<path d="M22.8259 56.0225C23.1104 56.0288 23.3813 56.1452 23.5818 56.3472C23.7822 56.5491 23.8966 56.821 23.9007 57.1055C23.8977 57.242 23.8672 57.3765 23.811 57.5009C23.7549 57.6254 23.6742 57.7372 23.5739 57.8299C23.4736 57.9225 23.3557 57.994 23.2272 58.0401C23.0987 58.0862 22.9622 58.106 22.8259 58.0983C22.5414 58.0941 22.2696 57.9798 22.0676 57.7793C21.8657 57.5789 21.7493 57.3079 21.7429 57.0235C21.7803 56.7573 21.9085 56.5122 22.1059 56.3298C22.3033 56.1473 22.5576 56.0388 22.8259 56.0225Z" fill="black"/>
<path d="M17.6814 62.168C17.3962 62.1618 17.1243 62.0457 16.9225 61.8439C16.7208 61.6421 16.6047 61.3703 16.5984 61.085V28.0524C16.6047 27.7679 16.7211 27.497 16.9231 27.2965C17.1251 27.0961 17.3969 26.9817 17.6814 26.9775H28.0523C28.1928 26.9773 28.3317 27.0064 28.4603 27.0629C28.5888 27.1194 28.7042 27.2021 28.799 27.3058L32.6224 31.1292H60.1742C60.4587 31.1334 60.7306 31.2477 60.9325 31.4482C61.1345 31.6486 61.2509 31.9195 61.2572 32.204V40.5073C61.2337 40.7772 61.1098 41.0285 60.9101 41.2116C60.7104 41.3946 60.4492 41.4962 60.1783 41.4962C59.9074 41.4962 59.6463 41.3946 59.4466 41.2116C59.2468 41.0285 59.1229 40.7772 59.0994 40.5073V33.1968H32.204C32.0636 33.1966 31.9248 33.1673 31.7963 33.1108C31.6678 33.0543 31.5524 32.9719 31.4573 32.8686L27.56 29.0534H18.6742V61.1917C18.6658 61.4508 18.558 61.6967 18.3732 61.8785C18.1883 62.0603 17.9406 62.164 17.6814 62.168Z" fill="black"/>
<path d="M59.6162 58.0983H25.9764C25.7065 58.0747 25.4552 57.9509 25.2721 57.7511C25.0891 57.5514 24.9875 57.2903 24.9875 57.0194C24.9875 56.7484 25.0891 56.4873 25.2721 56.2876C25.4552 56.0879 25.7065 55.964 25.9764 55.9404H59.6162C59.9014 55.9467 60.1733 56.0628 60.3751 56.2646C60.5768 56.4664 60.6929 56.7382 60.6992 57.0235C60.6659 57.2983 60.5409 57.5539 60.3444 57.749C60.1478 57.944 59.8913 58.0671 59.6162 58.0983Z" fill="black"/>
<path d="M58.0983 62.2499H17.6813C17.5211 62.251 17.3629 62.2135 17.2201 62.1406C17.0773 62.0678 16.9541 61.9618 16.8609 61.8315C16.7727 61.6989 16.712 61.55 16.6824 61.3936C16.6528 61.2371 16.6548 61.0764 16.6885 60.9207V60.8387L23.9088 40.1707C23.9835 39.968 24.1207 39.7944 24.3007 39.6749C24.4806 39.5554 24.694 39.4963 24.9098 39.5061H28.0604C28.3457 39.5124 28.6175 39.6285 28.8193 39.8303C29.0211 40.0321 29.1372 40.3039 29.1434 40.5892C29.1184 40.8527 28.9909 41.0958 28.7883 41.2662C28.5857 41.4365 28.3243 41.5205 28.0604 41.4999H25.6482L19.0843 60.1741H57.3434L63.9073 41.4999H56.0225C55.7525 41.4764 55.5013 41.3525 55.3182 41.1527C55.1351 40.953 55.0336 40.6919 55.0336 40.421C55.0336 40.15 55.1351 39.8889 55.3182 39.6892C55.5013 39.4895 55.7525 39.3656 56.0225 39.342H65.4006C65.5605 39.343 65.718 39.3813 65.8604 39.454C66.0029 39.5266 66.1264 39.6316 66.2211 39.7605C66.3938 40.0305 66.4528 40.3579 66.3852 40.6712L59.0828 61.4212C59.0366 61.6503 58.9141 61.8569 58.7352 62.0074C58.5564 62.1579 58.3319 62.2434 58.0983 62.2499Z" fill="black"/>
<path d="M56.0226 41.4999H28.0524C27.7679 41.4936 27.497 41.3772 27.2965 41.1752C27.0961 40.9732 26.9817 40.7014 26.9775 40.4169V37.3483C26.9818 37.0645 27.0964 36.7936 27.297 36.5929C27.4977 36.3923 27.7687 36.2777 28.0524 36.2734H56.1047C56.3892 36.2776 56.661 36.3919 56.863 36.5924C57.065 36.7928 57.1814 37.0638 57.1877 37.3483V40.5071C57.1315 40.7786 56.9864 41.0235 56.7754 41.2033C56.5644 41.3831 56.2995 41.4874 56.0226 41.4999ZM29.0534 39.4241H55.0298V38.3493H29.0534V39.4241Z" fill="black"/>
<path d="M52.9541 52.9869H29.0534C28.8715 52.9822 28.6934 52.9343 28.5336 52.8473C28.3739 52.7603 28.2371 52.6366 28.1345 52.4864C27.9859 52.1768 27.9567 51.8233 28.0524 51.4936L31.2113 45.2661C31.293 45.0933 31.4218 44.9469 31.5829 44.8439C31.7439 44.7409 31.9308 44.6853 32.122 44.6836H56.0227C56.2041 44.6902 56.3816 44.7389 56.541 44.8257C56.7005 44.9126 56.8376 45.0352 56.9416 45.1841C57.09 45.4966 57.1192 45.8526 57.0237 46.1851L53.873 52.3715C53.7872 52.5456 53.6571 52.6941 53.4958 52.8021C53.3345 52.9101 53.1477 52.9738 52.9541 52.9869ZM30.7108 50.9111H52.2895L54.3653 46.7594H32.7866L30.7108 50.9111Z" fill="black"/>
<path d="M58.0984 26.9774C57.684 26.9774 57.2736 26.8957 56.8908 26.7368C56.508 26.578 56.1603 26.3452 55.8677 26.0517C55.575 25.7583 55.3431 25.41 55.1852 25.0268C55.0274 24.6436 54.9467 24.233 54.9478 23.8186C54.9498 23.4093 55.0334 23.0044 55.1934 22.6277C55.3535 22.251 55.587 21.9099 55.8803 21.6243C56.1735 21.3387 56.5206 21.1143 56.9015 20.9642C57.2823 20.8141 57.6892 20.7413 58.0984 20.75C58.5129 20.7489 58.9234 20.8296 59.3066 20.9874C59.6898 21.1453 60.0381 21.3772 60.3316 21.6699C60.625 21.9626 60.8578 22.3102 61.0166 22.693C61.1755 23.0758 61.2573 23.4862 61.2573 23.9006C61.2563 24.3113 61.1733 24.7178 61.0132 25.096C60.8531 25.4742 60.619 25.8167 60.3248 26.1033C60.0306 26.3898 59.6821 26.6148 59.2998 26.7649C58.9175 26.915 58.5091 26.9873 58.0984 26.9774ZM58.0984 22.8258C57.8147 22.83 57.5437 22.9446 57.3431 23.1453C57.1424 23.3459 57.0278 23.6169 57.0236 23.9006C57.0267 24.0375 57.0572 24.1723 57.1132 24.2972C57.1693 24.4221 57.2498 24.5345 57.35 24.6278C57.4501 24.721 57.568 24.7933 57.6965 24.8404C57.8251 24.8874 57.9617 24.9082 58.0984 24.9016C58.3837 24.8953 58.6555 24.7792 58.8573 24.5774C59.059 24.3757 59.1752 24.1039 59.1814 23.8186C59.1569 23.548 59.0323 23.2962 58.832 23.1126C58.6317 22.929 58.3702 22.8267 58.0984 22.8258Z" fill="black"/>
<path d="M37.8489 24.9017C37.1267 24.9017 36.4209 24.6875 35.8204 24.2863C35.22 23.8851 34.752 23.3149 34.4757 22.6478C34.1993 21.9806 34.127 21.2465 34.2679 20.5382C34.4088 19.83 34.7565 19.1794 35.2671 18.6688C35.7777 18.1581 36.4283 17.8104 37.1366 17.6695C37.8448 17.5286 38.5789 17.6009 39.2461 17.8773C39.9133 18.1536 40.4835 18.6216 40.8847 19.222C41.2859 19.8225 41.5 20.5284 41.5 21.2505C41.4914 22.2162 41.1041 23.1399 40.4212 23.8228C39.7383 24.5057 38.8146 24.8931 37.8489 24.9017ZM37.8489 19.7572C37.5373 19.7572 37.2328 19.8496 36.9737 20.0227C36.7146 20.1958 36.5127 20.4419 36.3935 20.7297C36.2742 21.0176 36.2431 21.3343 36.3038 21.6399C36.3646 21.9455 36.5147 22.2262 36.735 22.4465C36.9553 22.6668 37.2359 22.8168 37.5415 22.8776C37.8471 22.9384 38.1639 22.9072 38.4517 22.788C38.7396 22.6687 38.9856 22.4668 39.1587 22.2078C39.3318 21.9487 39.4242 21.6441 39.4242 21.3326C39.4311 21.1238 39.395 20.9159 39.3183 20.7217C39.2415 20.5275 39.1257 20.3511 38.978 20.2034C38.8304 20.0557 38.654 19.9399 38.4598 19.8632C38.2655 19.7865 38.0576 19.7504 37.8489 19.7572Z" fill="black"/>
</g>
</svg>
