<svg width="83" height="83" viewBox="0 0 83 83" fill="none" xmlns="http://www.w3.org/2000/svg">
<g opacity="0.3">
<path d="M53.9467 62.2498L41.4999 53.9465L29.0532 62.2498V27.9946H53.9467V62.2498Z" fill="#B7C681"/>
<path d="M62.25 33.2869C62.8569 33.2869 63.4502 33.4669 63.9548 33.804C64.4595 34.1412 64.8528 34.6205 65.085 35.1812C65.3173 35.7419 65.3781 36.3589 65.2597 36.9541C65.1413 37.5494 64.849 38.0962 64.4198 38.5253C63.9907 38.9545 63.4439 39.2467 62.8487 39.3651C62.2534 39.4835 61.6364 39.4228 61.0757 39.1905C60.515 38.9582 60.0357 38.5649 59.6986 38.0603C59.3614 37.5557 59.1814 36.9624 59.1814 36.3555C59.1803 35.9522 59.259 35.5527 59.4128 35.1799C59.5666 34.8071 59.7926 34.4684 60.0778 34.1832C60.3629 33.8981 60.7016 33.6721 61.0744 33.5182C61.4472 33.3644 61.8467 33.2858 62.25 33.2869Z" fill="white"/>
<path d="M21.8248 44.6507C22.2357 44.649 22.6378 44.7694 22.9803 44.9965C23.3227 45.2236 23.59 45.5472 23.7484 45.9264C23.9068 46.3056 23.9491 46.7232 23.8699 47.1264C23.7907 47.5296 23.5937 47.9003 23.3037 48.1914C23.0137 48.4825 22.6439 48.681 22.241 48.7618C21.8381 48.8425 21.4203 48.8019 21.0405 48.645C20.6607 48.4882 20.336 48.2221 20.1076 47.8806C19.8791 47.5391 19.7571 47.1374 19.7571 46.7265C19.755 46.454 19.8069 46.1837 19.9099 45.9315C20.013 45.6792 20.1651 45.4498 20.3574 45.2567C20.5497 45.0636 20.7785 44.9106 21.0303 44.8066C21.2822 44.7026 21.5522 44.6496 21.8248 44.6507Z" fill="white"/>
<path d="M53.9549 23.9006H29.0532V28.0523H53.9549V23.9006Z" fill="white"/>
<path d="M53.9549 19.7571H29.0532V23.9087H53.9549V19.7571Z" fill="white"/>
<path d="M48.6382 39.3419L44.2404 42.5746L45.8978 47.7273L41.5 44.5684L37.1022 47.7273L38.7596 42.5746L34.3618 39.3419H39.8426L41.5 34.1975L43.1574 39.3419H48.6382Z" fill="white"/>
<path d="M62.9967 24.1548C63.0988 24.2508 63.1805 24.3664 63.2369 24.4947C63.2933 24.623 63.3232 24.7613 63.3249 24.9014C63.3327 25.0429 63.307 25.1842 63.25 25.3139C63.193 25.4437 63.1062 25.5581 62.9967 25.6481C62.9002 25.7494 62.7844 25.8306 62.6563 25.8869C62.5281 25.9433 62.3901 25.9736 62.2501 25.9762C61.9656 25.9721 61.6937 25.8577 61.4917 25.6573C61.2898 25.4568 61.1734 25.1859 61.167 24.9014C61.1603 24.7592 61.1872 24.6175 61.2457 24.4878C61.3041 24.358 61.3925 24.2439 61.5034 24.1548C61.599 24.0516 61.7144 23.9686 61.8426 23.9108C61.9709 23.853 62.1094 23.8216 62.2501 23.8184C62.3906 23.8225 62.5288 23.8543 62.657 23.9121C62.7851 23.9698 62.9006 24.0523 62.9967 24.1548Z" fill="black"/>
<path d="M62.9968 54.2501C63.0989 54.346 63.1806 54.4617 63.237 54.5899C63.2934 54.7182 63.3233 54.8566 63.325 54.9967C63.3327 55.1382 63.307 55.2795 63.25 55.4092C63.193 55.5389 63.1063 55.6534 62.9968 55.7433C62.9002 55.8447 62.7845 55.9259 62.6563 55.9822C62.5282 56.0386 62.3901 56.0689 62.2501 56.0715C61.9656 56.0673 61.6938 55.953 61.4918 55.7526C61.2898 55.5521 61.1734 55.2812 61.1671 54.9967C61.161 54.8546 61.1882 54.7131 61.2467 54.5834C61.3051 54.4538 61.393 54.3396 61.5035 54.2501C61.5991 54.1468 61.7144 54.0639 61.8427 54.0061C61.9709 53.9483 62.1095 53.9169 62.2501 53.9137C62.3922 53.9076 62.5337 53.9348 62.6634 53.9932C62.7931 54.0516 62.9072 54.1396 62.9968 54.2501Z" fill="black"/>
<path d="M59.8461 43.9039C60.0493 44.1 60.1672 44.3682 60.1743 44.6505C60.1894 44.7927 60.1671 44.9365 60.1095 45.0675C60.052 45.1985 59.9611 45.3121 59.8461 45.3971C59.7505 45.5004 59.6352 45.5833 59.5069 45.6411C59.3786 45.6989 59.2401 45.7303 59.0994 45.7335C58.8142 45.7273 58.5423 45.6111 58.3406 45.4094C58.1388 45.2076 58.0227 44.9358 58.0164 44.6505C58.0096 44.5083 58.0366 44.3666 58.0951 44.2368C58.1535 44.1071 58.2418 43.993 58.3528 43.9039C58.4488 43.8018 58.5644 43.7201 58.6927 43.6637C58.821 43.6073 58.9593 43.5773 59.0994 43.5757C59.2417 43.5605 59.3854 43.5828 59.5164 43.6404C59.6474 43.698 59.761 43.7888 59.8461 43.9039Z" fill="black"/>
<path d="M45.3153 31.457C45.4192 31.552 45.5027 31.6673 45.5605 31.7957C45.6184 31.9241 45.6494 32.0629 45.6517 32.2037C45.6591 32.346 45.6324 32.4879 45.5739 32.6178C45.5154 32.7477 45.4267 32.8617 45.3153 32.9503C45.2197 33.0535 45.1043 33.1365 44.9761 33.1943C44.8478 33.2521 44.7092 33.2835 44.5686 33.2867C44.2841 33.2804 44.0132 33.164 43.8127 32.962C43.6123 32.7601 43.498 32.4882 43.4938 32.2037C43.486 32.0622 43.5117 31.9209 43.5687 31.7912C43.6257 31.6615 43.7125 31.547 43.822 31.457C43.9185 31.3557 44.0343 31.2745 44.1624 31.2182C44.2906 31.1618 44.4286 31.1315 44.5686 31.1289C44.7109 31.1137 44.8546 31.1361 44.9856 31.1936C45.1166 31.2512 45.2302 31.342 45.3153 31.457Z" fill="black"/>
<path d="M44.3389 60.5104C44.441 60.6064 44.5227 60.722 44.5791 60.8503C44.6355 60.9786 44.6654 61.1169 44.6671 61.257C44.6736 61.3983 44.6473 61.5392 44.5904 61.6687C44.5335 61.7982 44.4474 61.9129 44.3389 62.0037C44.2424 62.105 44.1266 62.1862 43.9985 62.2425C43.8703 62.2989 43.7323 62.3292 43.5923 62.3318C43.3078 62.3276 43.0359 62.2133 42.834 62.0129C42.632 61.8124 42.5156 61.5415 42.5093 61.257C42.5004 61.1146 42.5264 60.9721 42.5851 60.842C42.6437 60.7119 42.7331 60.5981 42.8456 60.5104C42.94 60.4056 43.0551 60.3217 43.1836 60.2637C43.3122 60.2058 43.4513 60.1752 43.5923 60.174C43.7353 60.1597 43.8795 60.1833 44.0106 60.2424C44.1416 60.3014 44.2548 60.3938 44.3389 60.5104Z" fill="black"/>
<path d="M25.6484 54.2501C25.7505 54.3461 25.8322 54.4617 25.8886 54.59C25.9449 54.7182 25.9749 54.8566 25.9766 54.9967C25.9843 55.1382 25.9586 55.2795 25.9016 55.4092C25.8446 55.5389 25.7578 55.6534 25.6484 55.7434C25.5518 55.8447 25.4361 55.9259 25.3079 55.9822C25.1798 56.0386 25.0417 56.0689 24.9017 56.0715C24.6307 56.0665 24.371 55.9616 24.1727 55.7769C23.9743 55.5921 23.8511 55.3406 23.8269 55.0706C23.8195 54.9283 23.8461 54.7863 23.9046 54.6565C23.9631 54.5266 24.0518 54.4126 24.1633 54.3239C24.2589 54.2207 24.3742 54.1377 24.5025 54.08C24.6307 54.0222 24.7693 53.9907 24.9099 53.9875C25.0448 53.9735 25.1811 53.9899 25.3088 54.0353C25.4366 54.0807 25.5526 54.1541 25.6484 54.2501Z" fill="black"/>
<path d="M24.5652 35.6087C24.67 35.7031 24.754 35.8182 24.8119 35.9467C24.8698 36.0752 24.9003 36.2144 24.9016 36.3553C24.9091 36.4976 24.8824 36.6396 24.8239 36.7694C24.7654 36.8993 24.6767 37.0133 24.5652 37.102C24.4103 37.2322 24.2212 37.3153 24.0205 37.3414C23.8197 37.3675 23.6157 37.3354 23.4326 37.249C23.2495 37.1627 23.0951 37.0256 22.9875 36.8541C22.88 36.6826 22.8238 36.4839 22.8258 36.2815C22.8174 36.1399 22.8428 35.9984 22.8998 35.8686C22.9569 35.7388 23.044 35.6244 23.154 35.5349C23.3572 35.3408 23.6206 35.2221 23.9006 35.1985C24.1649 35.2493 24.4014 35.3953 24.5652 35.6087Z" fill="black"/>
<path d="M21.4966 22.0791C21.5987 22.175 21.6804 22.2906 21.7368 22.4189C21.7932 22.5472 21.8232 22.6856 21.8248 22.8257C21.8326 22.9672 21.8069 23.1085 21.7499 23.2382C21.6929 23.3679 21.6061 23.4824 21.4966 23.5723C21.4001 23.6737 21.2844 23.7549 21.1562 23.8113C21.028 23.8676 20.89 23.8979 20.75 23.9005C20.4663 23.8963 20.1953 23.7817 19.9947 23.581C19.794 23.3804 19.6794 23.1095 19.6752 22.8257C19.6674 22.6842 19.6931 22.5429 19.7501 22.4132C19.8071 22.2835 19.8939 22.169 20.0034 22.0791C20.0995 21.9766 20.215 21.8941 20.3431 21.8364C20.4713 21.7786 20.6095 21.7468 20.75 21.7427C21.0175 21.8078 21.2706 21.9218 21.4966 22.0791Z" fill="black"/>
<path d="M45.8979 48.8021C45.6932 48.7961 45.4931 48.7397 45.3153 48.638L41.5001 45.8155L37.6849 48.556C37.4994 48.6771 37.2828 48.7416 37.0613 48.7416C36.8398 48.7416 36.6232 48.6771 36.4377 48.556C36.2706 48.4166 36.1437 48.2351 36.0701 48.0303C35.9966 47.8255 35.979 47.6048 36.0193 47.3909L37.4305 42.9111L33.6153 40.1707C33.4481 40.0331 33.3211 39.8531 33.2474 39.6496C33.1738 39.446 33.1563 39.2264 33.1968 39.0138C33.2648 38.7997 33.3976 38.612 33.577 38.4768C33.7563 38.3415 33.9733 38.2654 34.1978 38.2589H38.8417L40.253 33.7791C40.3223 33.5665 40.4558 33.3807 40.635 33.247C40.8142 33.1133 41.0304 33.0384 41.254 33.0325C41.4773 33.0352 41.694 33.109 41.8726 33.2433C42.0511 33.3775 42.1822 33.5652 42.2467 33.7791L43.658 38.2589H48.3019C48.5277 38.2604 48.7471 38.3346 48.9274 38.4706C49.1077 38.6066 49.2394 38.797 49.3029 39.0138C49.3813 39.2249 49.3823 39.4571 49.3057 39.6689C49.2291 39.8807 49.0798 40.0586 48.8844 40.1707L45.0692 42.9111L46.4804 47.3909C46.5594 47.6033 46.5607 47.8367 46.4841 48.0499C46.4075 48.2631 46.258 48.4424 46.062 48.556C46.3163 48.7201 46.144 48.8021 45.8979 48.8021ZM41.5001 43.4936C41.705 43.4986 41.9053 43.5551 42.0826 43.6577L43.9041 44.9869L43.2395 42.829C43.1606 42.6167 43.1593 42.3832 43.2359 42.17C43.3124 41.9568 43.462 41.7775 43.658 41.6639L45.4876 40.3019H43.1575C42.9338 40.3005 42.7165 40.2272 42.5377 40.0927C42.3589 39.9582 42.2281 39.7699 42.1647 39.5553L41.5001 37.4795L40.8355 39.6373C40.7691 39.8508 40.6377 40.0382 40.4598 40.1735C40.2819 40.3088 40.0662 40.3852 39.8427 40.3922H37.6028L39.4243 41.7131C39.5914 41.8525 39.7183 42.034 39.7919 42.2388C39.8654 42.4436 39.883 42.6644 39.8427 42.8783L39.1781 45.0361L40.9996 43.707C41.0543 43.6277 41.1303 43.5655 41.2189 43.5277C41.3075 43.49 41.405 43.4782 41.5001 43.4936Z" fill="black"/>
<path d="M53.9467 63.3328C53.7458 63.3135 53.5507 63.255 53.3723 63.1605L41.5 55.1936L29.6276 63.0785C29.4754 63.1942 29.2929 63.2635 29.1023 63.2781C28.9116 63.2926 28.7208 63.2518 28.5528 63.1605C28.3787 63.0804 28.2312 62.952 28.128 62.7906C28.0247 62.6291 27.9699 62.4414 27.9702 62.2498V28.0521C27.9938 27.7822 28.1176 27.5309 28.3174 27.3478C28.5171 27.1648 28.7782 27.0632 29.0492 27.0632C29.3201 27.0632 29.5812 27.1648 29.7809 27.3478C29.9807 27.5309 30.1045 27.7822 30.1281 28.0521V60.338L40.9174 53.1178C41.0878 52.9974 41.2913 52.9327 41.5 52.9327C41.7086 52.9327 41.9121 52.9974 42.0825 53.1178L52.9539 60.338V28.0521C52.9775 27.7822 53.1013 27.5309 53.3011 27.3478C53.5008 27.1648 53.7619 27.0632 54.0328 27.0632C54.3038 27.0632 54.5649 27.1648 54.7646 27.3478C54.9643 27.5309 55.0882 27.7822 55.1118 28.0521V62.2498C55.112 62.4414 55.0573 62.6291 54.954 62.7906C54.8508 62.952 54.7033 63.0804 54.5292 63.1605C54.3443 63.2456 54.1481 63.3037 53.9467 63.3328Z" fill="black"/>
<path d="M53.9467 29.0531H29.0532C28.768 29.0468 28.4961 28.9307 28.2944 28.729C28.0926 28.5272 27.9765 28.2553 27.9702 27.9701V23.8184C27.9938 23.5485 28.1176 23.2972 28.3174 23.1142C28.5171 22.9311 28.7782 22.8296 29.0492 22.8296C29.3201 22.8296 29.5812 22.9311 29.7809 23.1142C29.9807 23.2972 30.1045 23.5485 30.1281 23.8184V26.9773H52.9539V23.8184C52.9775 23.5485 53.1013 23.2972 53.3011 23.1142C53.5008 22.9311 53.7619 22.8296 54.0328 22.8296C54.3038 22.8296 54.5649 22.9311 54.7646 23.1142C54.9643 23.2972 55.0882 23.5485 55.1118 23.8184V27.9947C55.0703 28.2788 54.9314 28.5397 54.7189 28.7327C54.5064 28.9258 54.2334 29.039 53.9467 29.0531Z" fill="black"/>
<path d="M53.9467 24.9015H29.0532C28.768 24.8952 28.4961 24.7791 28.2944 24.5773C28.0926 24.3756 27.9765 24.1037 27.9702 23.8185V19.716C27.9765 19.4308 28.0926 19.159 28.2944 18.9572C28.4961 18.7554 28.768 18.6393 29.0532 18.6331H53.9467C54.232 18.6393 54.5038 18.7554 54.7056 18.9572C54.9073 19.159 55.0234 19.4308 55.0297 19.716V23.8185C55.0234 24.1037 54.9073 24.3756 54.7056 24.5773C54.5038 24.7791 54.232 24.8952 53.9467 24.9015ZM30.1527 22.8257H52.9539V20.7499H30.1281L30.1527 22.8257Z" fill="black"/>
<path d="M35.3137 33.1966H29.0945C28.9449 33.2097 28.7942 33.1915 28.652 33.1432C28.5098 33.0949 28.3792 33.0176 28.2685 32.9161C28.1578 32.8146 28.0694 32.6913 28.0089 32.5538C27.9485 32.4164 27.9172 32.2679 27.9172 32.1177C27.9172 31.9675 27.9485 31.819 28.0089 31.6815C28.0694 31.5441 28.1578 31.4207 28.2685 31.3193C28.3792 31.2178 28.5098 31.1404 28.652 31.0922C28.7942 31.0439 28.9449 31.0257 29.0945 31.0388H35.3137C35.4633 31.0257 35.614 31.0439 35.7562 31.0922C35.8984 31.1404 36.0289 31.2178 36.1397 31.3193C36.2504 31.4207 36.3387 31.5441 36.3992 31.6815C36.4597 31.819 36.4909 31.9675 36.4909 32.1177C36.4909 32.2679 36.4597 32.4164 36.3992 32.5538C36.3387 32.6913 36.2504 32.8146 36.1397 32.9161C36.0289 33.0176 35.8984 33.0949 35.7562 33.1432C35.614 33.1915 35.4633 33.2097 35.3137 33.1966Z" fill="black"/>
<path d="M53.9468 33.1966H47.7275C47.5779 33.2097 47.4272 33.1915 47.285 33.1432C47.1429 33.0949 47.0123 33.0176 46.9016 32.9161C46.7909 32.8146 46.7025 32.6913 46.642 32.5538C46.5815 32.4164 46.5503 32.2679 46.5503 32.1177C46.5503 31.9675 46.5815 31.819 46.642 31.6815C46.7025 31.5441 46.7909 31.4207 46.9016 31.3193C47.0123 31.2178 47.1429 31.1404 47.285 31.0922C47.4272 31.0439 47.5779 31.0257 47.7275 31.0388H53.9468C54.0964 31.0257 54.247 31.0439 54.3892 31.0922C54.5314 31.1404 54.662 31.2178 54.7727 31.3193C54.8834 31.4207 54.9718 31.5441 55.0323 31.6815C55.0927 31.819 55.124 31.9675 55.124 32.1177C55.124 32.2679 55.0927 32.4164 55.0323 32.5538C54.9718 32.6913 54.8834 32.8146 54.7727 32.9161C54.662 33.0176 54.5314 33.0949 54.3892 33.1432C54.247 33.1915 54.0964 33.2097 53.9468 33.1966Z" fill="black"/>
<path d="M21.8249 49.8031C21.2001 49.8031 20.5894 49.6178 20.0699 49.2707C19.5504 48.9236 19.1456 48.4302 18.9065 47.853C18.6674 47.2758 18.6048 46.6407 18.7267 46.0279C18.8486 45.4152 19.1495 44.8523 19.5912 44.4106C20.033 43.9688 20.5958 43.6679 21.2086 43.5461C21.8214 43.4242 22.4565 43.4867 23.0337 43.7258C23.6109 43.9649 24.1043 44.3698 24.4514 44.8893C24.7985 45.4087 24.9837 46.0194 24.9837 46.6442C24.971 47.478 24.6341 48.2741 24.0445 48.8638C23.4548 49.4535 22.6587 49.7904 21.8249 49.8031ZM21.8249 45.6514C21.6103 45.6515 21.4006 45.7152 21.2223 45.8345C21.044 45.9539 20.9052 46.1236 20.8235 46.3219C20.7418 46.5203 20.7208 46.7385 20.7633 46.9488C20.8057 47.1591 20.9097 47.3521 21.062 47.5032C21.2143 47.6543 21.408 47.7568 21.6187 47.7977C21.8293 47.8386 22.0473 47.8159 22.2451 47.7327C22.4428 47.6495 22.6114 47.5094 22.7294 47.3302C22.8474 47.151 22.9095 46.9408 22.9079 46.7263C22.8885 46.4462 22.768 46.1827 22.5687 45.985C22.3694 45.7872 22.1051 45.6687 21.8249 45.6514Z" fill="black"/>
<path d="M62.25 40.5071C61.4289 40.5071 60.6262 40.2636 59.9435 39.8074C59.2608 39.3512 58.7286 38.7029 58.4144 37.9443C58.1002 37.1857 58.018 36.3509 58.1782 35.5455C58.3384 34.7402 58.7338 34.0005 59.3144 33.4199C59.895 32.8392 60.6347 32.4438 61.4401 32.2836C62.2454 32.1234 63.0802 32.2057 63.8388 32.5199C64.5974 32.8341 65.2458 33.3662 65.702 34.0489C66.1582 34.7317 66.4017 35.5344 66.4017 36.3555C66.3973 37.4552 65.9586 38.5087 65.1809 39.2864C64.4033 40.064 63.3498 40.5028 62.25 40.5071ZM62.25 34.2796C61.8395 34.2796 61.4381 34.4014 61.0968 34.6295C60.7554 34.8576 60.4893 35.1818 60.3322 35.5611C60.1751 35.9404 60.134 36.3578 60.2141 36.7605C60.2942 37.1631 60.4919 37.533 60.7822 37.8233C61.0725 38.1136 61.4424 38.3113 61.8451 38.3914C62.2477 38.4715 62.6651 38.4304 63.0444 38.2733C63.4237 38.1162 63.7479 37.8501 63.976 37.5087C64.2041 37.1674 64.3258 36.766 64.3258 36.3555C64.3292 36.082 64.2777 35.8105 64.1746 35.5572C64.0714 35.3039 63.9186 35.0737 63.7252 34.8803C63.5318 34.6869 63.3016 34.5341 63.0483 34.4309C62.795 34.3278 62.5235 34.2763 62.25 34.2796Z" fill="black"/>
</g>
</svg>
