<svg width="83" height="83" viewBox="0 0 83 83" fill="none" xmlns="http://www.w3.org/2000/svg">
<g opacity="0.3">
<path d="M53.2001 23.8923C54.5058 23.8923 55.7579 24.411 56.6811 25.3342C57.6044 26.2575 58.123 27.5096 58.123 28.8152V56.4573C58.123 57.7629 57.6044 59.015 56.6811 59.9383C55.7579 60.8615 54.5058 61.3802 53.2001 61.3802H31.7855C31.1363 61.3901 30.4917 61.2696 29.8899 61.0257C29.2881 60.7819 28.7415 60.4196 28.2823 59.9605C27.8232 59.5014 27.4609 58.9547 27.2171 58.3529C26.9732 57.7511 26.8527 57.1065 26.8626 56.4573V28.8152C26.8626 27.5096 27.3813 26.2575 28.3045 25.3342C29.2277 24.411 30.4799 23.8923 31.7855 23.8923H53.2001Z" fill="#B7C681"/>
<path d="M20.2495 23.8925C20.4665 23.8769 20.6844 23.9061 20.8896 23.9784C21.0948 24.0507 21.2829 24.1644 21.4421 24.3126C21.6014 24.4608 21.7284 24.6403 21.8153 24.8397C21.9022 25.0392 21.947 25.2544 21.947 25.4719C21.947 25.6895 21.9022 25.9047 21.8153 26.1042C21.7284 26.3036 21.6014 26.4831 21.4421 26.6313C21.2829 26.7795 21.0948 26.8932 20.8896 26.9655C20.6844 27.0378 20.4665 27.067 20.2495 27.0514C19.8503 27.0226 19.4768 26.8437 19.2041 26.5506C18.9315 26.2576 18.7799 25.8722 18.7799 25.4719C18.7799 25.0717 18.9315 24.6863 19.2041 24.3933C19.4768 24.1002 19.8503 23.9213 20.2495 23.8925Z" fill="white"/>
<path d="M61.7496 18.6743C62.2595 18.6727 62.7584 18.8224 63.1831 19.1045C63.6079 19.3866 63.9394 19.7884 64.1356 20.259C64.3319 20.7296 64.3841 21.2478 64.2856 21.7481C64.1871 22.2484 63.9424 22.7083 63.5824 23.0694C63.2224 23.4305 62.7634 23.6767 62.2634 23.7768C61.7635 23.8768 61.245 23.8263 60.7738 23.6316C60.3025 23.4368 59.8997 23.1066 59.6162 22.6828C59.3328 22.2589 59.1815 21.7605 59.1815 21.2506C59.176 20.9115 59.2385 20.5746 59.3656 20.2601C59.4926 19.9456 59.6814 19.6597 59.9209 19.4195C60.1603 19.1793 60.4456 18.9895 60.7597 18.8615C61.0738 18.7335 61.4104 18.6699 61.7496 18.6743Z" fill="white"/>
<path d="M52.9539 28.0522H39.4242V32.2039H52.9539V28.0522Z" fill="white"/>
<path d="M52.8719 48.2197C53.6301 48.998 54.0545 50.0417 54.0545 51.1283C54.0545 52.2149 53.6301 53.2586 52.8719 54.0369C47.8915 59.009 31.2111 42.2466 36.1914 37.3483C36.5725 36.9663 37.0252 36.6631 37.5236 36.4563C38.022 36.2495 38.5563 36.1431 39.096 36.1431C39.6356 36.1431 40.1699 36.2495 40.6683 36.4563C41.1667 36.6631 41.6194 36.9663 42.0005 37.3483C42.7582 38.1252 43.1824 39.1675 43.1824 40.2528C43.1824 41.3381 42.7582 42.3804 42.0005 43.1573L41.6641 43.4937L46.8085 48.6381C46.8987 48.474 47.0628 48.392 47.1449 48.3017C47.5111 47.9127 47.9518 47.6014 48.4407 47.386C48.9296 47.1706 49.4568 47.0557 49.991 47.048C50.5252 47.0404 51.0555 47.1402 51.5504 47.3414C52.0453 47.5427 52.4946 47.8414 52.8719 48.2197Z" fill="white"/>
<path d="M56.0226 62.25C56.2371 62.2484 56.4473 62.3105 56.6265 62.4286C56.8057 62.5466 56.9458 62.7151 57.029 62.9129C57.1122 63.1106 57.1349 63.3287 57.094 63.5393C57.0532 63.7499 56.9507 63.9437 56.7995 64.096C56.6484 64.2483 56.4554 64.3522 56.2451 64.3946C56.0348 64.4371 55.8166 64.4162 55.6183 64.3344C55.4199 64.2527 55.2502 64.1139 55.1309 63.9356C55.0115 63.7573 54.9478 63.5476 54.9478 63.3331C54.9667 63.0535 55.0858 62.79 55.2832 62.5911C55.4806 62.3922 55.7431 62.2711 56.0226 62.25Z" fill="black"/>
<path d="M51.8791 19.79C52.0936 19.79 52.3034 19.8538 52.4816 19.9731C52.6599 20.0925 52.7987 20.2622 52.8804 20.4605C52.9622 20.6589 52.9831 20.8771 52.9407 21.0874C52.8982 21.2977 52.7942 21.4906 52.642 21.6418C52.4897 21.7929 52.2959 21.8954 52.0853 21.9363C51.8747 21.9772 51.6567 21.9545 51.4589 21.8713C51.2612 21.7881 51.0926 21.648 50.9746 21.4688C50.8565 21.2896 50.7944 21.0794 50.7961 20.8649C50.8003 20.5797 50.9161 20.3076 51.1185 20.1067C51.3209 19.9058 51.5939 19.7922 51.8791 19.79Z" fill="black"/>
<path d="M26.9775 18.6743C27.1917 18.6743 27.401 18.7378 27.5791 18.8569C27.7572 18.9759 27.8961 19.145 27.978 19.3429C28.06 19.5408 28.0815 19.7586 28.0397 19.9686C27.9979 20.1787 27.8947 20.3717 27.7433 20.5232C27.5918 20.6746 27.3988 20.7778 27.1887 20.8196C26.9786 20.8614 26.7609 20.8399 26.563 20.7579C26.3651 20.676 26.1959 20.5372 26.0769 20.359C25.9579 20.1809 25.8944 19.9716 25.8944 19.7574C25.9136 19.4764 26.0338 19.2119 26.2329 19.0128C26.432 18.8137 26.6965 18.6935 26.9775 18.6743Z" fill="black"/>
<path d="M21.8331 61.2572C22.0476 61.2572 22.2574 61.3209 22.4356 61.4403C22.6139 61.5597 22.7527 61.7293 22.8344 61.9277C22.9162 62.1261 22.9371 62.3442 22.8947 62.5546C22.8522 62.7649 22.7483 62.9578 22.596 63.109C22.4437 63.2601 22.2499 63.3626 22.0393 63.4034C21.8287 63.4443 21.6107 63.4217 21.4129 63.3384C21.2152 63.2552 21.0466 63.1151 20.9286 62.936C20.8105 62.7568 20.7484 62.5466 20.7501 62.332C20.7454 62.1889 20.7703 62.0464 20.8232 61.9134C20.8761 61.7803 20.9559 61.6596 21.0575 61.5587C21.1591 61.4579 21.2805 61.3791 21.4139 61.3272C21.5473 61.2753 21.69 61.2515 21.8331 61.2572Z" fill="black"/>
<path d="M20.7501 40.5071C20.965 40.5055 21.1755 40.5678 21.3548 40.6862C21.5342 40.8046 21.6743 40.9737 21.7573 41.1719C21.8402 41.3701 21.8624 41.5885 21.8209 41.7994C21.7793 42.0102 21.676 42.204 21.524 42.356C21.3721 42.5079 21.1783 42.6112 20.9675 42.6528C20.7566 42.6943 20.5382 42.6722 20.34 42.5892C20.1418 42.5062 19.9727 42.3661 19.8543 42.1867C19.7359 42.0074 19.6736 41.7968 19.6752 41.5819C19.6815 41.2988 19.7967 41.0291 19.997 40.8289C20.1972 40.6286 20.467 40.5134 20.7501 40.5071Z" fill="black"/>
<path d="M53.2001 62.2501H31.8675C30.4518 62.2447 29.0852 61.7304 28.0172 60.801C26.9493 59.8716 26.2512 58.5892 26.0503 57.1877C25.9827 56.8891 25.9551 56.5828 25.9683 56.277V28.717C25.9748 27.1552 26.5986 25.6593 27.7038 24.5556C28.8089 23.452 30.3057 22.8302 31.8675 22.8259H53.2001C54.7619 22.8302 56.2587 23.452 57.3638 24.5556C58.469 25.6593 59.0929 27.1552 59.0993 28.717V56.359C59.1093 57.1361 58.9634 57.9073 58.6704 58.6271C58.3773 59.3469 57.943 60.0006 57.3931 60.5497C56.8432 61.0989 56.1889 61.5322 55.4687 61.8243C54.7485 62.1163 53.9771 62.2611 53.2001 62.2501ZM31.8675 24.9017C31.3655 24.8996 30.868 24.9967 30.4037 25.1876C29.9394 25.3784 29.5174 25.6593 29.162 26.0139C28.8067 26.3685 28.525 26.7898 28.3331 27.2537C28.1412 27.7177 28.043 28.215 28.0441 28.717V56.359C28.0314 56.5568 28.0593 56.7551 28.1261 56.9416C28.2745 57.8473 28.7411 58.6703 29.4419 59.2628C30.1427 59.8554 31.0319 60.1785 31.9496 60.1743H53.3642C53.8658 60.1764 54.3629 60.0793 54.8268 59.8883C55.2906 59.6973 55.7121 59.4164 56.0668 59.0617C56.4215 58.707 56.7025 58.2855 56.8934 57.8216C57.0844 57.3578 57.1816 56.8607 57.1794 56.359V28.717C57.1816 28.2154 57.0844 27.7183 56.8934 27.2544C56.7025 26.7905 56.4215 26.3691 56.0668 26.0144C55.7121 25.6597 55.2906 25.3787 54.8268 25.1877C54.3629 24.9968 53.8658 24.8996 53.3642 24.9017H31.8675Z" fill="black"/>
<path d="M30.1281 33.1966H25.4842C24.9757 33.1943 24.4793 33.042 24.057 32.7589C23.6346 32.4757 23.3052 32.0743 23.1099 31.6049C22.9146 31.1355 22.8621 30.6189 22.959 30.1197C23.0558 29.6206 23.2978 29.1611 23.6545 28.7988C24.1429 28.3197 24.8 28.0516 25.4842 28.0522H27.0595C27.3294 28.0758 27.5807 28.1996 27.7637 28.3993C27.9468 28.5991 28.0483 28.8602 28.0483 29.1311C28.0483 29.4021 27.9468 29.6631 27.7637 29.8629C27.5807 30.0626 27.3294 30.1865 27.0595 30.2101H25.4842C25.3119 30.2101 25.1478 30.2921 25.1478 30.3823C25.0977 30.4214 25.057 30.4711 25.0286 30.5279C25.0002 30.5847 24.9849 30.6471 24.9837 30.7106C24.9931 30.8401 25.0489 30.962 25.1408 31.0539C25.2327 31.1458 25.3546 31.2015 25.4842 31.211H30.1281C30.2922 31.211 30.4645 31.129 30.4645 31.0388C30.5145 30.9997 30.5552 30.95 30.5836 30.8932C30.612 30.8364 30.6274 30.774 30.6286 30.7106C30.6191 30.581 30.5633 30.4591 30.4714 30.3672C30.3795 30.2753 30.2577 30.2196 30.1281 30.2101C29.8582 30.1865 29.6069 30.0626 29.4238 29.8629C29.2408 29.6631 29.1392 29.4021 29.1392 29.1311C29.1392 28.8602 29.2408 28.5991 29.4238 28.3993C29.6069 28.1996 29.8582 28.0758 30.1281 28.0522C30.4781 28.0324 30.8285 28.0843 31.1577 28.2046C31.487 28.3249 31.7882 28.5112 32.043 28.752C32.2978 28.9928 32.5008 29.2831 32.6395 29.605C32.7782 29.927 32.8497 30.2739 32.8497 30.6244C32.8497 30.975 32.7782 31.3219 32.6395 31.6438C32.5008 31.9658 32.2978 32.256 32.043 32.4968C31.7882 32.7376 31.487 32.9239 31.1577 33.0442C30.8285 33.1645 30.4781 33.2164 30.1281 33.1966Z" fill="black"/>
<path d="M30.1282 39.4242H25.4842C25.1342 39.444 24.7839 39.3922 24.4546 39.2718C24.1253 39.1515 23.8241 38.9652 23.5693 38.7244C23.3145 38.4836 23.1115 38.1934 22.9728 37.8714C22.8341 37.5494 22.7626 37.2026 22.7626 36.852C22.7626 36.5014 22.8341 36.1546 22.9728 35.8326C23.1115 35.5107 23.3145 35.2204 23.5693 34.9796C23.8241 34.7388 24.1253 34.5525 24.4546 34.4322C24.7839 34.3119 25.1342 34.26 25.4842 34.2798H27.0595C27.3294 34.3033 27.5807 34.4272 27.7638 34.627C27.9469 34.8267 28.0484 35.0878 28.0484 35.3587C28.0484 35.6297 27.9469 35.8908 27.7638 36.0905C27.5807 36.2902 27.3294 36.4141 27.0595 36.4377H25.4842C25.3119 36.4377 25.1478 36.5197 25.1478 36.6018C24.9837 36.5197 24.9017 36.6838 24.9017 36.8479C24.9093 36.9768 24.9633 37.0985 25.0539 37.1906C25.1444 37.2826 25.2652 37.3387 25.394 37.3484H30.0461C30.2102 37.3484 30.3825 37.2664 30.3825 37.1843C30.4336 37.1444 30.475 37.0934 30.5034 37.0351C30.5319 36.9768 30.5466 36.9128 30.5466 36.8479C30.5369 36.7192 30.4808 36.5983 30.3888 36.5078C30.2967 36.4173 30.175 36.3632 30.0461 36.3556C29.7762 36.3321 29.5249 36.2082 29.3419 36.0085C29.1588 35.8087 29.0572 35.5476 29.0572 35.2767C29.0572 35.0058 29.1588 34.7446 29.3419 34.5449C29.5249 34.3452 29.7762 34.2213 30.0461 34.1978C30.7273 34.1999 31.3801 34.4709 31.8626 34.9518C32.345 35.4327 32.6181 36.0847 32.6224 36.7659C32.6231 37.4501 32.3549 38.1071 31.8758 38.5955C31.6727 38.8641 31.4077 39.0797 31.1035 39.224C30.7992 39.3682 30.4646 39.4369 30.1282 39.4242Z" fill="black"/>
<path d="M30.1281 45.6516H25.4841C24.8022 45.6473 24.1494 45.3745 23.6672 44.8922C23.1849 44.41 22.9121 43.7572 22.9078 43.0752C22.905 42.7373 22.9696 42.4021 23.0978 42.0894C23.226 41.7766 23.4152 41.4925 23.6544 41.2537C23.8953 41.015 24.1809 40.8262 24.4949 40.698C24.8088 40.5699 25.145 40.505 25.4841 40.5071H27.0594C27.3294 40.5307 27.5806 40.6545 27.7637 40.8543C27.9468 41.054 28.0483 41.3151 28.0483 41.5861C28.0483 41.857 27.9468 42.1181 27.7637 42.3178C27.5806 42.5175 27.3294 42.6414 27.0594 42.665H25.4841C25.358 42.6802 25.2405 42.7367 25.1499 42.8258C25.0593 42.9148 25.0009 43.0314 24.9836 43.1573C24.9914 43.2875 25.0467 43.4103 25.1389 43.5025C25.2311 43.5947 25.3539 43.65 25.4841 43.6578H30.1281C30.1927 43.6567 30.2563 43.6413 30.3144 43.613C30.3725 43.5846 30.4238 43.5439 30.4645 43.4937C30.5156 43.4538 30.5569 43.4028 30.5854 43.3445C30.6138 43.2862 30.6286 43.2221 30.6285 43.1573C30.6188 43.0285 30.5628 42.9077 30.4707 42.8172C30.3787 42.7267 30.2569 42.6726 30.1281 42.665C29.8582 42.6414 29.6069 42.5175 29.4238 42.3178C29.2408 42.1181 29.1392 41.857 29.1392 41.5861C29.1392 41.3151 29.2408 41.054 29.4238 40.8543C29.6069 40.6545 29.8582 40.5307 30.1281 40.5071C30.8093 40.5093 31.4621 40.7803 31.9445 41.2612C32.427 41.7421 32.7 42.3941 32.7044 43.0752C32.7077 43.4145 32.6433 43.751 32.515 44.065C32.3867 44.3791 32.197 44.6644 31.9571 44.9043C31.7172 45.1442 31.4319 45.3338 31.1179 45.4621C30.8038 45.5904 30.4673 45.6549 30.1281 45.6516Z" fill="black"/>
<path d="M30.1281 51.8792H25.4842C24.8009 51.8792 24.1456 51.6078 23.6624 51.1246C23.1793 50.6415 22.9078 49.9862 22.9078 49.3029C22.9078 48.6196 23.1793 47.9643 23.6624 47.4812C24.1456 46.998 24.8009 46.7266 25.4842 46.7266H27.0595C27.3294 46.7502 27.5807 46.874 27.7637 47.0738C27.9468 47.2735 28.0483 47.5346 28.0483 47.8055C28.0483 48.0765 27.9468 48.3376 27.7637 48.5373C27.5807 48.737 27.3294 48.8609 27.0595 48.8845H25.4842C25.4184 48.8841 25.3535 48.8996 25.2949 48.9296C25.2364 48.9595 25.1859 49.0032 25.1478 49.0568C24.9837 48.9665 24.9016 49.1388 24.9016 49.3029C24.9092 49.4318 24.9633 49.5535 25.0538 49.6456C25.1443 49.7376 25.2652 49.7937 25.3939 49.8034H30.046C30.111 49.7997 30.1745 49.7824 30.2324 49.7527C30.2904 49.7231 30.3414 49.6816 30.3824 49.6311C30.4325 49.592 30.4732 49.5423 30.5016 49.4856C30.53 49.4288 30.5453 49.3664 30.5465 49.3029C30.537 49.1733 30.4813 49.0515 30.3894 48.9596C30.2975 48.8677 30.1756 48.8119 30.046 48.8024C29.7761 48.7788 29.5249 48.655 29.3418 48.4553C29.1587 48.2555 29.0572 47.9944 29.0572 47.7235C29.0572 47.4525 29.1587 47.1915 29.3418 46.9917C29.5249 46.792 29.7761 46.6681 30.046 46.6445C30.5545 46.6469 31.0509 46.7992 31.4732 47.0823C31.8956 47.3654 32.225 47.7668 32.4203 48.2363C32.6156 48.7057 32.6681 49.2223 32.5712 49.7214C32.4744 50.2206 32.2324 50.6801 31.8757 51.0424C31.673 51.3119 31.4084 51.5287 31.1042 51.6743C30.8 51.82 30.4652 51.8903 30.1281 51.8792Z" fill="black"/>
<path d="M30.1282 58.0982H25.4842C25.1342 58.118 24.7839 58.0661 24.4546 57.9458C24.1253 57.8255 23.8241 57.6392 23.5693 57.3985C23.3145 57.1577 23.1115 56.8674 22.9728 56.5454C22.8341 56.2235 22.7626 55.8766 22.7626 55.526C22.7626 55.1755 22.8341 54.8286 22.9728 54.5066C23.1115 54.1847 23.3145 53.8944 23.5693 53.6537C23.8241 53.4129 24.1253 53.2266 24.4546 53.1062C24.7839 52.9859 25.1342 52.934 25.4842 52.9538H27.0595C27.3294 52.9774 27.5807 53.1013 27.7638 53.301C27.9469 53.5007 28.0484 53.7618 28.0484 54.0327C28.0484 54.3037 27.9469 54.5648 27.7638 54.7645C27.5807 54.9643 27.3294 55.0881 27.0595 55.1117H25.4842C25.4194 55.1117 25.3554 55.1265 25.2971 55.1549C25.2388 55.1833 25.1877 55.2247 25.1478 55.2758C25.0976 55.3165 25.0569 55.3677 25.0285 55.4258C25.0002 55.4839 24.9849 55.5475 24.9837 55.6122C24.9934 55.7409 25.0495 55.8618 25.1416 55.9523C25.2336 56.0428 25.3553 56.0969 25.4842 56.1045H30.1282C30.1928 56.1033 30.2564 56.0881 30.3145 56.0597C30.3726 56.0314 30.4239 55.9906 30.4646 55.9404C30.5146 55.9013 30.5553 55.8516 30.5837 55.7948C30.6121 55.738 30.6274 55.6756 30.6286 55.6122C30.6208 55.482 30.5656 55.3591 30.4734 55.2669C30.3812 55.1747 30.2584 55.1195 30.1282 55.1117C29.8444 55.1074 29.5735 54.9928 29.3728 54.7922C29.1722 54.5915 29.0576 54.3206 29.0533 54.0369C29.0565 53.9 29.0869 53.7652 29.143 53.6403C29.199 53.5154 29.2795 53.4031 29.3797 53.3098C29.4799 53.2165 29.5977 53.1442 29.7262 53.0971C29.8548 53.0501 29.9914 53.0293 30.1282 53.0359C30.6366 53.0382 31.133 53.1905 31.5554 53.4736C31.9777 53.7567 32.3071 54.1581 32.5024 54.6276C32.6977 55.097 32.7502 55.6136 32.6534 56.1127C32.5565 56.6119 32.3145 57.0714 31.9578 57.4337C31.4429 57.8597 30.7965 58.0944 30.1282 58.0982Z" fill="black"/>
<path d="M35.2726 62.25C34.9881 62.2437 34.7171 62.1273 34.5167 61.9253C34.3163 61.7234 34.2019 61.4515 34.1978 61.167V48.7203C34.2213 48.4504 34.3452 48.1991 34.5449 48.016C34.7447 47.833 35.0058 47.7314 35.2767 47.7314C35.5476 47.7314 35.8087 47.833 36.0085 48.016C36.2082 48.1991 36.3321 48.4504 36.3556 48.7203V61.167C36.3494 61.4523 36.2332 61.7241 36.0315 61.9259C35.8297 62.1276 35.5579 62.2438 35.2726 62.25Z" fill="black"/>
<path d="M35.2726 34.2797C34.9881 34.2734 34.7171 34.157 34.5167 33.955C34.3163 33.753 34.2019 33.4812 34.1978 33.1967V23.8924C34.2213 23.6225 34.3452 23.3712 34.5449 23.1882C34.7447 23.0051 35.0058 22.9036 35.2767 22.9036C35.5476 22.9036 35.8087 23.0051 36.0085 23.1882C36.2082 23.3712 36.3321 23.6225 36.3556 23.8924V33.1885C36.3514 33.4752 36.2363 33.7491 36.0343 33.9526C35.8323 34.1561 35.5592 34.2734 35.2726 34.2797Z" fill="black"/>
<path d="M20.2495 28.0523C19.7396 28.0523 19.2412 27.901 18.8174 27.6175C18.3935 27.3341 18.0633 26.9312 17.8685 26.46C17.6738 25.9888 17.6232 25.4703 17.7233 24.9703C17.8234 24.4703 18.0696 24.0113 18.4307 23.6514C18.7918 23.2914 19.2517 23.0466 19.752 22.9482C20.2523 22.8497 20.7705 22.9019 21.2411 23.0981C21.7118 23.2944 22.1136 23.6259 22.3957 24.0506C22.6778 24.4754 22.8275 24.9743 22.8258 25.4842C22.8237 26.166 22.5513 26.8192 22.0684 27.3006C21.5854 27.782 20.9314 28.0523 20.2495 28.0523ZM20.2495 24.9016C20.1289 24.9172 20.018 24.9762 19.9376 25.0675C19.8573 25.1589 19.813 25.2764 19.813 25.398C19.813 25.5197 19.8573 25.6372 19.9376 25.7286C20.018 25.8199 20.1289 25.8789 20.2495 25.8944C20.3162 25.898 20.3828 25.8875 20.4452 25.8636C20.5075 25.8397 20.5641 25.8029 20.6113 25.7557C20.6585 25.7085 20.6953 25.6519 20.7192 25.5896C20.7431 25.5273 20.7536 25.4606 20.75 25.3939C20.7403 25.2652 20.6842 25.1443 20.5922 25.0538C20.5001 24.9633 20.3784 24.9092 20.2495 24.9016Z" fill="black"/>
<path d="M61.7495 24.9016C61.0274 24.9016 60.3215 24.6875 59.7211 24.2863C59.1206 23.8851 58.6527 23.3149 58.3763 22.6478C58.1 21.9806 58.0277 21.2465 58.1685 20.5382C58.3094 19.83 58.6572 19.1794 59.1678 18.6687C59.6784 18.1581 60.329 17.8104 61.0372 17.6695C61.7455 17.5286 62.4796 17.6009 63.1468 17.8773C63.8139 18.1536 64.3841 18.6216 64.7853 19.222C65.1865 19.8225 65.4007 20.5284 65.4007 21.2505C65.3921 22.2162 65.0047 23.1399 64.3218 23.8228C63.6389 24.5057 62.7152 24.8931 61.7495 24.9016ZM61.7495 19.7572C61.4383 19.7589 61.1346 19.8526 60.8766 20.0267C60.6186 20.2008 60.418 20.4474 60.3 20.7354C60.182 21.0234 60.152 21.3398 60.2137 21.6449C60.2754 21.9499 60.4261 22.2298 60.6467 22.4493C60.8674 22.6688 61.148 22.818 61.4534 22.8782C61.7588 22.9383 62.0751 22.9066 62.3625 22.7872C62.6499 22.6677 62.8954 22.4657 63.0681 22.2069C63.2409 21.948 63.3331 21.6438 63.3331 21.3325C63.3245 20.919 63.1536 20.5255 62.8573 20.2369C62.561 19.9483 62.1631 19.7878 61.7495 19.79V19.7572Z" fill="black"/>
<path d="M50.4679 56.0225C45.2332 56.0225 37.2664 48.6382 34.9444 42.9933C33.5332 39.5883 34.4439 37.6848 35.4449 36.6838C36.4191 35.7267 37.7303 35.1904 39.096 35.1904C40.4618 35.1904 41.7729 35.7267 42.7472 36.6838C43.2253 37.1565 43.6038 37.7202 43.8602 38.3417C44.1167 38.9632 44.246 39.6298 44.2404 40.3021C44.2441 41.498 43.8323 42.6581 43.0754 43.584L46.7265 47.2352C47.6422 46.4884 48.7858 46.0773 49.9674 46.0701C50.6455 46.0635 51.3181 46.1924 51.9458 46.4491C52.5735 46.7058 53.1435 47.0852 53.6227 47.5651C54.1018 48.045 54.4803 48.6157 54.736 49.2438C54.9918 49.8719 55.1195 50.5446 55.1118 51.2227C55.0941 52.5849 54.5605 53.8897 53.6186 54.8739C52.7584 55.654 51.6285 56.0688 50.4679 56.0308V56.0225ZM39.096 37.1514C38.2593 37.1641 37.4575 37.489 36.8479 38.0622C35.8551 39.0632 36.2736 40.8026 36.8479 42.1646C39.096 47.5552 46.4804 53.9467 50.4679 53.9467C51.0692 53.9785 51.6587 53.7722 52.1089 53.3724C52.5321 52.9423 52.8196 52.3972 52.9354 51.805C53.0513 51.2128 52.9904 50.5996 52.7604 50.0417C52.5304 49.4839 52.1415 49.0059 51.642 48.6673C51.1424 48.3288 50.5544 48.1446 49.951 48.1377C49.1162 48.1554 48.3178 48.483 47.7111 49.0567L47.4567 49.3028C47.2596 49.5177 46.9973 49.6619 46.7101 49.713C46.5578 49.7201 46.4058 49.6945 46.2643 49.6379C46.1227 49.5813 45.995 49.495 45.8896 49.3849L40.7452 44.2404C40.635 44.1351 40.5487 44.0073 40.4921 43.8658C40.4355 43.7243 40.4099 43.5722 40.417 43.4199C40.4148 43.2706 40.4515 43.1233 40.5234 42.9924C40.5953 42.8615 40.7 42.7515 40.8273 42.6733L41.0734 42.419C41.3637 42.1396 41.5947 41.8044 41.7525 41.4336C41.9102 41.0629 41.9916 40.6641 41.9916 40.2611C41.9916 39.8582 41.9102 39.4594 41.7525 39.0886C41.5947 38.7178 41.3637 38.3826 41.0734 38.1032C40.8404 37.8041 40.5396 37.5646 40.1957 37.4048C39.8519 37.245 39.4749 37.1695 39.096 37.1843V37.1514Z" fill="black"/>
<path d="M52.954 33.1966H39.4242C39.1405 33.1924 38.8695 33.0778 38.6689 32.8771C38.4682 32.6765 38.3536 32.4055 38.3494 32.1218V27.9948C38.3536 27.711 38.4682 27.4401 38.6689 27.2394C38.8695 27.0388 39.1405 26.9242 39.4242 26.9199H52.954C53.2385 26.9241 53.5103 27.0384 53.7123 27.2389C53.9143 27.4393 54.0306 27.7103 54.037 27.9948V32.0972C54.0089 32.3765 53.8862 32.6377 53.6892 32.8377C53.4922 33.0377 53.2328 33.1644 52.954 33.1966ZM40.5072 31.129H51.994V29.0532H40.5072V31.129Z" fill="black"/>
</g>
</svg>
