<svg width="83" height="83" viewBox="0 0 83 83" fill="none" xmlns="http://www.w3.org/2000/svg">
<g opacity="0.3">
<path d="M41.5 20.75C37.396 20.75 33.3842 21.967 29.9719 24.247C26.5596 26.5271 23.9 29.7678 22.3295 33.5593C20.759 37.3509 20.3481 41.523 21.1487 45.5481C21.9494 49.5732 23.9256 53.2705 26.8275 56.1725C29.7295 59.0744 33.4267 61.0506 37.4518 61.8513C41.4769 62.6519 45.6491 62.241 49.4407 60.6705C53.2323 59.1 56.4729 56.4404 58.753 53.0281C61.033 49.6158 62.25 45.6039 62.25 41.5C62.2478 35.9974 60.061 30.7209 56.1701 26.83C52.2791 22.939 47.0025 20.7522 41.5 20.75Z" fill="white"/>
<path d="M57.1054 41.5C57.1472 45.1232 55.9301 48.6485 53.6621 51.4743C51.394 54.3 48.2155 56.251 44.6692 56.9943C41.1228 57.7375 37.4284 57.2268 34.2166 55.5494C31.0049 53.8721 28.4748 51.132 27.0583 47.7969C25.6419 44.4619 25.4268 40.7385 26.4498 37.2626C27.4729 33.7866 29.6707 30.7734 32.668 28.7374C35.6653 26.7014 39.2762 25.7688 42.8846 26.0987C46.4929 26.4287 49.875 28.0007 52.4533 30.5466C53.9366 31.9571 55.1147 33.657 55.9149 35.541C56.7151 37.425 57.1203 39.4531 57.1054 41.5Z" fill="#B7C681"/>
<path d="M58.0982 60.1742C58.5088 60.1742 58.9101 60.296 59.2515 60.5241C59.5928 60.7522 59.8589 61.0764 60.016 61.4557C60.1731 61.835 60.2142 62.2523 60.1341 62.655C60.054 63.0577 59.8563 63.4276 59.566 63.7179C59.2757 64.0082 58.9058 64.2059 58.5031 64.286C58.1005 64.3661 57.6831 64.325 57.3038 64.1679C56.9245 64.0107 56.6003 63.7447 56.3722 63.4033C56.1441 63.062 56.0224 62.6606 56.0224 62.2501C56.0191 61.9765 56.0705 61.7051 56.1737 61.4518C56.2768 61.1984 56.4296 60.9683 56.623 60.7749C56.8164 60.5814 57.0466 60.4287 57.2999 60.3255C57.5533 60.2224 57.8247 60.1709 58.0982 60.1742Z" fill="white"/>
<path d="M23.3263 19.7573C23.8362 19.7573 24.3346 19.9087 24.7585 20.1921C25.1823 20.4756 25.5126 20.8784 25.7073 21.3497C25.9021 21.8209 25.9526 22.3393 25.8525 22.8393C25.7525 23.3393 25.5063 23.7983 25.1451 24.1583C24.784 24.5183 24.3242 24.763 23.8239 24.8615C23.3236 24.9599 22.8053 24.9078 22.3347 24.7115C21.8641 24.5153 21.4623 24.1837 21.1802 23.759C20.8981 23.3342 20.7484 22.8353 20.75 22.3254C20.7522 21.6436 21.0246 20.9904 21.5075 20.509C21.9904 20.0276 22.6445 19.7573 23.3263 19.7573Z" fill="white"/>
<path d="M41.5 39.4242C41.9106 39.4242 42.312 39.546 42.6533 39.7741C42.9947 40.0022 43.2607 40.3263 43.4178 40.7056C43.5749 41.0849 43.616 41.5023 43.5359 41.905C43.4559 42.3077 43.2582 42.6776 42.9679 42.9679C42.6776 43.2582 42.3077 43.4559 41.905 43.5359C41.5023 43.616 41.0849 43.5749 40.7056 43.4178C40.3263 43.2607 40.0022 42.9947 39.7741 42.6533C39.546 42.312 39.4242 41.9106 39.4242 41.5C39.4209 41.2265 39.4724 40.9551 39.5755 40.7018C39.6787 40.4484 39.8314 40.2183 40.0249 40.0249C40.2183 39.8314 40.4484 39.6787 40.7018 39.5755C40.9551 39.4724 41.2265 39.4209 41.5 39.4242Z" fill="white"/>
<path d="M63.3331 26.9775C63.5476 26.9775 63.7573 27.0413 63.9356 27.1607C64.1139 27.28 64.2527 27.4497 64.3344 27.648C64.4161 27.8464 64.4371 28.0646 64.3946 28.2749C64.3522 28.4852 64.2482 28.6782 64.0959 28.8293C63.9436 28.9805 63.7499 29.0829 63.5392 29.1238C63.3286 29.1647 63.1106 29.1421 62.9129 29.0588C62.7151 28.9756 62.5466 28.8355 62.4286 28.6563C62.3105 28.4771 62.2484 28.267 62.25 28.0524C62.2543 27.7673 62.37 27.4951 62.5724 27.2942C62.7749 27.0934 63.0479 26.9797 63.3331 26.9775Z" fill="black"/>
<path d="M63.333 53.9468C63.5472 53.9468 63.7566 54.0103 63.9347 54.1293C64.1128 54.2483 64.2516 54.4174 64.3336 54.6153C64.4156 54.8132 64.437 55.031 64.3953 55.2411C64.3535 55.4512 64.2503 55.6442 64.0988 55.7956C63.9474 55.9471 63.7544 56.0502 63.5443 56.092C63.3342 56.1338 63.1164 56.1124 62.9185 56.0304C62.7206 55.9484 62.5515 55.8096 62.4325 55.6315C62.3135 55.4534 62.25 55.244 62.25 55.0298C62.2542 54.7439 62.3697 54.4708 62.5719 54.2686C62.7741 54.0664 63.0471 53.951 63.333 53.9468Z" fill="black"/>
<path d="M56.0224 17.6814C56.2373 17.6798 56.4478 17.7421 56.6272 17.8605C56.8065 17.9789 56.9466 18.1479 57.0296 18.3462C57.1126 18.5444 57.1347 18.7628 57.0932 18.9737C57.0517 19.1845 56.9483 19.3783 56.7964 19.5303C56.6444 19.6822 56.4507 19.7855 56.2398 19.827C56.029 19.8686 55.8106 19.8464 55.6123 19.7634C55.4141 19.6804 55.245 19.5404 55.1266 19.361C55.0082 19.1816 54.9459 18.9712 54.9475 18.7563C54.9497 18.4719 55.0636 18.1997 55.2647 17.9986C55.4658 17.7975 55.738 17.6836 56.0224 17.6814Z" fill="black"/>
<path d="M25.9764 62.25C26.191 62.2484 26.4012 62.3105 26.5804 62.4286C26.7596 62.5466 26.8996 62.7151 26.9829 62.9129C27.0661 63.1106 27.0887 63.3286 27.0479 63.5392C27.007 63.7499 26.9045 63.9436 26.7534 64.0959C26.6022 64.2482 26.4093 64.3522 26.199 64.3946C25.9887 64.4371 25.7705 64.4161 25.5721 64.3344C25.3737 64.2527 25.2041 64.1139 25.0847 63.9356C24.9653 63.7573 24.9016 63.5476 24.9016 63.3331C24.9078 63.0492 25.0228 62.7785 25.2228 62.5769C25.4228 62.3754 25.6926 62.2584 25.9764 62.25Z" fill="black"/>
<path d="M19.7571 28.0522C19.9713 28.0522 20.1808 28.1157 20.3589 28.2347C20.537 28.3537 20.6758 28.5229 20.7577 28.7208C20.8397 28.9187 20.8612 29.1365 20.8194 29.3466C20.7776 29.5567 20.6744 29.7496 20.523 29.9011C20.3715 30.0526 20.1785 30.1557 19.9684 30.1975C19.7583 30.2393 19.5406 30.2178 19.3427 30.1359C19.1448 30.0539 18.9756 29.9151 18.8566 29.737C18.7376 29.5589 18.6741 29.3494 18.6741 29.1352C18.6783 28.8493 18.7938 28.5763 18.996 28.3741C19.1982 28.1719 19.4712 28.0565 19.7571 28.0522Z" fill="black"/>
<path d="M19.7571 53.9468C19.9713 53.9468 20.1808 54.0103 20.3589 54.1293C20.537 54.2483 20.6758 54.4174 20.7577 54.6153C20.8397 54.8132 20.8612 55.031 20.8194 55.2411C20.7776 55.4512 20.6744 55.6442 20.523 55.7956C20.3715 55.9471 20.1785 56.0502 19.9684 56.092C19.7583 56.1338 19.5406 56.1124 19.3427 56.0304C19.1448 55.9484 18.9756 55.8096 18.8566 55.6315C18.7376 55.4534 18.6741 55.244 18.6741 55.0298C18.6783 54.7439 18.7938 54.4708 18.996 54.2686C19.1982 54.0664 19.4712 53.951 19.7571 53.9468Z" fill="black"/>
<path d="M41.5 63.333C37.1934 63.3249 32.9858 62.041 29.4085 59.6433C25.8311 57.2457 23.0443 53.8418 21.4 49.8615C19.7557 45.8812 19.3276 41.503 20.1698 37.2796C21.0119 33.0562 23.0865 29.1769 26.1317 26.1317C29.1769 23.0865 33.0562 21.0119 37.2796 20.1698C41.503 19.3276 45.8812 19.7557 49.8615 21.4C53.8418 23.0443 57.2457 25.8311 59.6433 29.4085C62.041 32.9858 63.3249 37.1934 63.333 41.5C63.3265 47.2884 61.0242 52.838 56.9311 56.9311C52.838 61.0242 47.2884 63.3265 41.5 63.333ZM41.5 21.833C37.6082 21.846 33.8075 23.0119 30.5778 25.1835C27.3482 27.3551 24.8345 30.4351 23.3542 34.0343C21.8738 37.6336 21.4932 41.5909 22.2604 45.4063C23.0276 49.2218 24.9082 52.7243 27.6647 55.4717C30.4212 58.219 33.9301 60.0879 37.748 60.8424C41.566 61.5969 45.522 61.2032 49.1163 59.7109C52.7107 58.2186 55.7822 55.6946 57.9431 52.4578C60.1039 49.221 61.2572 45.4164 61.2572 41.5246C61.2183 36.3065 59.1208 31.3148 55.421 27.6349C51.7212 23.9551 46.7182 21.8847 41.5 21.874V21.833Z" fill="black"/>
<path d="M41.4998 58.0985C37.6265 58.1331 33.8613 56.822 30.8473 54.3891C27.8332 51.9561 25.7573 48.5523 24.9741 44.7589C24.1909 40.9655 24.7489 37.0178 26.5529 33.5901C28.3568 30.1624 31.2948 27.4672 34.8651 25.965C38.4354 24.4628 42.4165 24.2466 46.1284 25.3535C49.8403 26.4604 53.0529 28.8216 55.2173 32.0338C57.3818 35.2461 58.3639 39.1102 57.996 42.9661C57.628 46.8221 55.9328 50.4306 53.1999 53.1756C51.6782 54.7372 49.8586 55.9775 47.8489 56.8231C45.8392 57.6687 43.6802 58.1024 41.4998 58.0985ZM41.4998 26.9775C38.158 26.993 34.9247 28.1657 32.35 30.2962C29.7754 32.4267 28.0183 35.3833 27.3777 38.6632C26.7371 41.9431 27.2527 45.3436 28.8365 48.2862C30.4204 51.2289 32.9749 53.532 36.0653 54.8036C39.1558 56.0753 42.5913 56.237 45.7875 55.2613C48.9838 54.2856 51.7433 52.2327 53.5966 49.4518C55.4499 46.671 56.2826 43.334 55.953 40.0084C55.6234 36.6829 54.1518 33.5742 51.7887 31.2113C50.4396 29.8592 48.8354 28.7886 47.0691 28.0618C45.3028 27.335 43.4097 26.9665 41.4998 26.9775Z" fill="black"/>
<path d="M41.5 44.6507C40.8768 44.6507 40.2677 44.4659 39.7496 44.1197C39.2315 43.7735 38.8277 43.2814 38.5892 42.7057C38.3507 42.13 38.2883 41.4965 38.4099 40.8853C38.5315 40.2742 38.8315 39.7128 39.2722 39.2722C39.7128 38.8315 40.2742 38.5315 40.8853 38.4099C41.4965 38.2883 42.13 38.3507 42.7057 38.5892C43.2814 38.8277 43.7735 39.2315 44.1197 39.7496C44.4659 40.2677 44.6507 40.8768 44.6507 41.5C44.6507 41.9137 44.5692 42.3235 44.4108 42.7057C44.2525 43.088 44.0204 43.4353 43.7279 43.7279C43.4353 44.0204 43.088 44.2525 42.7057 44.4108C42.3235 44.5692 41.9137 44.6507 41.5 44.6507ZM41.5 40.5483C41.2301 40.5718 40.9788 40.6957 40.7957 40.8954C40.6127 41.0951 40.5111 41.3563 40.5111 41.6272C40.5111 41.8981 40.6127 42.1592 40.7957 42.3589C40.9788 42.5587 41.2301 42.6826 41.5 42.7061C41.7853 42.6999 42.0571 42.5837 42.2589 42.382C42.4606 42.1802 42.5768 41.9084 42.583 41.6231C42.5936 41.4766 42.573 41.3296 42.5228 41.1917C42.4725 41.0537 42.3937 40.9279 42.2914 40.8226C42.1892 40.7172 42.0658 40.6346 41.9294 40.5803C41.793 40.526 41.6467 40.5011 41.5 40.5072V40.5483Z" fill="black"/>
<path d="M23.3262 25.9766C22.6041 25.9766 21.8982 25.7625 21.2977 25.3613C20.6973 24.9601 20.2293 24.3899 19.953 23.7227C19.6766 23.0555 19.6043 22.3214 19.7452 21.6132C19.8861 20.9049 20.2338 20.2544 20.7444 19.7437C21.255 19.2331 21.9056 18.8854 22.6139 18.7445C23.3221 18.6036 24.0563 18.6759 24.7234 18.9522C25.3906 19.2286 25.9608 19.6966 26.362 20.297C26.7632 20.8974 26.9773 21.6033 26.9773 22.3255C26.9687 23.2912 26.5813 24.2149 25.8985 24.8977C25.2156 25.5806 24.2919 25.9681 23.3262 25.9766ZM23.3262 20.7502C23.0146 20.7502 22.71 20.8425 22.451 21.0156C22.1919 21.1887 21.99 21.4348 21.8708 21.7226C21.7515 22.0105 21.7204 22.3272 21.7811 22.6328C21.8419 22.9384 21.9919 23.2191 22.2123 23.4394C22.4326 23.6597 22.7133 23.8098 23.0189 23.8705C23.3245 23.9313 23.6412 23.9001 23.929 23.7809C24.2169 23.6617 24.4629 23.4597 24.636 23.2007C24.8091 22.9416 24.9015 22.637 24.9015 22.3255C24.9084 22.1167 24.8723 21.9088 24.7955 21.7146C24.7188 21.5204 24.603 21.344 24.4554 21.1963C24.3077 21.0486 24.1313 20.9329 23.9371 20.8561C23.7428 20.7794 23.5349 20.7433 23.3262 20.7502Z" fill="black"/>
<path d="M58.0983 65.4007C57.4755 65.399 56.8671 65.2129 56.3501 64.8657C55.833 64.5185 55.4305 64.0259 55.1933 63.4501C54.9561 62.8742 54.8949 62.2409 55.0174 61.6303C55.1399 61.0197 55.4406 60.4591 55.8815 60.0193C56.3225 59.5795 56.8839 59.2802 57.4948 59.1593C58.1058 59.0384 58.7388 59.1013 59.314 59.34C59.8893 59.5787 60.3808 59.9825 60.7267 60.5005C61.0725 61.0184 61.2571 61.6272 61.2571 62.25C61.2571 62.6645 61.1753 63.0748 61.0165 63.4576C60.8576 63.8404 60.6248 64.1881 60.3314 64.4808C60.038 64.7734 59.6897 65.0053 59.3065 65.1632C58.9233 65.321 58.5127 65.4017 58.0983 65.4007ZM58.0983 61.2982C57.8284 61.3218 57.5771 61.4457 57.394 61.6454C57.211 61.8452 57.1094 62.1062 57.1094 62.3772C57.1094 62.6481 57.211 62.9092 57.394 63.109C57.5771 63.3087 57.8284 63.4326 58.0983 63.4561C58.2479 63.4692 58.3985 63.451 58.5407 63.4027C58.6829 63.3544 58.8135 63.2771 58.9242 63.1756C59.0349 63.0742 59.1233 62.9508 59.1838 62.8133C59.2442 62.6759 59.2755 62.5273 59.2755 62.3772C59.2755 62.227 59.2442 62.0785 59.1838 61.9411C59.1233 61.8036 59.0349 61.6802 58.9242 61.5788C58.8135 61.4773 58.6829 61.4 58.5407 61.3517C58.3985 61.3034 58.2479 61.2852 58.0983 61.2982Z" fill="black"/>
<path d="M41.4999 30.2922C41.2161 30.288 40.9452 30.1733 40.7445 29.9727C40.5439 29.772 40.4293 29.5011 40.425 29.2174V25.8944C40.4486 25.6245 40.5725 25.3732 40.7722 25.1902C40.972 25.0071 41.233 24.9055 41.504 24.9055C41.7749 24.9055 42.036 25.0071 42.2358 25.1902C42.4355 25.3732 42.5594 25.6245 42.5829 25.8944V29.2584C42.5819 29.398 42.5529 29.5361 42.4975 29.6643C42.4421 29.7925 42.3615 29.9083 42.2604 30.0047C42.1594 30.1012 42.04 30.1763 41.9094 30.2257C41.7787 30.2751 41.6394 30.2977 41.4999 30.2922Z" fill="black"/>
<path d="M41.4999 58.0983C41.2161 58.0941 40.9452 57.9795 40.7445 57.7788C40.5439 57.5782 40.4293 57.3073 40.425 57.0235V53.7005C40.4486 53.4306 40.5725 53.1793 40.7722 52.9963C40.972 52.8132 41.233 52.7117 41.504 52.7117C41.7749 52.7117 42.036 52.8132 42.2358 52.9963C42.4355 53.1793 42.5594 53.4306 42.5829 53.7005V57.0235C42.5766 57.308 42.4602 57.5789 42.2582 57.7794C42.0562 57.9798 41.7844 58.0942 41.4999 58.0983Z" fill="black"/>
<path d="M50.1314 33.8614C49.991 33.8611 49.8522 33.8318 49.7238 33.7754C49.5953 33.7189 49.4799 33.6364 49.3848 33.5332C49.285 33.4361 49.2057 33.32 49.1516 33.1918C49.0975 33.0635 49.0696 32.9257 49.0696 32.7865C49.0696 32.6473 49.0975 32.5096 49.1516 32.3813C49.2057 32.2531 49.285 32.137 49.3848 32.0399L51.7067 29.7179C51.8097 29.6244 51.9303 29.5522 52.0614 29.5056C52.1925 29.4591 52.3316 29.439 52.4705 29.4467C52.6094 29.4543 52.7455 29.4895 52.8707 29.5501C52.9959 29.6108 53.1079 29.6957 53.2 29.8C53.2936 29.8948 53.3663 30.0082 53.4133 30.1329C53.4603 30.2576 53.4805 30.3908 53.4728 30.5238C53.4651 30.6569 53.4295 30.7868 53.3683 30.9052C53.3072 31.0236 53.2219 31.1279 53.118 31.2112L50.796 33.5332C50.7139 33.7793 50.3775 33.8614 50.1314 33.8614Z" fill="black"/>
<path d="M30.4644 53.5366C30.2192 53.5449 29.9805 53.4565 29.7998 53.2904C29.6064 53.0927 29.4914 52.8314 29.4763 52.5551C29.4612 52.2789 29.547 52.0067 29.7178 51.789L32.0398 49.467C32.2419 49.291 32.5034 49.1982 32.7713 49.2074C33.0392 49.2167 33.2937 49.3272 33.4832 49.5168C33.6728 49.7064 33.7834 49.9608 33.7926 50.2288C33.8018 50.4967 33.7091 50.7581 33.5331 50.9603L31.2111 53.2904C31.0043 53.4676 30.736 53.5561 30.4644 53.5366Z" fill="black"/>
<path d="M32.8684 33.8614C32.728 33.8612 32.5892 33.8319 32.4607 33.7754C32.3322 33.719 32.2168 33.6365 32.1217 33.5333L29.7997 31.2113C29.6237 31.0091 29.5309 30.7477 29.5402 30.4797C29.5494 30.2118 29.66 29.9573 29.8496 29.7678C30.0391 29.5782 30.2935 29.4676 30.5615 29.4584C30.8294 29.4492 31.0908 29.5419 31.293 29.718L33.615 32.04C33.7147 32.1371 33.794 32.2532 33.8482 32.3814C33.9023 32.5096 33.9301 32.6474 33.9301 32.7866C33.9301 32.9258 33.9023 33.0636 33.8482 33.1918C33.794 33.3201 33.7147 33.4362 33.615 33.5333C33.5199 33.6365 33.4045 33.719 33.276 33.7754C33.1475 33.8319 33.0087 33.8612 32.8684 33.8614Z" fill="black"/>
<path d="M52.5437 53.5367C52.4014 53.5365 52.2607 53.5065 52.1306 53.4485C52.0006 53.3906 51.8842 53.306 51.7889 53.2002L49.4669 50.8783C49.2695 50.6799 49.1587 50.4115 49.1587 50.1316C49.1587 49.8518 49.2695 49.5834 49.4669 49.385C49.564 49.2853 49.6801 49.206 49.8084 49.1519C49.9366 49.0977 50.0743 49.0698 50.2135 49.0698C50.3527 49.0698 50.4905 49.0977 50.6188 49.1519C50.747 49.206 50.8631 49.2853 50.9602 49.385L53.2903 51.7069C53.4878 51.9053 53.5986 52.1738 53.5986 52.4536C53.5986 52.7335 53.4878 53.0019 53.2903 53.2002C53.1963 53.3054 53.0813 53.3896 52.9527 53.4476C52.8241 53.5055 52.6848 53.5359 52.5437 53.5367Z" fill="black"/>
<path d="M57.1055 42.5832H53.7826C53.5127 42.5596 53.2614 42.4358 53.0783 42.236C52.8953 42.0363 52.7937 41.7752 52.7937 41.5042C52.7937 41.2333 52.8953 40.9722 53.0783 40.7725C53.2614 40.5727 53.5127 40.4489 53.7826 40.4253H57.1055C57.3893 40.4295 57.6602 40.5441 57.8609 40.7448C58.0615 40.9455 58.1761 41.2164 58.1804 41.5001C58.1492 41.7752 58.0261 42.0318 57.831 42.2283C57.636 42.4248 57.3804 42.5499 57.1055 42.5832Z" fill="black"/>
<path d="M29.2993 42.5832H26.0174C25.7475 42.5596 25.4962 42.4358 25.3132 42.236C25.1301 42.0363 25.0286 41.7752 25.0286 41.5042C25.0286 41.2333 25.1301 40.9722 25.3132 40.7725C25.4962 40.5727 25.7475 40.4489 26.0174 40.4253H29.2993C29.5839 40.4295 29.8557 40.5438 30.0577 40.7442C30.2597 40.9447 30.376 41.2156 30.3824 41.5001C30.3615 41.7804 30.2407 42.044 30.042 42.2427C29.8432 42.4415 29.5797 42.5623 29.2993 42.5832Z" fill="black"/>
<path d="M41.4999 40.5074C41.2154 40.501 40.9444 40.3846 40.744 40.1827C40.5436 39.9807 40.4292 39.7089 40.425 39.4243V33.1969C40.4486 32.9269 40.5725 32.6757 40.7722 32.4926C40.972 32.3095 41.233 32.208 41.504 32.208C41.7749 32.208 42.036 32.3095 42.2358 32.4926C42.4355 32.6757 42.5594 32.9269 42.5829 33.1969V39.4243C42.5766 39.7096 42.4605 39.9815 42.2588 40.1832C42.057 40.385 41.7851 40.5011 41.4999 40.5074Z" fill="black"/>
<path d="M46.7263 42.5831H43.5757C43.4261 42.5962 43.2754 42.578 43.1332 42.5297C42.991 42.4814 42.8604 42.4041 42.7497 42.3026C42.639 42.2012 42.5506 42.0778 42.4901 41.9403C42.4297 41.8029 42.3984 41.6543 42.3984 41.5042C42.3984 41.354 42.4297 41.2055 42.4901 41.068C42.5506 40.9306 42.639 40.8072 42.7497 40.7058C42.8604 40.6043 42.991 40.527 43.1332 40.4787C43.2754 40.4304 43.4261 40.4122 43.5757 40.4252H46.7263C47.0108 40.4294 47.2827 40.5437 47.4846 40.7442C47.6866 40.9446 47.803 41.2156 47.8093 41.5001C47.7778 41.7764 47.6535 42.0339 47.4568 42.2306C47.2602 42.4273 47.0026 42.5515 46.7263 42.5831Z" fill="black"/>
</g>
</svg>
