<svg width="23" height="21" viewBox="0 0 23 21" fill="none" xmlns="http://www.w3.org/2000/svg">
<path d="M11.4998 10.0625C10.8644 10.0625 10.255 9.83203 9.80573 9.42179C9.35642 9.01156 9.104 8.45516 9.104 7.875C9.104 7.29484 9.35642 6.73844 9.80573 6.3282C10.255 5.91797 10.8644 5.6875 11.4998 5.6875C12.1353 5.6875 12.7446 5.91797 13.1939 6.3282C13.6433 6.73844 13.8957 7.29484 13.8957 7.875C13.8957 8.16227 13.8337 8.44672 13.7133 8.71212C13.5929 8.97752 13.4164 9.21867 13.1939 9.42179C12.9715 9.62492 12.7074 9.78605 12.4167 9.89599C12.126 10.0059 11.8145 10.0625 11.4998 10.0625ZM11.4998 1.75C9.72068 1.75 8.01439 2.39531 6.75633 3.54397C5.49827 4.69263 4.7915 6.25055 4.7915 7.875C4.7915 12.4687 11.4998 19.25 11.4998 19.25C11.4998 19.25 18.2082 12.4687 18.2082 7.875C18.2082 6.25055 17.5014 4.69263 16.2433 3.54397C14.9853 2.39531 13.279 1.75 11.4998 1.75Z" fill="white"/>
</svg>
