<svg width="18" height="20" viewBox="0 0 18 20" fill="none" xmlns="http://www.w3.org/2000/svg">
<path d="M1.12725 5.81438C1.1558 5.09043 1.43473 4.40667 1.90589 3.90563C2.37705 3.40459 3.00408 3.12495 3.65625 3.125H14.3438C14.9959 3.12495 15.623 3.40459 16.0941 3.90563C16.5653 4.40667 16.8442 5.09043 16.8728 5.81438L16.0425 6.32688L9 10.54L1.9575 6.32688L1.12725 5.81438ZM1.125 7.2425V14.0625C1.125 14.8084 1.39168 15.5238 1.86639 16.0512C2.34109 16.5787 2.98492 16.875 3.65625 16.875H14.3438C15.0151 16.875 15.6589 16.5787 16.1336 16.0512C16.6083 15.5238 16.875 14.8084 16.875 14.0625V7.2425L16.5791 7.42562L9.26663 11.8006C9.18468 11.8496 9.09307 11.8753 9 11.8753C8.90693 11.8753 8.81532 11.8496 8.73338 11.8006L1.41412 7.42125L1.125 7.2425Z" fill="white"/>
</svg>
