<svg width="19" height="19" viewBox="0 0 19 19" fill="none" xmlns="http://www.w3.org/2000/svg">
<path d="M11.3013 2.81512C11.3215 2.73977 11.3563 2.66912 11.4037 2.60723C11.4512 2.54533 11.5104 2.49339 11.5779 2.45438C11.6455 2.41537 11.72 2.39005 11.7974 2.37987C11.8747 2.36969 11.9533 2.37484 12.0286 2.39504C13.1294 2.68223 14.1336 3.25764 14.938 4.06202C15.7424 4.8664 16.3178 5.87066 16.605 6.97137C16.6252 7.04671 16.6303 7.12529 16.6201 7.20263C16.61 7.27996 16.5846 7.35453 16.5456 7.42208C16.5066 7.48963 16.4547 7.54882 16.3928 7.59629C16.3309 7.64375 16.2602 7.67856 16.1849 7.69871C16.1347 7.71189 16.0831 7.71862 16.0313 7.71875C15.9005 7.71879 15.7734 7.67568 15.6697 7.5961C15.5659 7.51652 15.4914 7.40493 15.4575 7.27864C15.2234 6.37995 14.7539 5.55996 14.0973 4.90322C13.4406 4.24648 12.6208 3.77675 11.7221 3.54246C11.6467 3.52239 11.576 3.48764 11.514 3.44021C11.452 3.39278 11.4 3.33359 11.3609 3.26604C11.3218 3.19848 11.2964 3.12389 11.2862 3.04651C11.276 2.96914 11.2811 2.89051 11.3013 2.81512ZM11.1284 5.91746C12.1518 6.19059 12.8094 6.84891 13.0825 7.87239C13.1164 7.99868 13.1909 8.11027 13.2947 8.18985C13.3984 8.26943 13.5255 8.31254 13.6563 8.3125C13.7081 8.31237 13.7597 8.30564 13.8099 8.29246C13.8852 8.27231 13.9559 8.2375 14.0178 8.19004C14.0797 8.14257 14.1316 8.08338 14.1706 8.01583C14.2096 7.94828 14.235 7.87371 14.2451 7.79638C14.2553 7.71904 14.2502 7.64046 14.23 7.56512C13.85 6.14309 12.8569 5.15004 11.4349 4.77004C11.3595 4.74991 11.281 4.74482 11.2037 4.75506C11.1264 4.7653 11.0518 4.79066 10.9843 4.82971C10.9168 4.86875 10.8577 4.9207 10.8102 4.98261C10.7628 5.04451 10.728 5.11515 10.7079 5.19049C10.6878 5.26583 10.6827 5.3444 10.6929 5.42171C10.7032 5.49901 10.7285 5.57355 10.7676 5.64106C10.8066 5.70856 10.8586 5.76772 10.9205 5.81514C10.9824 5.86257 11.053 5.89734 11.1284 5.91746ZM16.504 11.7607L13.0076 10.1939L12.9979 10.1895C12.8164 10.1119 12.6184 10.0807 12.4218 10.0988C12.2252 10.117 12.0363 10.1839 11.872 10.2934C11.8527 10.3062 11.8341 10.3201 11.8164 10.335L10.0099 11.875C8.86544 11.3191 7.68387 10.1464 7.12798 9.01684L8.67024 7.18289C8.68508 7.16434 8.69919 7.14578 8.71255 7.12575C8.81974 6.96195 8.88477 6.77419 8.90187 6.57918C8.91896 6.38417 8.88758 6.18796 8.81051 6.00801V5.9991L7.2393 2.49672C7.13743 2.26164 6.96226 2.06582 6.73995 1.93848C6.51764 1.81113 6.2601 1.75911 6.00579 1.79016C5.0001 1.9225 4.07698 2.41639 3.40882 3.1796C2.74067 3.94282 2.37319 4.92315 2.37501 5.9375C2.37501 11.8305 7.16954 16.625 13.0625 16.625C14.0769 16.6268 15.0572 16.2593 15.8204 15.5912C16.5836 14.923 17.0775 13.9999 17.2099 12.9942C17.241 12.74 17.189 12.4825 17.0618 12.2602C16.9346 12.0379 16.739 11.8627 16.504 11.7607Z" fill="white"/>
</svg>
