<svg width="23" height="23" viewBox="0 0 23 23" fill="none" xmlns="http://www.w3.org/2000/svg">
<path d="M14.9571 0.25H8.05413C1.74963 0.25 0.25 1.74963 0.25 8.04288V14.9459C0.25 21.2493 1.73837 22.75 8.04288 22.75H14.9459C21.2493 22.75 22.75 21.2616 22.75 14.9571V8.05413C22.75 1.74963 21.2616 0.25 14.9571 0.25ZM18.4142 16.3038H16.7729C16.1519 16.3038 15.9651 15.8009 14.8514 14.6871C13.8794 13.75 13.4688 13.633 13.2224 13.633C12.8826 13.633 12.7892 13.7264 12.7892 14.1955V15.6715C12.7892 16.0709 12.6599 16.3049 11.617 16.3049C10.6049 16.2369 9.62341 15.9294 8.75342 15.4077C7.88343 14.8861 7.14982 14.1652 6.613 13.3045C5.33856 11.7182 4.45181 9.85652 4.02325 7.86737C4.02325 7.621 4.11663 7.39825 4.58575 7.39825H6.226C6.64787 7.39825 6.79975 7.58613 6.96513 8.01925C7.76162 10.3638 9.12062 12.4023 9.67188 12.4023C9.88338 12.4023 9.97563 12.3089 9.97563 11.7812V9.367C9.90588 8.26562 9.32088 8.17225 9.32088 7.774C9.32839 7.66896 9.37653 7.57097 9.45507 7.50083C9.53362 7.43068 9.6364 7.39389 9.74162 7.39825H12.3201C12.6722 7.39825 12.7892 7.57375 12.7892 7.99563V11.2536C12.7892 11.6058 12.9411 11.7227 13.0469 11.7227C13.2584 11.7227 13.4215 11.6058 13.8085 11.2188C14.6397 10.2051 15.3188 9.07571 15.8245 7.86625C15.8762 7.72097 15.974 7.59659 16.103 7.51209C16.232 7.42759 16.385 7.38761 16.5389 7.39825H18.1803C18.6719 7.39825 18.7765 7.64463 18.6719 7.99563C18.0751 9.33261 17.3366 10.6017 16.4691 11.7812C16.2925 12.0513 16.2216 12.1919 16.4691 12.508C16.6322 12.7544 17.2071 13.2347 17.5941 13.6915C18.1565 14.2525 18.6235 14.9015 18.9767 15.613C19.1174 16.0697 18.8822 16.3038 18.4142 16.3038Z" fill="white"/>
</svg>
